<mxfile host="Electron" agent="Mozilla/5.0 (Macintosh; Intel Mac OS X 10_15_7) AppleWebKit/537.36 (KHTML, like Gecko) draw.io/26.2.15 Chrome/134.0.6998.205 Electron/35.2.1 Safari/537.36" version="26.2.15">
  <diagram name="Seite-1" id="W5kXHEo18mATHlRhl3i8">
    <mxGraphModel dx="1333" dy="780" grid="1" gridSize="10" guides="1" tooltips="1" connect="1" arrows="1" fold="1" page="1" pageScale="1" pageWidth="1200" pageHeight="1600" math="0" shadow="0">
      <root>
        <mxCell id="0" />
        <mxCell id="1" style="" parent="0" />
        <mxCell id="-0mbv3-jxWPobRG6QbGR-23" value="Backend" parent="0" />
        <mxCell id="ugJio_jdhn8PNFgV0b_A-79" value="" style="group" vertex="1" connectable="0" parent="-0mbv3-jxWPobRG6QbGR-23">
          <mxGeometry x="220" y="600" width="299" height="170" as="geometry" />
        </mxCell>
        <mxCell id="ugJio_jdhn8PNFgV0b_A-27" value="votura-backend" style="shape=cube;whiteSpace=wrap;html=1;boundedLbl=1;backgroundOutline=1;darkOpacity=0.05;darkOpacity2=0.1;size=10;align=left;verticalAlign=top;fillColor=#CCCCCC;" vertex="1" parent="ugJio_jdhn8PNFgV0b_A-79">
          <mxGeometry x="20" width="270" height="160" as="geometry" />
        </mxCell>
        <mxCell id="-0mbv3-jxWPobRG6QbGR-13" value="" style="shape=image;verticalLabelPosition=bottom;labelBackgroundColor=default;verticalAlign=top;aspect=fixed;imageAspect=0;image=https://nodejs.org/static/logos/nodejsLight.svg;" parent="ugJio_jdhn8PNFgV0b_A-79" vertex="1">
          <mxGeometry x="140" y="20" width="100.13" height="30" as="geometry" />
        </mxCell>
        <mxCell id="ugJio_jdhn8PNFgV0b_A-45" value="" style="shape=image;verticalLabelPosition=bottom;labelBackgroundColor=default;verticalAlign=top;aspect=fixed;imageAspect=0;editableCssRules=.*;image=data:image/svg+xml,PHN2ZyB4bWxucz0iaHR0cDovL3d3dy53My5vcmcvMjAwMC9zdmciIHZpZXdCb3g9Ii0wLjAwNTIyNjk2OTcxODkzMzEwNTUgMCA3NTYuMjU1MjQ5MDIzNDM3NSA1OTYuOTAwMjA3NTE5NTMxMiIgZGF0YS1uYW1lPSJMYXllciAxIiBpZD0iTGF5ZXJfMSIgd2lkdGg9Ijc1Ni4yNTUyNDkwMjM0Mzc1IiBoZWlnaHQ9IjU5Ni45MDAyMDc1MTk1MzEyIj4mI3hhOyAgPGRlZnM+JiN4YTsgICAgPHN0eWxlPiYjeGE7ICAgICAgLmNscy0xIHsmI3hhOyAgICAgICAgZmlsbDogIzFkNjNlZDsmI3hhOyAgICAgICAgc3Ryb2tlLXdpZHRoOiAwcHg7JiN4YTsgICAgICB9JiN4YTsgICAgPC9zdHlsZT4mI3hhOyAgPC9kZWZzPiYjeGE7ICA8cGF0aCBkPSJNNzQzLjk2LDI0NS4yNWMtMTguNTQtMTIuNDgtNjcuMjYtMTcuODEtMTAyLjY4LTguMjctMS45MS0zNS4yOC0yMC4xLTY1LjAxLTUzLjM4LTkwLjk1bC0xMi4zMi04LjI3LTguMjEsMTIuNGMtMTYuMTQsMjQuNS0yMi45NCw1Ny4xNC0yMC41Myw4Ni44MSwxLjksMTguMjgsOC4yNiwzOC44MywyMC41Myw1My43NC00Ni4xLDI2Ljc0LTg4LjU5LDIwLjY3LTI3Ni43NywyMC42N0guMDZjLS44NSw0Mi40OSw1Ljk4LDEyNC4yMyw1Ny45NiwxOTAuNzcsNS43NCw3LjM1LDEyLjA0LDE0LjQ2LDE4Ljg3LDIxLjMxLDQyLjI2LDQyLjMyLDEwNi4xMSw3My4zNSwyMDEuNTksNzMuNDQsMTQ1LjY2LjEzLDI3MC40Ni03OC42LDM0Ni4zNy0yNjguOTcsMjQuOTguNDEsOTAuOTIsNC40OCwxMjMuMTktNTcuODguNzktMS4wNSw4LjIxLTE2LjU0LDguMjEtMTYuNTRsLTEyLjMtOC4yN1pNMTg5LjY3LDIwNi4zOWgtODEuN3Y4MS43aDgxLjd2LTgxLjdaTTI5NS4yMiwyMDYuMzloLTgxLjd2ODEuN2g4MS43di04MS43Wk00MDAuNzcsMjA2LjM5aC04MS43djgxLjdoODEuN3YtODEuN1pNNTA2LjMyLDIwNi4zOWgtODEuN3Y4MS43aDgxLjd2LTgxLjdaTTg0LjEyLDIwNi4zOUgyLjQydjgxLjdoODEuN3YtODEuN1pNMTg5LjY3LDEwMy4yaC04MS43djgxLjdoODEuN3YtODEuN1pNMjk1LjIyLDEwMy4yaC04MS43djgxLjdoODEuN3YtODEuN1pNNDAwLjc3LDEwMy4yaC04MS43djgxLjdoODEuN3YtODEuN1pNNDAwLjc3LDBoLTgxLjd2ODEuN2g4MS43VjBaIiBjbGFzcz0iY2xzLTEiLz4mI3hhOzwvc3ZnPg==;" vertex="1" parent="ugJio_jdhn8PNFgV0b_A-79">
          <mxGeometry x="261.01" y="140" width="37.99" height="30" as="geometry" />
        </mxCell>
        <mxCell id="ugJio_jdhn8PNFgV0b_A-46" value="" style="group" vertex="1" connectable="0" parent="ugJio_jdhn8PNFgV0b_A-79">
          <mxGeometry x="40" y="60" width="240" height="90" as="geometry" />
        </mxCell>
        <mxCell id="ugJio_jdhn8PNFgV0b_A-44" value="api-server" style="rounded=0;whiteSpace=wrap;html=1;strokeColor=default;align=left;verticalAlign=top;fontFamily=Helvetica;fontSize=12;fontColor=default;fillColor=none;" vertex="1" parent="ugJio_jdhn8PNFgV0b_A-46">
          <mxGeometry width="240" height="90" as="geometry" />
        </mxCell>
        <mxCell id="AMIXin52fgycMc6dPC2O-4" value="" style="shape=image;verticalLabelPosition=bottom;labelBackgroundColor=default;verticalAlign=top;aspect=fixed;imageAspect=0;editableCssRules=.*;image=data:image/svg+xml,PHN2ZyB4bWxucz0iaHR0cDovL3d3dy53My5vcmcvMjAwMC9zdmciIHdpZHRoPSIyNTA4LjM4MjMzNTM1MDM0NjIiIHZpZXdCb3g9IjAuMjgzNzg1OTA5NDE0MjkxNCAwLjAwMDMwNDQwODM3MTQ0ODUxNjg1IDMyNS42NDEyMDQ4MzM5ODQ0IDEyNy45OTk2ODcxOTQ4MjQyMiIgaGVpZ2h0PSI5ODAuNTc2OTk5NjExNjI3NyIgZmlsbD0ibm9uZSI+PGcgZmlsbD0iIzBjMzQ0YiI+PHBhdGggZD0ibTE5OS4yMDIgODUuNzVoOC42Mzh2LTMxLjY2MmgtOC42Mzh6bS0uMzY3LTM5Ljg0N2MwLTIuODEzIDEuNTY3LTQuMjE5IDQuNzAxLTQuMjE5IDMuMTMzIDAgNC43MDEgMS40MDYgNC43MDEgNC4yMTkgMCAxLjM0MS0uMzkyIDIuMzg0LTEuMTc1IDMuMTMtLjc4NC43NDYtMS45NTkgMS4xMTgtMy41MjYgMS4xMTgtMy4xMzQgMC00LjcwMS0xLjQxNi00LjcwMS00LjI0OHoiLz48cGF0aCBmaWxsLXJ1bGU9ImV2ZW5vZGQiIGQ9Im0xNjQuMjUzIDY3LjQ4M2MyLjc4Ni0yLjM2IDQuMTc4LTUuNzY3IDQuMTc4LTEwLjIyMyAwLTQuMjg2LTEuMzA3LTcuNTEtMy45MjItOS42NzItMi42MTUtMi4xNi02LjQzMy0zLjI0Mi0xMS40NTYtMy4yNDJoLTEzLjIyNXY0MS40MDRoOC43Nzl2LTE0LjcyN2gzLjc2N2M1LjEzNSAwIDkuMDk1LTEuMTc5IDExLjg3OS0zLjU0em0tMTIuNzU3LTMuNjUzaC0yLjg4OXYtMTIuMjloMy45OTNjMi4zOTggMCA0LjE1OC40OSA1LjI4MiAxLjQ3MiAxLjEyMy45ODIgMS42ODUgMi41MDIgMS42ODUgNC41NiAwIDIuMDM4LS42NyAzLjU5MS0yLjAxMSA0LjY1OHMtMy4zNiAxLjYtNi4wNiAxLjZ6IiBjbGlwLXJ1bGU9ImV2ZW5vZGQiLz48cGF0aCBkPSJtMTk0LjYyIDUzLjc0OGMtLjc3NC0uMTctMS43NDYtLjI1NS0yLjkxNy0uMjU1LTEuOTY0IDAtMy43ODEuNTQzLTUuNDUxIDEuNjI4YTExLjkwOCAxMS45MDggMCAwIDAgLTMuOTggNC4yOTFoLS40MjRsLTEuMjc1LTUuMzI0aC02LjU0MnYzMS42NjJoOC42Mzh2LTE2LjExNGMwLTIuNTQ5Ljc2OS00LjUzMiAyLjMwNy01Ljk0OCAxLjU0LTEuNDE2IDMuNjg3LTIuMTI0IDYuNDQ0LTIuMTI0IDEuMDAxIDAgMS44NS4wOTUgMi41NDkuMjgzem00MC4yNDUgMzAuMDJjMi4yNTctMS43IDMuMzg1LTQuMTcyIDMuMzg1LTcuNDIgMC0xLjU2Ny0uMjczLTIuOTE3LS44MjEtNC4wNS0uNTQ3LTEuMTMzLTEuMzk4LTIuMTMzLTIuNTQ5LTMuMDAyLTEuMTUxLS44NjgtMi45NjQtMS44MDItNS40MzgtMi44MDMtMi43NzUtMS4xMTQtNC41NzMtMS45NTUtNS4zOTQtMi41MjFzLTEuMjMzLTEuMjM2LTEuMjMzLTIuMDExYzAtMS4zNzggMS4yNzUtMi4wNjcgMy44MjQtMi4wNjcgMS40MzQgMCAyLjg0MS4yMTcgNC4yMTkuNjUgMS4zNzguNDM2IDIuODYxLjk5MiA0LjQ0NyAxLjY3MmwyLjYwNS02LjIzYy0zLjYwNi0xLjY2MS03LjMxNi0yLjQ5Mi0xMS4xMy0yLjQ5Mi00LjAwMyAwLTcuMDkzLjc2OS05LjI3MyAyLjMwOC0yLjE4MyAxLjUzOS0zLjI3MyAzLjcxNC0zLjI3MyA2LjUyNyAwIDEuNjQzLjI2IDMuMDI2Ljc4IDQuMTQ5LjUxOCAxLjEyNCAxLjM0OSAyLjEyIDIuNDkzIDIuOTg4IDEuMTQuODY5IDIuOTMxIDEuODEzIDUuMzY1IDIuODMyIDEuNjk5LjcxOCAzLjA1OSAxLjM0NSA0LjA3OSAxLjg4MyAxLjAxOS41MzkgMS43MzcgMS4wMiAyLjE1MyAxLjQ0NS40MTUuNDI1LjYyMi45NzcuNjIyIDEuNjU3IDAgMS44MTItMS41NjcgMi43MTgtNC43MDIgMi43MTgtMS41MjkgMC0zLjI5OS0uMjU1LTUuMzA5LS43NjQtMi4wMTItLjUxLTMuODE5LTEuMTQyLTUuNDI0LTEuODk4djcuMTM3YTIyLjI3NSAyMi4yNzUgMCAwIDAgNC41NiAxLjM3M2MxLjYyNC4zMTIgMy41ODcuNDY4IDUuODkxLjQ2OCA0LjQ5MiAwIDcuODY3LS44NSAxMC4xMjMtMi41NXptMzcuNjA0IDEuOTgyaC04LjYzOHYtMTguNDkzYzAtMi4yODQtLjM4My0zLjk5OC0xLjE0Ni01LjE0LS43NjYtMS4xNDItMS45NjktMS43MTQtMy42MTItMS43MTQtMi4yMDggMC0zLjgxMy44MTItNC44MTQgMi40MzZzLTEuNTAxIDQuMjk1LTEuNTAxIDguMDE1djE0Ljg5NmgtOC42Mzh2LTMxLjY2Mmg2LjU5OWwxLjE2MSA0LjA1aC40ODJjLjg0OS0xLjQ1NCAyLjA3Ny0yLjU5MiAzLjY4MS0zLjQxMyAxLjYwNS0uODIxIDMuNDQ2LTEuMjMyIDUuNTIzLTEuMjMyIDQuNzM5IDAgNy45NDggMS41NDkgOS42MjkgNC42NDVoLjc2NGMuODUtMS40NzMgMi4xMDEtMi42MTUgMy43NTMtMy40MjdzMy41MTYtMS4yMTggNS41OTMtMS4yMThjMy41ODcgMCA2LjMwMi45MjEgOC4xNDIgMi43NjEgMS44NDEgMS44NDEgMi43NjEgNC43OTEgMi43NjEgOC44NXYyMC42NDZoLTguNjY2di0xOC40OTNjMC0yLjI4NC0uMzgzLTMuOTk4LTEuMTQ2LTUuMTQtLjc2Ni0xLjE0Mi0xLjk2OS0xLjcxNC0zLjYxMi0xLjcxNC0yLjExNCAwLTMuNjk1Ljc1Ni00Ljc0NCAyLjI2Ni0xLjA0NyAxLjUxMS0xLjU3MSAzLjkwOC0xLjU3MSA3LjE5M3oiLz48cGF0aCBmaWxsLXJ1bGU9ImV2ZW5vZGQiIGQ9Im0zMTguMjIyIDgxLjQ0NSAxLjY3MSA0LjMwNWg2LjAzMnYtMjEuMDk5YzAtMy43NzYtMS4xMzMtNi41ODktMy4zOTgtOC40MzktMi4yNjYtMS44NS01LjUyMy0yLjc3Ni05Ljc3MS0yLjc3Ni00LjQzNiAwLTguNDc3Ljk1NC0xMi4xMjEgMi44NjFsMi44NiA1LjgzNGMzLjQxNy0xLjUzIDYuMzkxLTIuMjk0IDguOTIxLTIuMjk0IDMuMjg1IDAgNC45MjggMS42MDUgNC45MjggNC44MTR2MS4zODhsLTUuNDk0LjE3Yy00LjczOS4xNy04LjI4MyAxLjA1My0xMC42MzUgMi42NDgtMi4zNSAxLjU5Ni0zLjUyNSA0LjA3NC0zLjUyNSA3LjQzNCAwIDMuMjEuODczIDUuNjgzIDIuNjE5IDcuNDIgMS43NDcgMS43MzcgNC4xMzkgMi42MDUgNy4xOCAyLjYwNSAyLjQ3MyAwIDQuNDc5LS4zNTQgNi4wMTctMS4wNjIgMS41MzktLjcwOCAzLjAzNS0xLjk3NyA0LjQ4OS0zLjgwOXptLTQuMjItMTAuMjUyIDMuMzQyLS4xMTN2Mi42MDVjMCAxLjkwOC0uNiAzLjQzNy0xLjc5OSA0LjU4OC0xLjE5OCAxLjE1Mi0yLjc5OSAxLjcyOC00LjggMS43MjgtMi43OTQgMC00LjE5MS0xLjIxOC00LjE5MS0zLjY1MyAwLTEuNy42MTMtMi45NjQgMS44NDEtMy43OTUgMS4yMjctLjgzIDMuMDk2LTEuMjg0IDUuNjA3LTEuMzZ6bS0yMTguMjY5IDMwLjMzNi01Ny40NzkgMTdjLTEuNzU2LjUyLTMuNDM5LS45OTktMy4wNy0yLjc3bDIwLjUzNC05OC4zNGMuMzg0LTEuODM4IDIuOTI2LTIuMTMgMy43MjgtLjQyN2wzOC4wMiA4MC43MzZjLjcxNyAxLjUyMy0uMTAxIDMuMzE5LTEuNzMzIDMuODAxem05Ljg1Ny00LjAxLTQ0LjAyMi05My40ODJ2LS4wMDJhNy4wNjIgNy4wNjIgMCAwIDAgLTYuMDE5LTQuMDIyYy0yLjY3OS0uMTU2LTUuMDc5IDEuMTM2LTYuNDMzIDMuMzM1bC00Ny43NDQgNzcuMzNhNy4yMzMgNy4yMzMgMCAwIDAgLjA4NCA3Ljc2M2wyMy4zMzggMzYuMTUyYzEuMzkxIDIuMTU4IDMuODAxIDMuNDA3IDYuMzA2IDMuNDA3LjcxIDAgMS40MjQtLjEgMi4xMjYtLjMwOGw2Ny43NDQtMjAuMDM2YTcuNDI0IDcuNDI0IDAgMCAwIDQuNjYtNC4wMjggNy4yNjQgNy4yNjQgMCAwIDAgLS4wNC02LjExeiIgY2xpcC1ydWxlPSJldmVub2RkIi8+PC9nPjwvc3ZnPg==;" parent="ugJio_jdhn8PNFgV0b_A-46" vertex="1">
          <mxGeometry x="153" y="50" width="76.76" height="30" as="geometry" />
        </mxCell>
        <mxCell id="mjQt9DkmEtlMfv39M6Oq-2" value="" style="shape=image;verticalLabelPosition=bottom;labelBackgroundColor=default;verticalAlign=top;aspect=fixed;imageAspect=0;image=https://upload.wikimedia.org/wikipedia/commons/6/64/Expressjs.png;" parent="ugJio_jdhn8PNFgV0b_A-46" vertex="1">
          <mxGeometry x="101.06428571428569" y="10.002857142857124" width="98.94" height="30" as="geometry" />
        </mxCell>
        <mxCell id="mjQt9DkmEtlMfv39M6Oq-4" value="" style="shape=image;verticalLabelPosition=bottom;labelBackgroundColor=default;verticalAlign=top;aspect=fixed;imageAspect=0;editableCssRules=.*;image=data:image/svg+xml,PHN2ZyB4bWxucz0iaHR0cDovL3d3dy53My5vcmcvMjAwMC9zdmciIHByZXNlcnZlQXNwZWN0UmF0aW89InhNaW5ZTWluIG1lZXQiIHZpZXdCb3g9IjAgMCAyNTYgMzIwIiBoZWlnaHQ9IjI1MDAiIHdpZHRoPSIyMDAwIj48cGF0aCBmaWxsPSIjRDZGRjAwIiBkPSJNMTI4IDBDNTcuMjggMCAwIDU3LjI4IDAgMTI4aDY0YzAtMzUuMzI4IDI4LjY3Mi02NCA2NC02NFYweiIvPjxwYXRoIGZpbGw9IiMzNEUyN0EiIGQ9Ik0yNTYgMTI4QzI1NiA1Ny4yOCAxOTguNzIgMCAxMjggMHY2NGMzNS4zMjggMCA2NCAyOC42NzIgNjQgNjRoNjR6Ii8+PHBhdGggZmlsbD0iIzAwQjlGMSIgZD0iTTEyOCAyNTZjNzAuNzIgMCAxMjgtNTcuMjggMTI4LTEyOGgtNjRjMCAzNS4zMjgtMjguNjcyIDY0LTY0IDY0djY0eiIvPjxwYXRoIGZpbGw9IiNGRkYiIGQ9Ik02NCAyNTZWMTI4SDB2MTkyaDEyOHYtNjRINjR6Ii8+PC9zdmc+;" parent="ugJio_jdhn8PNFgV0b_A-46" vertex="1">
          <mxGeometry x="115" y="50" width="24" height="30" as="geometry" />
        </mxCell>
        <mxCell id="X4bvIKR5kBCmrV_lh8Uz-67" value="" style="shape=image;verticalLabelPosition=bottom;labelBackgroundColor=default;verticalAlign=top;aspect=fixed;imageAspect=0;editableCssRules=.*;image=data:image/svg+xml,PHN2ZyB4bWxucz0iaHR0cDovL3d3dy53My5vcmcvMjAwMC9zdmciIHdpZHRoPSIxMjgiIHZpZXdCb3g9IjAgMCAxMjggMTI4IiBoZWlnaHQ9IjEyOCIgZmlsbD0ibm9uZSI+PHJlY3Qgd2lkdGg9IjEyOCIgcng9IjYiIGhlaWdodD0iMTI4IiBmaWxsPSIjMzE3OGM2Ii8+PHBhdGggZmlsbC1ydWxlPSJldmVub2RkIiBmaWxsPSIjZmZmIiBkPSJtNzQuMjYyMiA5OS40Njh2MTQuMDI2YzIuMjcyNCAxLjE2OCA0Ljk1OTggMi4wNDUgOC4wNjI1IDIuNjI5IDMuMTAyNy41ODUgNi4zNzI4Ljg3NyA5LjgxMDUuODc3IDMuMzUwMyAwIDYuNTMzLS4zMjEgOS41NDc4LS45NjQgMy4wMTYtLjY0MyA1LjY1OS0xLjcwMiA3LjkzMi0zLjE3OCAyLjI3Mi0xLjQ3NiA0LjA3MS0zLjQwNCA1LjM5Ny01Ljc4NiAxLjMyNS0yLjM4MSAxLjk4OC01LjMyNSAxLjk4OC04LjgzMTMgMC0yLjU0MjEtLjM3OS00Ljc3MDEtMS4xMzYtNi42ODQxLS43NTgtMS45MTM5LTEuODUtMy42MTU5LTMuMjc4LTUuMTA2Mi0xLjQyNy0xLjQ5MDItMy4xMzktMi44MjctNS4xMzQtNC4wMTA0LTEuOTk2LTEuMTgzNC00LjI0Ni0yLjMwMTEtNi43NTItMy4zNTMtMS44MzUyLS43NTk3LTMuNDgxMi0xLjQ5NzUtNC45Mzc4LTIuMjEzNC0xLjQ1NjctLjcxNTktMi42OTQ4LTEuNDQ2NC0zLjcxNDQtMi4xOTE1LTEuMDE5Ny0uNzQ1Mi0xLjgwNjMtMS41MzQxLTIuMzU5OC0yLjM2NjktLjU1MzUtLjgzMjctLjgzMDMtMS43NzUxLS44MzAzLTIuODI3IDAtLjk2NDMuMjQ3Ni0xLjgzMzYuNzQyOS0yLjYwNzlzMS4xOTQ1LTEuNDM5MSAyLjA5NzYtMS45OTQzYy45MDMxLS41NTUxIDIuMDEwMS0uOTg2MSAzLjMyMTEtMS4yOTI5IDEuMzExLS4zMDY5IDIuNzY3Ni0uNDYwMyA0LjM2OTktLjQ2MDMgMS4xNjU4IDAgMi4zOTU4LjA4NzcgMy42OTI4LjI2MyAxLjI5Ni4xNzUzIDIuNi40NDU2IDMuOTExLjgxMDkgMS4zMTEuMzY1MiAyLjU4NS44MjU0IDMuODI0IDEuMzgwNiAxLjIzOC41NTUyIDIuMzgxIDEuMTk4IDMuNDMgMS45Mjg1di0xMy4xMDUxYy0yLjEyNy0uODE4Mi00LjQ1LTEuNDI0NS02Ljk3LTEuODE5cy01LjQxMS0uNTkxNy04LjY3NDQtLjU5MTdjLTMuMzIxMSAwLTYuNDY3NC4zNTc5LTkuNDM5IDEuMDczOC0yLjk3MTUuNzE1OS01LjU4NjIgMS44MzM2LTcuODQ0IDMuMzUzLTIuMjU3OCAxLjUxOTUtNC4wNDIyIDMuNDU1My01LjM1MzEgNS44MDc1LTEuMzExIDIuMzUyMi0xLjk2NjUgNS4xNjQ2LTEuOTY2NSA4LjQzNzMgMCA0LjE3ODUgMS4yMDE3IDcuNzQzMyAzLjYwNTIgMTAuNjk0NSAyLjQwMzUgMi45NTEzIDYuMDUyMyA1LjQ0OTYgMTAuOTQ2NiA3LjQ5NSAxLjkyMjguNzg4OSAzLjcxNDUgMS41NjMzIDUuMzc1IDIuMzIzIDEuNjYwNi43NTk3IDMuMDk1NCAxLjU0ODYgNC4zMDQ0IDIuMzY2OHMyLjE2MjggMS43MDk0IDIuODYxOCAyLjY3MzZjLjcuOTY0MyAxLjA0OSAyLjA2IDEuMDQ5IDMuMjg3MyAwIC45MDYyLS4yMTggMS43NDYyLS42NTUgMi41MjAycy0xLjEgMS40NDYtMS45ODg1IDIuMDE2Yy0uODg4Ni41Ny0xLjk5NTYgMS4wMTYtMy4zMjEyIDEuMzM3LTEuMzI1NS4zMjEtMi44NzY4LjQ4Mi00LjY1MzkuNDgyLTMuMDI5OSAwLTYuMDMwNS0uNTMzLTkuMDAyMS0xLjYtMi45NzE1LTEuMDY2LTUuNzI0NS0yLjY2Ni04LjI1OTEtNC43OTl6bS0yMy41NTk2LTM0LjkxMzZoMTguMjk3NHYtMTEuNTU0NGgtNTF2MTEuNTU0NGgxOC4yMDc5djUxLjQ0NTZoMTQuNDk0N3oiIGNsaXAtcnVsZT0iZXZlbm9kZCIvPjwvc3ZnPg==;container=0;" parent="ugJio_jdhn8PNFgV0b_A-46" vertex="1">
          <mxGeometry x="200" y="10" width="30" height="30" as="geometry" />
        </mxCell>
        <mxCell id="X4bvIKR5kBCmrV_lh8Uz-68" value="" style="group" parent="ugJio_jdhn8PNFgV0b_A-46" vertex="1" connectable="0">
          <mxGeometry x="10" y="30" width="81.06" height="35" as="geometry" />
        </mxCell>
        <mxCell id="X4bvIKR5kBCmrV_lh8Uz-66" value="votura-crypto" style="rounded=0;whiteSpace=wrap;html=1;strokeColor=default;align=left;verticalAlign=top;fontFamily=Helvetica;fontSize=12;fontColor=default;fillColor=none;" parent="X4bvIKR5kBCmrV_lh8Uz-68" vertex="1">
          <mxGeometry width="80" height="35" as="geometry" />
        </mxCell>
        <mxCell id="ugJio_jdhn8PNFgV0b_A-48" value="&lt;font face=&quot;Courier New&quot;&gt;5000:5000&lt;/font&gt;" style="shape=hexagon;perimeter=hexagonPerimeter2;whiteSpace=wrap;html=1;fixedSize=1;strokeColor=#666666;align=center;verticalAlign=middle;fontFamily=Helvetica;fontSize=12;fontColor=#333333;fillColor=#f5f5f5;size=10;" vertex="1" parent="ugJio_jdhn8PNFgV0b_A-79">
          <mxGeometry y="120" width="80" height="20" as="geometry" />
        </mxCell>
        <mxCell id="-0mbv3-jxWPobRG6QbGR-26" value="votura-server" parent="0" />
        <object label="Client" id="-0mbv3-jxWPobRG6QbGR-17">
          <mxCell parent="0" />
        </object>
        <mxCell id="dhhT-kXevxikZRxdQiiw-16" value="Client Operating System" style="rounded=0;whiteSpace=wrap;html=1;align=left;verticalAlign=top;fillColor=#f5f5f5;strokeColor=#666666;container=0;fontColor=#333333;" parent="-0mbv3-jxWPobRG6QbGR-17" vertex="1">
          <mxGeometry x="360" y="330" width="470" height="150" as="geometry" />
        </mxCell>
        <mxCell id="X4bvIKR5kBCmrV_lh8Uz-12" value="Desktop App" style="rounded=0;whiteSpace=wrap;html=1;strokeColor=#808080;align=left;verticalAlign=top;fontFamily=Helvetica;fontSize=12;fontColor=#808080;fillColor=none;container=0;" parent="-0mbv3-jxWPobRG6QbGR-17" vertex="1">
          <mxGeometry x="660" y="380" width="160" height="90" as="geometry" />
        </mxCell>
        <mxCell id="dhhT-kXevxikZRxdQiiw-24" value="" style="shape=image;verticalLabelPosition=bottom;labelBackgroundColor=default;verticalAlign=top;aspect=fixed;imageAspect=0;image=https://upload.wikimedia.org/wikipedia/commons/8/87/Windows_logo_-_2021.svg;opacity=30;container=0;" parent="-0mbv3-jxWPobRG6QbGR-17" vertex="1">
          <mxGeometry x="780.0033333333332" y="390.00333333333333" width="30" height="30" as="geometry" />
        </mxCell>
        <mxCell id="dhhT-kXevxikZRxdQiiw-23" value="" style="dashed=0;outlineConnect=0;html=1;align=center;labelPosition=center;verticalLabelPosition=bottom;verticalAlign=top;shape=mxgraph.weblogos.apple;fillColor=#1B1C1C;strokeColor=none;aspect=fixed;opacity=30;container=0;" parent="-0mbv3-jxWPobRG6QbGR-17" vertex="1">
          <mxGeometry x="740" y="390" width="24.57" height="30" as="geometry" />
        </mxCell>
        <mxCell id="vW_4R5cAd5zXY2QG6_1k-2" value="" style="shadow=0;dashed=0;html=1;strokeColor=none;fillColor=#EF8F21;labelPosition=center;verticalLabelPosition=bottom;verticalAlign=top;align=center;outlineConnect=0;shape=mxgraph.veeam.linux;aspect=fixed;opacity=30;container=0;" parent="-0mbv3-jxWPobRG6QbGR-17" vertex="1">
          <mxGeometry x="780" y="430" width="30" height="30" as="geometry" />
        </mxCell>
        <mxCell id="X4bvIKR5kBCmrV_lh8Uz-1" value="Webbrowser" style="rounded=0;whiteSpace=wrap;html=1;fillColor=none;align=left;verticalAlign=top;container=0;" parent="-0mbv3-jxWPobRG6QbGR-17" vertex="1">
          <mxGeometry x="370" y="380" width="160" height="90" as="geometry" />
        </mxCell>
        <mxCell id="X4bvIKR5kBCmrV_lh8Uz-6" value="" style="shape=image;verticalLabelPosition=bottom;labelBackgroundColor=default;verticalAlign=top;aspect=fixed;imageAspect=0;image=https://upload.wikimedia.org/wikipedia/commons/thumb/a/a0/Firefox_logo%2C_2019.svg/1920px-Firefox_logo%2C_2019.svg.png;container=0;" parent="-0mbv3-jxWPobRG6QbGR-17" vertex="1">
          <mxGeometry x="490" y="390" width="30" height="30" as="geometry" />
        </mxCell>
        <mxCell id="X4bvIKR5kBCmrV_lh8Uz-7" value="" style="shape=image;verticalLabelPosition=bottom;labelBackgroundColor=default;verticalAlign=top;aspect=fixed;imageAspect=0;image=https://upload.wikimedia.org/wikipedia/commons/7/7e/Microsoft_Edge_logo_%282019%29.png;imageBackground=none;container=0;" parent="-0mbv3-jxWPobRG6QbGR-17" vertex="1">
          <mxGeometry x="450" y="430.00000000000006" width="30" height="30" as="geometry" />
        </mxCell>
        <mxCell id="X4bvIKR5kBCmrV_lh8Uz-8" value="" style="shape=image;verticalLabelPosition=bottom;labelBackgroundColor=default;verticalAlign=top;aspect=fixed;imageAspect=0;image=https://upload.wikimedia.org/wikipedia/commons/5/52/Safari_browser_logo.svg;container=0;" parent="-0mbv3-jxWPobRG6QbGR-17" vertex="1">
          <mxGeometry x="490" y="429.9999999999999" width="30" height="29.88" as="geometry" />
        </mxCell>
        <mxCell id="X4bvIKR5kBCmrV_lh8Uz-9" value="" style="dashed=0;outlineConnect=0;html=1;align=center;labelPosition=center;verticalLabelPosition=bottom;verticalAlign=top;shape=mxgraph.weblogos.chrome;container=0;" parent="-0mbv3-jxWPobRG6QbGR-17" vertex="1">
          <mxGeometry x="450" y="390" width="30" height="30" as="geometry" />
        </mxCell>
        <mxCell id="X4bvIKR5kBCmrV_lh8Uz-11" value="&lt;font style=&quot;color: rgb(128, 128, 128);&quot;&gt;Mobile App&lt;/font&gt;" style="rounded=0;whiteSpace=wrap;html=1;strokeColor=#808080;align=left;verticalAlign=top;fontFamily=Helvetica;fontSize=12;fontColor=default;fillColor=none;container=0;" parent="-0mbv3-jxWPobRG6QbGR-17" vertex="1">
          <mxGeometry x="540" y="380" width="110" height="90" as="geometry" />
        </mxCell>
        <mxCell id="dhhT-kXevxikZRxdQiiw-19" value="" style="shape=image;verticalLabelPosition=bottom;labelBackgroundColor=default;verticalAlign=top;aspect=fixed;imageAspect=0;image=https://upload.wikimedia.org/wikipedia/commons/6/67/App_Store_%28iOS%29.svg;opacity=30;container=0;" parent="-0mbv3-jxWPobRG6QbGR-17" vertex="1">
          <mxGeometry x="609.9999999999999" y="389.99999999999994" width="30" height="30" as="geometry" />
        </mxCell>
        <mxCell id="dhhT-kXevxikZRxdQiiw-20" value="" style="shape=image;verticalLabelPosition=bottom;labelBackgroundColor=default;verticalAlign=top;aspect=fixed;imageAspect=0;image=https://upload.wikimedia.org/wikipedia/commons/thumb/7/7a/Google_Play_2022_logo.svg/1920px-Google_Play_2022_logo.svg.png;clipPath=inset(0% 80.33% 0% 0%);opacity=30;container=0;" parent="-0mbv3-jxWPobRG6QbGR-17" vertex="1">
          <mxGeometry x="610" y="429.9999999999999" width="30" height="30" as="geometry" />
        </mxCell>
        <mxCell id="-0mbv3-jxWPobRG6QbGR-19" value="" style="dashed=0;outlineConnect=0;html=1;align=center;labelPosition=center;verticalLabelPosition=bottom;verticalAlign=top;shape=mxgraph.weblogos.apple;fillColor=#1B1C1C;strokeColor=none;aspect=fixed;container=0;" parent="-0mbv3-jxWPobRG6QbGR-17" vertex="1">
          <mxGeometry x="752" y="340" width="24.57" height="30" as="geometry" />
        </mxCell>
        <mxCell id="-0mbv3-jxWPobRG6QbGR-20" value="" style="shape=image;verticalLabelPosition=bottom;labelBackgroundColor=default;verticalAlign=top;aspect=fixed;imageAspect=0;image=https://upload.wikimedia.org/wikipedia/commons/8/87/Windows_logo_-_2021.svg;container=0;" parent="-0mbv3-jxWPobRG6QbGR-17" vertex="1">
          <mxGeometry x="710.0033333333332" y="340.0033333333333" width="30" height="30" as="geometry" />
        </mxCell>
        <mxCell id="-0mbv3-jxWPobRG6QbGR-21" value="" style="shadow=0;dashed=0;html=1;strokeColor=none;fillColor=#EF8F21;labelPosition=center;verticalLabelPosition=bottom;verticalAlign=top;align=center;outlineConnect=0;shape=mxgraph.veeam.linux;aspect=fixed;container=0;" parent="-0mbv3-jxWPobRG6QbGR-17" vertex="1">
          <mxGeometry x="790" y="340" width="30" height="30" as="geometry" />
        </mxCell>
        <mxCell id="X4bvIKR5kBCmrV_lh8Uz-38" value="Frontend" parent="0" />
        <mxCell id="ugJio_jdhn8PNFgV0b_A-76" value="" style="group" vertex="1" connectable="0" parent="X4bvIKR5kBCmrV_lh8Uz-38">
          <mxGeometry x="70" y="360" width="280" height="210" as="geometry" />
        </mxCell>
        <mxCell id="ugJio_jdhn8PNFgV0b_A-66" value="votura-frontend" style="shape=cube;whiteSpace=wrap;html=1;boundedLbl=1;backgroundOutline=1;darkOpacity=0.05;darkOpacity2=0.1;size=10;align=left;verticalAlign=top;fillColor=#CCCCCC;" vertex="1" parent="ugJio_jdhn8PNFgV0b_A-76">
          <mxGeometry width="250" height="200" as="geometry" />
        </mxCell>
        <mxCell id="ugJio_jdhn8PNFgV0b_A-72" value="frontend-server" style="rounded=0;whiteSpace=wrap;html=1;fillColor=none;align=left;verticalAlign=top;container=0;" vertex="1" parent="ugJio_jdhn8PNFgV0b_A-76">
          <mxGeometry x="20" y="60" width="200" height="130" as="geometry" />
        </mxCell>
        <mxCell id="X4bvIKR5kBCmrV_lh8Uz-10" value="application" style="rounded=0;whiteSpace=wrap;html=1;fillColor=none;align=left;verticalAlign=top;container=0;" parent="ugJio_jdhn8PNFgV0b_A-76" vertex="1">
          <mxGeometry x="30" y="90" width="170" height="90" as="geometry" />
        </mxCell>
        <mxCell id="-0mbv3-jxWPobRG6QbGR-12" value="" style="shape=image;verticalLabelPosition=bottom;labelBackgroundColor=default;verticalAlign=top;aspect=fixed;imageAspect=0;image=https://upload.wikimedia.org/wikipedia/commons/a/a7/React-icon.svg;container=0;" parent="ugJio_jdhn8PNFgV0b_A-76" vertex="1">
          <mxGeometry x="130" y="140" width="33.8" height="30" as="geometry" />
        </mxCell>
        <mxCell id="-0mbv3-jxWPobRG6QbGR-15" value="" style="shape=image;verticalLabelPosition=bottom;labelBackgroundColor=default;verticalAlign=top;aspect=fixed;imageAspect=0;editableCssRules=.*;image=data:image/svg+xml,PHN2ZyB4bWxucz0iaHR0cDovL3d3dy53My5vcmcvMjAwMC9zdmciIHdpZHRoPSIxMjgiIHZpZXdCb3g9IjAgMCAxMjggMTI4IiBoZWlnaHQ9IjEyOCIgZmlsbD0ibm9uZSI+PHJlY3Qgd2lkdGg9IjEyOCIgcng9IjYiIGhlaWdodD0iMTI4IiBmaWxsPSIjMzE3OGM2Ii8+PHBhdGggZmlsbC1ydWxlPSJldmVub2RkIiBmaWxsPSIjZmZmIiBkPSJtNzQuMjYyMiA5OS40Njh2MTQuMDI2YzIuMjcyNCAxLjE2OCA0Ljk1OTggMi4wNDUgOC4wNjI1IDIuNjI5IDMuMTAyNy41ODUgNi4zNzI4Ljg3NyA5LjgxMDUuODc3IDMuMzUwMyAwIDYuNTMzLS4zMjEgOS41NDc4LS45NjQgMy4wMTYtLjY0MyA1LjY1OS0xLjcwMiA3LjkzMi0zLjE3OCAyLjI3Mi0xLjQ3NiA0LjA3MS0zLjQwNCA1LjM5Ny01Ljc4NiAxLjMyNS0yLjM4MSAxLjk4OC01LjMyNSAxLjk4OC04LjgzMTMgMC0yLjU0MjEtLjM3OS00Ljc3MDEtMS4xMzYtNi42ODQxLS43NTgtMS45MTM5LTEuODUtMy42MTU5LTMuMjc4LTUuMTA2Mi0xLjQyNy0xLjQ5MDItMy4xMzktMi44MjctNS4xMzQtNC4wMTA0LTEuOTk2LTEuMTgzNC00LjI0Ni0yLjMwMTEtNi43NTItMy4zNTMtMS44MzUyLS43NTk3LTMuNDgxMi0xLjQ5NzUtNC45Mzc4LTIuMjEzNC0xLjQ1NjctLjcxNTktMi42OTQ4LTEuNDQ2NC0zLjcxNDQtMi4xOTE1LTEuMDE5Ny0uNzQ1Mi0xLjgwNjMtMS41MzQxLTIuMzU5OC0yLjM2NjktLjU1MzUtLjgzMjctLjgzMDMtMS43NzUxLS44MzAzLTIuODI3IDAtLjk2NDMuMjQ3Ni0xLjgzMzYuNzQyOS0yLjYwNzlzMS4xOTQ1LTEuNDM5MSAyLjA5NzYtMS45OTQzYy45MDMxLS41NTUxIDIuMDEwMS0uOTg2MSAzLjMyMTEtMS4yOTI5IDEuMzExLS4zMDY5IDIuNzY3Ni0uNDYwMyA0LjM2OTktLjQ2MDMgMS4xNjU4IDAgMi4zOTU4LjA4NzcgMy42OTI4LjI2MyAxLjI5Ni4xNzUzIDIuNi40NDU2IDMuOTExLjgxMDkgMS4zMTEuMzY1MiAyLjU4NS44MjU0IDMuODI0IDEuMzgwNiAxLjIzOC41NTUyIDIuMzgxIDEuMTk4IDMuNDMgMS45Mjg1di0xMy4xMDUxYy0yLjEyNy0uODE4Mi00LjQ1LTEuNDI0NS02Ljk3LTEuODE5cy01LjQxMS0uNTkxNy04LjY3NDQtLjU5MTdjLTMuMzIxMSAwLTYuNDY3NC4zNTc5LTkuNDM5IDEuMDczOC0yLjk3MTUuNzE1OS01LjU4NjIgMS44MzM2LTcuODQ0IDMuMzUzLTIuMjU3OCAxLjUxOTUtNC4wNDIyIDMuNDU1My01LjM1MzEgNS44MDc1LTEuMzExIDIuMzUyMi0xLjk2NjUgNS4xNjQ2LTEuOTY2NSA4LjQzNzMgMCA0LjE3ODUgMS4yMDE3IDcuNzQzMyAzLjYwNTIgMTAuNjk0NSAyLjQwMzUgMi45NTEzIDYuMDUyMyA1LjQ0OTYgMTAuOTQ2NiA3LjQ5NSAxLjkyMjguNzg4OSAzLjcxNDUgMS41NjMzIDUuMzc1IDIuMzIzIDEuNjYwNi43NTk3IDMuMDk1NCAxLjU0ODYgNC4zMDQ0IDIuMzY2OHMyLjE2MjggMS43MDk0IDIuODYxOCAyLjY3MzZjLjcuOTY0MyAxLjA0OSAyLjA2IDEuMDQ5IDMuMjg3MyAwIC45MDYyLS4yMTggMS43NDYyLS42NTUgMi41MjAycy0xLjEgMS40NDYtMS45ODg1IDIuMDE2Yy0uODg4Ni41Ny0xLjk5NTYgMS4wMTYtMy4zMjEyIDEuMzM3LTEuMzI1NS4zMjEtMi44NzY4LjQ4Mi00LjY1MzkuNDgyLTMuMDI5OSAwLTYuMDMwNS0uNTMzLTkuMDAyMS0xLjYtMi45NzE1LTEuMDY2LTUuNzI0NS0yLjY2Ni04LjI1OTEtNC43OTl6bS0yMy41NTk2LTM0LjkxMzZoMTguMjk3NHYtMTEuNTU0NGgtNTF2MTEuNTU0NGgxOC4yMDc5djUxLjQ0NTZoMTQuNDk0N3oiIGNsaXAtcnVsZT0iZXZlbm9kZCIvPjwvc3ZnPg==;container=0;" parent="ugJio_jdhn8PNFgV0b_A-76" vertex="1">
          <mxGeometry x="130" y="100" width="30" height="30" as="geometry" />
        </mxCell>
        <mxCell id="X4bvIKR5kBCmrV_lh8Uz-27" value="" style="shape=image;verticalLabelPosition=bottom;labelBackgroundColor=default;verticalAlign=top;aspect=fixed;imageAspect=0;image=data:image/png,iVBORw0KGgoAAAANSUhEUgAAAWsAAAIBCAYAAACPwZ7ZAAAABGdBTUEAALGPC/xhBQAAACBjSFJNAAB6JgAAgIQAAPoAAACA6AAAdTAAAOpgAAA6mAAAF3CculE8AAAABmJLR0QA/wD/AP+gvaeTAAAAB3RJTUUH6AcUFAg3MNMLPAAAK5ZJREFUeNrt3VmMXNed3/HfuVW9kOymJIoURYrUYlnUQtuyLMqOl7FGiWbi2GaMCeKHBAPkJS/zFCCIBwkmmDhjTJAEmGQyCBDEL0mQ5InA2BIp07IYi7ItaazF1mKSIkVRlERTql7ZXb1V17335KGaZJMUya71f0+d7wcgMANYrKpb9/74r//ZJHTDX0nyffrnXzZxHf5dH1+HP2/iOvyrPr4O/4XHvTcSLgEAENYAAMIaAAhrAABhDQAgrAGAsAYAENYAAMIaAAhrAABhDQCENQCAsAYAENYAQFgDAAhrAABhDQCENQCAsAYAlLkECNSfSfqe4evnBbkOf6HmzsXs1+tAWAMFlUtKuQzyXIc40AYBACprdMF3JP2l4etnfAUAlTXW/vPf6o8vyHX4U0l1wz9/VpDr8M+Nr8N/4pGksgauV2hYFhslrkOhrgOVNQCAsAYAENYAQFgDAAhrAABhDQCENQCAsAYAwhoAQFgDAAhrACCsAQCENQCAsAYAwhoAQFgDAGENACCsAQCENQD0P85gRDf9qWwPlv3Xkv6kANfhP0r6z4av/88k/XtuR8IavfUfJP25cQD+xRr/t+dPRLeSFuQ7y1b+xH4dQFhH951Zfm8DfAVA79GzBgAqa0Tu30r6Y+5v/QtJ3+M6gC8RRTUgaZjLwHVA+2iDAABhDQAgrAGAsAYAENYAAMIaAAhrAABhDQAgrAGAsAYAENYAQFgDAAhrAABhDQCENQCAsAYAENYAQFgDALqNY7264zuS/qRPP1uNrxfoPcclQBcNShrq43+0lrkOWuYfcAAAAAAAAAAAAAAAAAAAAAAAAAAAAAAAAAAAAAAAAAAAAAAAAAAAAAAAAAAAAAAAAAAAAAAAAAAAAAAAAADBcvd+88w/VCLHpQCAgsrly97pv8trE1cDAIpaVmsykVThSgBAkflK4glrACh6aV1JnDTGhQCAIhfWqiSSo7IGgCLX1c6NJV6esAaAQhfWvpI4whoAil1Zy1WS3CeENQAUWC5fSVwpZ4ARAApdWeeVpOTKVNYAUGClrDyWzA2khDUAFFh1QzaWnNm3c1FSlcsBAEXkZ8/s27mYrPx/VNcAUMSoXlkLQ1gDQIG5lXxuhLVzzAgBgKKHNasYAaCY/OqwZhUjABQ1rRudj5WwZjMnAChmZe0vVtY5lTUAFJJbHdbOlxhgBIACSkrJxbAu+YzKGgAKKHXZxbCuZ+sJawAooKGB4YthffLgzbOSFrksAFAoi0f23TJ3IaxX0LcGgELxH53/v1aHNa0QACiUi6vLL4S1I6wBoFh1tb+YyxfC2svTBgGAItXVqxYsrmqDsIoRAAoV1on/2MqasAaAAvEfV1k7TjkHgGJV1quK6PLF1M4ruRxXB8FLRobkRga5EOhMdZtmyicWTF478/7K2SBpqcwAIwBcLjcsPFS6sg1STtgfBACuDGtv9tJDef3KsH7rB7dNSarzzQDA6rA2K62X33zq9nNXhLXkvKRxvhkAuMhbVdZOYyu5fHlYS2IVIwBcKjNrg1ySx5eFNQtjAOASVpW1v1ZYO5acA8AlmWk3wDh21bDmlHMAuJTLrAYY3dUra08bBAAurazNCmtfobIGgDUFtTdLa3+tsM7F/iAAcKGANVwQ4/w12iAuZ4ARAC5Ut5ndWvOSz68e1gOrljYCQPQM9wVZHhy8+myQIxvuHLd9ewBQpLA2a4Nk75S3Tl41rLXPZZIm+YYAQPJ2+4JMrOTxVcJakmfJOQCs1LfFWGr+sWHNKecAsCIvdFizMAYAJFmuiLl+WOdi+h4ASJIvdhuEVYwA0KhebQYYnXNj1w1rzynnACD5lT8mL+3XUlnnhDUA2E3b+9gOx5VhndCzBgDDfrWyj9mn6YqwTl2JyhoADDdxKilbQ2W9vDAms04NABSksrYLaz9y69j4dcP65MF7apJm+KoAxMxwe9SpV7+/p37dsF5BKwRA5JW11QDjx0+fvkpYs4oRQORyqxNi3FgTYc3CGACEtYWr7c/08WHtmL4HIG7eLKzd2sOazZwARC8rxkG51wxr9rQGEHdZbXeqeXOVtaeyBhB3VhsW9GsfYMwYYAQQMWd4qnlylf2ZPjaskzxjgBFAvJW15VLzvLT2sB6uD1FZA4iXYVhXN2Rrb4O88ZNb5yXN840BIKx7WtPPntm3c3HNYb2C6hpAlLzZtL2rT+64alhzyjmAeCtro+O8rpG7ydUTnhkhAGIN62ItNb9mWOsqm4kAQP+HtdnLjrVQWdMGARAnq+1Rr7UgMWnlPwKA/k1qGW6P6lsZYKRnDSDKstrspa+Vu+Wrvl+fVOTyqL6jT93t9DsPJdysgRvcMKTBDYNciMD9z2eWNVXtfYXrM7vPnJSS5sPalfyYj+zY3O23JPrDr5d5SgI3MTeo++4c4kIE7n/8ZNmmus3titTUZc23QWrJcnRtkOkZDnUHiiDLpZl5o76x6b4g65qfDXL6h3edk7QU0w0yOctDAhTBVNWbrfg2DOvF409uqTYd1ivGo7pBZnKeEqAQYW04yGcX1tfsZlwnrOOavjc7J6UZrRDA2sSs3XPowwzruKbv5V6ameNBAaxNGoa11b4g3rcR1t7HN9d6aoYHBYg7rIt19uKawtq5JLr9QaZnaYMA1iZm7XrWVvOsXeLbCOsIVzFOMH0PsP+FW42vss69H2s5rHPFtz/INNP3AHNmbZDcq7E5SO8l7bRBkggr6ynaIID9L9xZqwUxdu2XTG20QZI8j65nPUVlDRSgsrbbUNpKolLrYV3PByKcDUJlDVjyXpqes2yD2BjK662H9ckv3DopKaWyBtAr5+a9Uqud7+zaIMtvPnX7uZbDWt91ueQm4qqsWXIOWLKcY211qrmcxiTnWw/rxttnyTmA3oW14b4gKuhS8zWFtWPJOYBIKmu7rf503ckcyfX/DseScwBRhLUPubKWFOH0PdogQIxh7TKrFoxrP6x9hKecTzJ9DzBjui+I2aPv6Vm3giXngOEvW6N9Qbz3ZmntOxHWic9Zcg6gh5W10RalhrPAXJK0P8CY+STCsOaBAaxMzsZ3UG6ivAOVdTnC/UHoWQN2z5/VPGvDsK4nA+2H9bbZnWMy3d6EyhqIRXXRq1Y3enG7sM7eKW+dbDusDx92qaTpuCprlpwDFmznWJs99xPa5667G0qyxo/BknMAfR3Wyoq7IKaJsHYsOQfQ/bC23BfE90NYe7HkHEB/V9Z5H4S1c44l5wD6Oqxtt0ftUFj7CFcxsuQc6L0J08rapgXj1thmTjr5l/UTlpwDFpW1Uc/a7lDzNRfDawrrnFPOAfTiuatanb1oN7DpOhnWTjlLzgF0nVUbxBtO1c2UdC6sS1mZJecAus5sgNFwqXlJWefCenGhRmUNoKuWlr0WalaNY7uNrEduHRvvWFifPnzXkuSjii+WnAO9NRHn6sXpV7+/Z027oSRr/RtjO4txhiXnQE9Fui/ImnN1zWHtFNcqRs+ScyCasLbqWXvCujNYcg70MKwt9wUxCmvXjbD2MYY1c62BKCprq6l7zSw4TNb+aeLbH4Ql50AcYe3y4h6U20JlzSnnALrHbDaI942TzW1efM1FcBM9a5acA+ji82bUs/am45prP5C8vOZULyWVPI8rvM6Oe50dJ7BDs5Dl+mA83nnym0adNgy74N73pNG+IC6zu1eSJrbyWHNYpy6rJE20uPvBz36V62e/Wib9ApOMzMuN1KP9/H/1R+v1+EPl4N73hNEYkbdcap6XOt+zLuXrxogBIIzKOjT1tHGyuQnDsK5uyDrfsz7+5JaqkxZ4FIBi27wxxBZIbtc7NgtrP3tm387Fjoe1JHmJ6hoouJtDDOsI51g3u4VHs03oCo8CUFzDAwpzcDHK47yaK36bq6w9YQ0Uu6oOcxKA1UyQRlgX+1TzlsI6xrMYgZBsCrAF0qisLfcFsXlZ39Wwdp6eNVBgm0dDDev4tkd1vos96xgPzgVCcvNGwrrZ8lYB7AvSdFgntEGAgod1mD1ru31Bin+qeUthnVFZA1TWXWC2L0hm95ldknRvNkiiEmENFDmsA+1ZT0R4qnnaxL4gTYf1wHLGACNAZd1RWS7NzFuFtV0bpKzh7oX1kad3TEtiZyOgsGEdXs/63JyX1cZ3hps4LR5/cku1a2EtOS9pnEcCoLLulAnDOdYukAUxLYR1nAfnAiEoJdLG9Sw1D6Sy7n5Ye8IaKGxVnQQ4vhhjWLeydUcrDS7CGihkWLMvSNOdArNNnFwvwpqFMUAhw3qUfUGarnCN5lm3snVH82Ht2R8EKGZlzVLzphm1QVrZuqOFAUZWMQKEdefYLoixee2kF20QX0oIa6CIYT1Kz7qpLDNcEJP1orJOmlwiCYDK+lqmrHrWhltot7J1R9NhXfOD9KwBwroz1a2Xpubi2xdkKK93P6zfHbplQlLGowEUS4inms8ueNVToxe3a4PU33zq9nNdD2vtc5mkSR4NoFg2BdizjvFUc0ljK1t3dDmsG+hbAwXinHTTCPuCNFdZ24R1q1t2tBbWnHIOFMqNG5zKpfDed4xzrH0vw9onrGIEiiTYBTFVNnHqalizMAYoWlgHOsfasLJ2Vptot7hlR2thzZJzoFhhzb4gzVfW3uyFW8rPlsI6ZzMnoGCVNfuCNJ3U3mqA0dMGAQjrsExY9awzw155i1t2tFhZc8o5UKiwHqVn3VRgGq5ebHXLjpa+4cRnhDVAZd02u31B7MK6ngz0LqxHt1fGZLW3IIArhLjUfH7Ja6lu9OJ2YZ29U97a0grwlsL61e/vqUs6xyMCUFm3yvbsRbNZKBMrW3b0JqxX0AoBCuKmAHvWE5ZzrANbENNWWDvCGiiE0XVOwwPhvW/TOdZWYe3V8hqVpPXXJKyBItg0ylLzplntC9LGVh1t/HZiYQxQBCyIaSE0s7AWxLRXWbPkHCiEzewL0kJlbdOCcXIWPWtWMQJU1m2EddWoZ213qLm8RWXtEk45B4og2J61VWVteKq5SRskd5xyDhTB5lD3BYlwqXnmS72fDVJyZcIaKAD2sm620jTcF6SNrTrKrf6HcwNpZX3monoodmx1+sdfK5EOBVdeN6x1I4PRfN5P3xXePVmrN5abRxbWfmDd7HjPw/rMvp2Lu/aemZM0EstDMVh2+tajhHXhf17PDei+Owe5EEX+jiwPyrXbHnX6yL7dyy1X5W2+eFStkMmZnKcM6MSzFOe+IG3lZXthHdkp57PzUpqx2SAQcliHdqp5Z8I6slPOvZdm5njQgHaNW/5KNXppZxnWPsKFMVMzPGhA25V11XKpeXirF9sO6xhXMU7P0gYB2g7rCLdHzdXeFh1t9qyT6PYHmZwhrIF2TRieau59eJs4tR3WXvGtYpya5UED2g5ro561Nx3XTCzbICXaIACa/4Vq9By5zG5gM2mzuG0rrEsRnnJOZQ2EG9aW+4KU8pJdWNfWLUfXs6ayBtpTq0tz8S01V3VDZjfAeGrf3TOSFqOqCBhgBNqsqqNcal49s29nW1nZ9nZdThqP6UajsgbaM2G61Dy8U807FtaxHZw7MydlbBECtFFZx3ecVyHCWpGFdZZL1XkeOKDlsI7wVPOChHWMS84prYHWK+v49gXxxQhrx/Q9AGs2EeH2qM47+7B2zkc3fW+KQUagjco6vjaIS9rPyQ4MMCYRrmLkgQNaD2ujXoThzIC8A+3iDkzd87RBABS+svaGrfKkA0Vt22GduRIDjADWHtbV+FYvph3Y9K7tsC4n7A8CYI2hlUmzC1ZhbVdklTVsH9Zv/eC2KUn1mG44VjECrVfVVtuUGq5eXDz+5JaqeVhLzkuaoLIGcN2wNpxj7QJeENOhsJbk4lrFOD1ru4k5EG5Ysy+IaVj7yBbGpJlXdZ60BpoV4yZOTurIWpSkM2+G6XsA1lJZW7ZBjI4S61AxS1i3iEFGoIUix3ATJ58Z/SPRoXzsSFjnEZ5yPl3lwQOaNRHhUvO8SGEdZxuEyhpoltkAY+4l2bx2UqQ2SB7h/iBTHO8FtBDWRn1jwwUxWZEq68TnDDACuC6rNogz3CHC5aXizAYZyOsMMAK4doWZSzPzVps42T2vg2lWnMr6yIY7x2V2BgOVNRCCc3PebpdSuzZI/cjTO6YLE9ba5zJJU3GFNZU10IwJwznWPjN7XsdWtuQoSFhLiu14LwYYgSafmQgPynUdPFC8g2Ed1/S95bo0v8gDCKxVjMd5ecK6GBhkBNYuxgUxKmJYe045B3DNytpwDoLZAKMrXlg7J045B3CNsLbccc/qhX3HcrFzYR1jZc0gI7D2sLYaYPTebAP6Tm7F0bGwztkfBEARK+vMsKIvJcUL60TxLTln5z2gmbC22hfELqw7mYsdC+vUlSKcDcIDCKwpML00NWe5456NejLQsVwsd+ovcssLYyqv85JcLDdgZdLr7DitkKJZyHJ9MN6/ux9sucFpeDCsx6y66FVPjV7cLqyzd8pbJzuWsZ18Z7v2npmWdCNxAUvJyJDcyGDffr7//Z0NevieUlDv+dSHub75b+ZssnquJj+3bPHSYyf279jasfu6o28twul7QK/dvDG8H68Tpmcvhr8gpvNhHeGMEICwvr7JCE81ly9wWMe4ihHopaEBaXRdeGEd4yZOPnHFDWtHZQ101abRJMj3bbkviNX2qJ3Ow85+8xGecg70UogtECnOfUE6vaq7w20QKmugmzYHG9ZGrQi7Q82Vd3BfkI6HtYvwlHOAyvr6JqpWB+XatV8K3QbJIzzlHOhtWIfZszarrO3OXlSuUnHDOvEZYQ10M6xHw6ysp6x61pb7gnQ4Dzsa1sP1IcIa6GplHV5Yzy95LdWtyluzsPYD62bHCxvWb/zk1nlJ8zxSAGF9nunZi3bbo04f2be7o2vcu9AA80zfA7pkc4A9a9M51nY96453GbrwzbOKEaCyXl1ZW86xDv9U825W1oQ10AWlRNq4PsCwNl1qbvOyTp3f1I7KGgioqk4CnAxiuolTFv6p5l0L626U/wCYY91SZJq1QXzxw9o5xwAj0I2wDnSO9WTVqLr1Xt73xyZO3QlretZAV7AvSNNZbSb3SfHDOhdLzoGuVNah7gtiFNYus5uFknQhB5PO/4Ulwhrogk30rJurrC2XmpfLxZ8NUkuWCWugCzYH2LNeqjeWm8cW1rNZ5xcHljv9F57+4V3ndu09U5M0FMtDNLLO6e98Pryq5+i7ud5+3wthYEFMc1zmrbayrp7dv32h8GHduEoal9eOWB6ictnrj/9JObj3/X8PZnr7/ZQUJKy7ZirGg3K7NH05CenNFtXsnJRl4b3vmwIdsIoV+4I0qY/2BeleWPu4wjr30sxceO2ETRsJwFAkTrpxhKXmTT+YhPW1uQhXMU7NUlmje24ccSoFOBnEsmftrdbihBTWPsL9QSZnqKzRPZuZY91CZW10qrnrzjbRXfq3Or49radnwwvrmzZKjuI6COwL0kpYWy01dyFV1p42SADKJafRDaR1GGEd6NmLVj3rzPKgXB9Qz9rH1wY5Vw1zvjKtkEDCejTUNohNaHrD8w4SJeGEdcnnVNaBYJCRyrqbzNoghqsX0y7tj9SVsK7nAwwwhhLWowRhGGEdXs86zaTZBauwtiutyxoOJ6xPfuHWSUlRLY0LcYBRkjZRWQchxNkgk1Vvtk2p4erFxeNPbqkGE9b6rsslNxHTwzQ1E+b73nQDYR1GZc2+IM1wdmHdtZlwXfxtFdf0vXNz3rJN1kZlTRCGEdbhtUEm2RcklLCOaxVjlknV+fDeNwOMxeectCnApeYTEYa1I6zDMDXLKkZ03sb1TgPlAJ+HquVBuUZTBru4epuw7qDpIMOayrrowp22Z7gviNEumN08g7ZrYR3jKedBbubEAGPhbQ50qflEhEvN8xDDOsYl5yFW1kMD0vphApHKuhuVteWCGKOetU/Cmw3iYtwfJNTpe7RCiv39jNIGaapQtDwoV3l4lXXWpfXxhb45Z/Ig3/dNDDIWGtujNlkoGoZ15kvhhXVJWYSbOQX6M/uGRCjw9xNgzzrLpZn5+E41H0yz8MJ62+zOMUl5TA9VuJs5EYiFDusA2yAz895ul1K7fUHqR57eMR1cWB8+7FJJ0zE9VOwPgm4IsQ1iuiAms1xq7rr24kn333xMlXWgO+9RWRe7smZfkCYr6/5bvdj1sPaRLYxZrktzi2Ee74Ui//JhX5AQwtqHHNYxnnI+HeD0PQYYi2tk2Gl4ILz3HeOCmG53Eroc1o4TY6is0c4/pCw1byGsjeZ3ex9yGyTCVYxV9gcBYW25iZPV+YvdLk67/PvXx7c/SIDHe60floYHCUbCunPM2iDey+p4mm6v2u5qWOc+YZvUQNzIWYzFDOvRMMcTzAYYM8OKvpSEG9bdXCdfVNOBLoxhkJHKurNhHd++IM7n4Q4wlvISlXUgGGQsphAXxHgvTc1Z7rhnY1mD4VbWiwu1CHfeYxUjOllZh/eLZ3bBq54avbhdWGfvDt3S1UPCu3onnD5815LkZ2N6uKbZHwQdDesQVy9azgQxmzI4qX2uq+fT9OCfbceS8xAqa06MKaQQ2yCTpmcv9t+p5j0M67hWMS7WpKVaeO9722anUolwLJIbN7ggDx6YqhqevWgV1r77OdeLM5MjXBgjbRsK6z1/+cFEP/mvQ3rznVyvHPV6+Wim46e90DulRLpvZ0lfvL+sL95f0ufvLasU4CSdiZkI9wVJXPhh7aVKbD+wJ2dybdsc3lM2PCQ98kCiRx6Q/kglTc14vf6218tHcj3/eq6Jc4R3p+3cklwI5y/vLmtkOPynxXRfkKw/F8T0JKydd5UubvFazMq6T4ZUN93g9Ngep8f2JMq99PZ7jYr7laNer7+da7lO2DZ9TUedHtnVCOevfqqsWzf13/x2y31BrAYYne/+au3uh3Xix3xkBVmog4zXkjjp3jud7r2zrD/8ulSrS2+8fbFlcuI9L0/hfeWvlUGnh+4u6Yv3N9obD9xekuvzn5pWs0G83aHmytUHbZBcvuIUVyNkOoLJikMDl7ZMpqvSa8dzvXwk19+8masyFWdyJ066//aLfeeH7ylrsBzXNbCaDWJ5UG5ftEESJRWv2Nog8QXVTaPSY3sSPban8bP+7LjXy0cb4f3SkVzzi/372bfc4PS5T5b12INlffXTZd24Ie5pkGaVtd0ca+UqhR/WqfJKKbLKenKGfsD2LU7ferSkbz1aUpZJJz+42O/+9XGvNAv3Gq0fcnrwExdbG7vvYM5jESpry6Xmic/CD+uyhitetahu1ulZHtjVSqVL+92LNelXb+V6/rVcLx3J9OFEwd//ZVPqHtlVVpl8/ljzS15Ly9GFtR9YNzsefFgff3JL9d69Zxa8tD6WG3Zqlsr6WtYNNeZ1f/nBRFL5kpbJK8e8qvP212/1lLov3V/W6HpWeBa5BSLJcnvU6SP7di8HH9aS5Btnk90ZTWVd5aFtxiUtk1w6+f7FlslrJ7zqafcfwptGnD5/byOcv7K7rO03s2VsKybi3BekJ1tqlHv4YaIJ67mVXccGyjy8rbQcVrdMlmq6ZFVlp6YIDg9ID32yfKHvfP/tJSUUzx2orC3PXrRaENObVdrlXn2YmBoD3jdmhNyyiae/7VC9fFXlrPT6iUbL5IU3co1Pr/3OWt3a+MrusjYM8/10PKwtzyA1+nfC91NYe7mKFN8qxls28fB22qaNV58i+Mvf5FpYuvi/vXmj0557GuH86GcGtPVGwrn7lbVhGySzqupdP1XWvhLbkFtjkJFw6LbV/e5avVF1j80N66ufW69PbKPv3PP73nh7VItX9z1YENOzsI5xFeMU0/d6bmhA+vzuRBNzAwS1kQmrnrX38r5/N3GSerOftZxPxmK7aadmcp5cRMd0XxCrit71Jt+S3rxIHuWe1kB8lbVRdWu4IjZ3ef9U1pmP75RzVjGCyrqHlbXhviAlV+6fsB5Ms/hOOWcVIyKzVG8sN7cJa7vnbTbz/dMGOfL0jmlJyzHduAwwIr4Cxa66NWyDVM/u377QN2GtxlEx41HduAwwIjKmc6z7+FTzHoe1pB6tny+K2Tkpy3iAEQ/Tsxftetb9GNYuqr517qWZOfrWiKiytlxqbjV3z7meFaE9DGvP9D2gn8Pa8qBco1+xvoe51rOw9j6+sObEGMQV1vG1QVw/hrWLrA0ixXkWIyIOa9Md96yWmrs+DOvEx7fknOl7oLLuvszyoNw+rKxzJVTWQF+HtU1oesNZskkPcy3p3QvlLDkH+pjZ1D3LU83zvP9mgyxrkAFGoE+lmTS7YHS/G5bW9Wx9/1XW7w7dMiEpqmUitEEQTWFS9XbblNotNV86efDmnv1+7t08630ukzQZ0w3MACPiudfjOyhXPVy92NuwNvhw5pV11Vu204CeVtZWPGHdFVFN38syqTpPWqP/TUS4iZPr57COcWHM5DnCGhGEteEuk85o9aLvcZ6Ve/vh4lty/k+/V9dn7km05wGnRx4o6d47OfEcffCrMZfe+iDTi8dSvXgs00vHU7vK2mjagutxnpV7/eF8ZKec1+rSy0dzvXxU+m/KtOkGpy98KtGXH0y0536n0Q2ENwKpnme9Xjia6tnXU714LLWbqnc5ozZIrt6uyi739pomY87F3RaYmvE6+Hymg89nKiXSJ29vVNx7HnD63L2JSiVCAcWwtOz163cyvXisUUEfea+AM29zL8moZ+2Tfq6s84pEJbn6p+Tx017HT6f6Pz+Sbhhx+tx9To/sTvS3Pp1o6yauFXrrg/Fcz73ZqJ5ffTvVclrs92t59mKvV2X3NKwTX6rkjuOurmZmzuvZV7yefaVxjbZvcXrkgURf/myiRx5INDjANUJnTc95vXS80Xd+7s1Ulemwnk9nGNaZL/VvWKd5XkkSHpC1Ojvu9cRzmZ54LtPQgBioREd+zZ0fGDz8RqrX3smCXgtgWVkPpllPw7qnT/zubx8ZrC/dsCR6IW1joPLqJuZGdd+dQ1yIVa2N87M2XjiWqrrQP+NGfmFZ+WzN4qXrJ/bfNrRyGHj/hbUk7dp7ZkrSTTxCncNAJWG9WhADg50K62pN+fyyxUv/9sT+HTt6+YJlgw9ZIaw7/9OWgcq4vfNhrmdfr+vFY1kQA4MdC2u7NkjPV2MbhLUbk/x9PF7dw0Bl/5uqer18YmVg8I26KrGulDUL696vxjYI6/hWMVq71kDlrjucHIV3EL+e3vog0+E3GgODx97P2CTMNKx9BGHtfYV0sMOKynBcMjB4NFV1kXS+MqyN9gXxEYS1l6sQBwX6OX2NFZUP3etULvFt9cpizeu1U42BwZ++XtepD1mTcN08MbpELoY2SGPzEwKgqD+1rzZQ+YVPJbr1Zr63Tv+CP/b+xc2QXnk7VT3lujRR3srqeBqX+P4fYHQuGfPi51wIrjZQeX6WyTqmMjf/S2bVwODhN+oaYwvdNqoLu2uXK+n/yjqTr7CIMUwMVLb2a+X1U42BwRePpTr6fmZ3VmG/FdYR7QtiEtYllSte/NYL3RUDlRulB3cl+spnG4OVMQ9Urh4YfP5Iqrkl0rk75a3ddV3WYP+HdVV5ZYTbrP9+3s9Kz76S69lX8ugGKhdq/kL1/P9eS3V2koHBPg/r/I7ZWybf7fGLmjxBu/aeqUoisyOxbkh6+P5EX3qwNwOV3V5ufvnA4MsnUqUZ33PPE3OuJj9nstR87MT+HVv7vrJeUSGs47FYk37xWq5fvHblQOUXPpVo/XDxP8PkrNcrb6cXFqXMcBCyOZebTVUwWdhnEtZOGvPS3dxucQphoHKpLv36ZHphMyQGBovHbIDRRxTWnrnWWHGtgcovfSbRxpHe3SerBwZ/cSTVPAODxQ5ro6l7zrkxi9c1qqxdhccAH6eXA5Uz815/81YjnH/+m1QfTjEwGBKrNog32t+IyhqFdfmKyksGKncnunWza/rvO39KCgODfVBZG+0L4mIKaympiFWMaFIrA5UTs14vHG0cAPvisVSzC9x3fRHUdoeaKzfYF8QsrJ33Y57CGm26fKDywXsbFfdtO1L94Jdezx9JdeojWhv9yPKg3Kgqa++TijjlHB1Uq0sv/SbXS7/JlYwsyo0MclH6ubLO7fIjV8kkrE226Uh8zgEEANpITMN2VpqbzAYxCevlDTXCGkDr7Hbc89LieDRhfWrf3TOSlrjjALSUmHaV9bmTB++pRRPWUmMVI7ccgJbY9azNugJmYe0NPzSA0MPaaPVijGEtKmsALYd1fEWmXWXtPZU1gNbyI7Nqg7j4wtoZfmgAoae1N3pZb9YRsAvrhMoaQEuRadiz9vFV1rlP6FkDaD6qDTffckkSX1gnorIG0EJgGq5ezF0eX1hnyghrAM1X1ob7gpRcOcbKeoCwBtBcUGdevpaavf5sZjfAaLhRqXe79v62JmmAWxAdLQRGhth1r2/S2cvXc/laKr+cSnXT3TqrJ/bv2Gj14mW7z+28dGZC0jbuSAAXZLn8cia/lMovZyrQScWm3YCy6Ud3qsgT1kDUct8I51oq1VLLTZquU+Xbrro2DWvn/ZjnLEYgPvVcfjlttDfqWRin/CUu3sras4oRiMP51kZtpbWRh3cWpjeebmxbWctXqKyB/uO9pHpWlIHBjuVVtGGdK6k4TjkH+qZ6zpdW+s71vEgDgx0Kaxd3Zc0dDgRq1cCgX04tj9rq0cf18Q4wJnk+licJNz0QitUDg8tZVB/dGZ1qXoiwznxSoWMNFNiqgUHVMnkfb9uy5LN4w7o8nFayepkHAiiIfhwY7NiPimx9vGG9deqO8bOjv81le7wYEHdAp3ljULBPBwY7ZOnkwZtnLd+AaUgePuxSSVPcB0AP5V5+KVU+s6RsfF75xLzyaq1oS7uLxnwyRAF6EK4i+c3cC0C3SmdJaWMzpLxWp7VBWLd8J1Uk7eZeADpo9YrBGhVz2yUlYa3G5ihMCQHarp59fdVmSCnVc2cvrzc/hrBcgHuM6XtAK8/O6oHB5VxiNXA3a2sqa5eowj0GrCGccy+tbm3kVM89rKwJaydX8aQ18LE/O5VmypeY82yeUz4hrHPvx2iDACsu2Uo0lcjnQkiUE9ZOeYU1MYi5evb1lSOsavW+3wwp2H9DfYmwTlWulCkfEJNLNkNiYDAEpcGc2SB5tTamUQ44Rx8XzwwMhi5968HbpvUD2zdh3n84ffiuJTn3jyT9L8l9xH2B8NO5sc9zXq0pm5xXPjan/Nyi/GKdoA7LMS/9Za7kG/quM//iCje2t+sb733ClZK9PnfflNPvSBrinkFTFcjIkNzIYG9f9JIVgymdjTDNSTosp/2lNHn62I+2v1ekN1foiRjb955dP5L4LynX43L+cXk9zP2EQoS1V6PvvBTHKSl9KpPTa/LukBIdGt364XOvfn9PvahvNqhZc/f/g9PbsuXy78npm5J+T9KN3G/oWVgzMNgPKpJ+Jq8DA3V/4MjTO4PZ9TPcKc7f9qX7Fj78rE+yx713j8vpd1WIjanQL2F96cBgKuWEc4AW5fW8c/6Qy0uH3npq268kF+QX2TfrUe77gzM3+0x/23s9LunvSdrJfUpYN5fOXr6ec0pK+E5JOuScDpWHBg8e2XfLXD98qL5dPLjrG+99QqXS4/LaK+lxScPcw4T1Fc4PDC6lbL4frklJP5XTodQnPz61f/v7/fgho1jpvePbH6xbv5x8mYFKwlq5X3UAbNpodSA0QQ0MEtZt2P31d2+tJwO/vzJQ+bikm7j/+zisVw8M1jPGBcOMqo8k/4xz2j+YZYfefOqO6eiuQPT3AAOV/RfW6wfky6VG5UxrI1SXDQxufzX6f664Jy7FQCVg5pSkQ7l3B9K55WdOH75riUtCWK8ZA5VA10xIelZOhzLnDr7zxG0fcEkI6474mIHKz3ENgTW7ODAod+DEw9teKMKeG4R1BBioBK7Hvyu5Z5zToVpSf+b0D+86xzUhrG1dOVD5qCT2fkVsgbLgvV5gYJCwDsbqgUonfc1Lt3NV0KdOObkDPtH+fHnh5ycP3lPjkhDWwWKgEn1kXI2tRA8p90+dOLDzt1wSwrovMVCJwDQGBuUPJFlp/1uPbPs1A4OEdZQYqEQBXdgMqT5U+8mpfXfPcEkIa6zGQCVszMvrRef8oSwp7z/5xLajXBLCGs1U3d8eG6kt1h9LnP8mA5XoLH9USvYr0aGBwXM/O7Jv9zLXhLBGh6waqDy/HH6Eq4I1ujAw6JQfOP7k7We5JIQ1eoCBSlxHKumXTn5/6KekgAe7r9z19ytbB1X/qm9MD/yGpE1clehcGBjM6uuePnnw5lkuCWGNImOgMhaNgcHEH3BJ+Ym3frjtNJeEsEbAGKjsG7mcfn3+lBQGBglr9LnLBiq/JmmUq1JYY5Kek9OhUjndf+yv7/yQS0JYI0IMVBYOA4MgrHF9DFSauDAwKA39+PiTW6pcEhDWWDsGKrtlTo05z/tLafL0sR9tf49LAsIaHbN6oFLS35V0B1dlTS6ekpLo0OjWD5979ft76lwWENboCQYqr6ki6WfyOjBQ9weOPL1ziksCwhrm7vzdd4cHbxj8SsQDlYvyev7iKSkMDIKwRgAiGai8MDBYHho8eGTfLXN88yCsEa7v+uS+lz98qA8GKicl/VROh1Kf/PjU/u3v8+WCsEbfCmigkoFBENbAecUaqHQfSf4Z57R/MMsOvfnUHdN8QyCsgcsYDFReNjC4/VW+BRDWQJPu/oOPbiln6aO+UXXvlbStA3/tKUmHcu8OpHPLz5w+fNcSVxqENdApVw5UflXS4Br+ywlJz8rpUObcwXeeuO0DLiYIa6BHPvP7H21YWpd90eXa6+W/pYsDlRcHBuUOnHh42wv6rsu5YiCsgQLYtffsfd7ld/v6up9zSgr6yf8HZdclMTfhTQAAAAAldEVYdGRhdGU6Y3JlYXRlADIwMjQtMDctMjBUMjA6MDg6NTUrMDA6MDAmXkvkAAAAJXRFWHRkYXRlOm1vZGlmeQAyMDI0LTA3LTIwVDIwOjA4OjU1KzAwOjAwVwPzWAAAAABJRU5ErkJggg==;container=0;" parent="ugJio_jdhn8PNFgV0b_A-76" vertex="1">
          <mxGeometry x="170" y="100" width="21.23" height="30" as="geometry" />
        </mxCell>
        <mxCell id="ugJio_jdhn8PNFgV0b_A-68" value="" style="shadow=0;dashed=0;html=1;strokeColor=none;fillColor=#EF8F21;labelPosition=center;verticalLabelPosition=bottom;verticalAlign=top;align=center;outlineConnect=0;shape=mxgraph.veeam.linux;aspect=fixed;container=0;" vertex="1" parent="ugJio_jdhn8PNFgV0b_A-76">
          <mxGeometry x="210" y="20" width="30" height="30" as="geometry" />
        </mxCell>
        <mxCell id="ugJio_jdhn8PNFgV0b_A-71" value="" style="shape=image;verticalLabelPosition=bottom;labelBackgroundColor=default;verticalAlign=top;aspect=fixed;imageAspect=0;image=https://nodejs.org/static/logos/nodejsLight.svg;" vertex="1" parent="ugJio_jdhn8PNFgV0b_A-76">
          <mxGeometry x="100" y="20" width="100.13" height="30" as="geometry" />
        </mxCell>
        <mxCell id="ugJio_jdhn8PNFgV0b_A-74" value="votura-crypto" style="rounded=0;whiteSpace=wrap;html=1;strokeColor=default;align=left;verticalAlign=top;fontFamily=Helvetica;fontSize=12;fontColor=default;fillColor=none;" vertex="1" parent="ugJio_jdhn8PNFgV0b_A-76">
          <mxGeometry x="40" y="120" width="80" height="35" as="geometry" />
        </mxCell>
        <mxCell id="ugJio_jdhn8PNFgV0b_A-75" value="" style="shape=image;verticalLabelPosition=bottom;labelBackgroundColor=default;verticalAlign=top;aspect=fixed;imageAspect=0;image=https://upload.wikimedia.org/wikipedia/commons/6/64/Expressjs.png;" vertex="1" parent="ugJio_jdhn8PNFgV0b_A-76">
          <mxGeometry x="110" y="60" width="98.94" height="30" as="geometry" />
        </mxCell>
        <mxCell id="ugJio_jdhn8PNFgV0b_A-69" value="" style="shape=image;verticalLabelPosition=bottom;labelBackgroundColor=default;verticalAlign=top;aspect=fixed;imageAspect=0;editableCssRules=.*;image=data:image/svg+xml,PHN2ZyB4bWxucz0iaHR0cDovL3d3dy53My5vcmcvMjAwMC9zdmciIHZpZXdCb3g9Ii0wLjAwNTIyNjk2OTcxODkzMzEwNTUgMCA3NTYuMjU1MjQ5MDIzNDM3NSA1OTYuOTAwMjA3NTE5NTMxMiIgZGF0YS1uYW1lPSJMYXllciAxIiBpZD0iTGF5ZXJfMSIgd2lkdGg9Ijc1Ni4yNTUyNDkwMjM0Mzc1IiBoZWlnaHQ9IjU5Ni45MDAyMDc1MTk1MzEyIj4mI3hhOyAgPGRlZnM+JiN4YTsgICAgPHN0eWxlPiYjeGE7ICAgICAgLmNscy0xIHsmI3hhOyAgICAgICAgZmlsbDogIzFkNjNlZDsmI3hhOyAgICAgICAgc3Ryb2tlLXdpZHRoOiAwcHg7JiN4YTsgICAgICB9JiN4YTsgICAgPC9zdHlsZT4mI3hhOyAgPC9kZWZzPiYjeGE7ICA8cGF0aCBkPSJNNzQzLjk2LDI0NS4yNWMtMTguNTQtMTIuNDgtNjcuMjYtMTcuODEtMTAyLjY4LTguMjctMS45MS0zNS4yOC0yMC4xLTY1LjAxLTUzLjM4LTkwLjk1bC0xMi4zMi04LjI3LTguMjEsMTIuNGMtMTYuMTQsMjQuNS0yMi45NCw1Ny4xNC0yMC41Myw4Ni44MSwxLjksMTguMjgsOC4yNiwzOC44MywyMC41Myw1My43NC00Ni4xLDI2Ljc0LTg4LjU5LDIwLjY3LTI3Ni43NywyMC42N0guMDZjLS44NSw0Mi40OSw1Ljk4LDEyNC4yMyw1Ny45NiwxOTAuNzcsNS43NCw3LjM1LDEyLjA0LDE0LjQ2LDE4Ljg3LDIxLjMxLDQyLjI2LDQyLjMyLDEwNi4xMSw3My4zNSwyMDEuNTksNzMuNDQsMTQ1LjY2LjEzLDI3MC40Ni03OC42LDM0Ni4zNy0yNjguOTcsMjQuOTguNDEsOTAuOTIsNC40OCwxMjMuMTktNTcuODguNzktMS4wNSw4LjIxLTE2LjU0LDguMjEtMTYuNTRsLTEyLjMtOC4yN1pNMTg5LjY3LDIwNi4zOWgtODEuN3Y4MS43aDgxLjd2LTgxLjdaTTI5NS4yMiwyMDYuMzloLTgxLjd2ODEuN2g4MS43di04MS43Wk00MDAuNzcsMjA2LjM5aC04MS43djgxLjdoODEuN3YtODEuN1pNNTA2LjMyLDIwNi4zOWgtODEuN3Y4MS43aDgxLjd2LTgxLjdaTTg0LjEyLDIwNi4zOUgyLjQydjgxLjdoODEuN3YtODEuN1pNMTg5LjY3LDEwMy4yaC04MS43djgxLjdoODEuN3YtODEuN1pNMjk1LjIyLDEwMy4yaC04MS43djgxLjdoODEuN3YtODEuN1pNNDAwLjc3LDEwMy4yaC04MS43djgxLjdoODEuN3YtODEuN1pNNDAwLjc3LDBoLTgxLjd2ODEuN2g4MS43VjBaIiBjbGFzcz0iY2xzLTEiLz4mI3hhOzwvc3ZnPg==;" vertex="1" parent="ugJio_jdhn8PNFgV0b_A-76">
          <mxGeometry x="220" y="180" width="37.99" height="30" as="geometry" />
        </mxCell>
        <mxCell id="ugJio_jdhn8PNFgV0b_A-70" value="&lt;font face=&quot;Courier New&quot;&gt;3000:3000&lt;/font&gt;" style="shape=hexagon;perimeter=hexagonPerimeter2;whiteSpace=wrap;html=1;fixedSize=1;strokeColor=#666666;align=center;verticalAlign=middle;fontFamily=Helvetica;fontSize=12;fontColor=#333333;fillColor=#f5f5f5;size=10;" vertex="1" parent="ugJio_jdhn8PNFgV0b_A-76">
          <mxGeometry x="210" y="150" width="80" height="20" as="geometry" />
        </mxCell>
        <mxCell id="X4bvIKR5kBCmrV_lh8Uz-57" value="Database" parent="0" />
        <mxCell id="ugJio_jdhn8PNFgV0b_A-19" style="edgeStyle=orthogonalEdgeStyle;rounded=0;orthogonalLoop=1;jettySize=auto;html=1;entryX=0;entryY=0.5;entryDx=0;entryDy=0;fontFamily=Helvetica;fontSize=12;fontColor=default;" edge="1" parent="X4bvIKR5kBCmrV_lh8Uz-57" source="ugJio_jdhn8PNFgV0b_A-18" target="ugJio_jdhn8PNFgV0b_A-13">
          <mxGeometry relative="1" as="geometry" />
        </mxCell>
        <mxCell id="ugJio_jdhn8PNFgV0b_A-18" value="Developer" style="shape=umlActor;verticalLabelPosition=bottom;verticalAlign=top;html=1;outlineConnect=0;strokeColor=default;align=center;fontFamily=Helvetica;fontSize=12;fontColor=default;fillColor=default;" vertex="1" parent="X4bvIKR5kBCmrV_lh8Uz-57">
          <mxGeometry x="450" y="872" width="30" height="60" as="geometry" />
        </mxCell>
        <mxCell id="ugJio_jdhn8PNFgV0b_A-40" value="" style="group" vertex="1" connectable="0" parent="X4bvIKR5kBCmrV_lh8Uz-57">
          <mxGeometry x="630" y="620" width="176.99" height="130" as="geometry" />
        </mxCell>
        <mxCell id="ugJio_jdhn8PNFgV0b_A-12" value="votura-db" style="shape=cube;whiteSpace=wrap;html=1;boundedLbl=1;backgroundOutline=1;darkOpacity=0.05;darkOpacity2=0.1;size=10;align=left;verticalAlign=top;fillColor=#CCCCCC;" vertex="1" parent="ugJio_jdhn8PNFgV0b_A-40">
          <mxGeometry x="30" width="129" height="120" as="geometry" />
        </mxCell>
        <mxCell id="ugJio_jdhn8PNFgV0b_A-29" value="" style="group" vertex="1" connectable="0" parent="ugJio_jdhn8PNFgV0b_A-40">
          <mxGeometry x="49" y="60" width="103.5" height="50" as="geometry" />
        </mxCell>
        <mxCell id="ugJio_jdhn8PNFgV0b_A-28" value="database" style="rounded=0;whiteSpace=wrap;html=1;strokeColor=default;align=left;verticalAlign=top;fontFamily=Helvetica;fontSize=12;fontColor=default;fillColor=none;" vertex="1" parent="ugJio_jdhn8PNFgV0b_A-29">
          <mxGeometry width="100" height="50" as="geometry" />
        </mxCell>
        <mxCell id="X4bvIKR5kBCmrV_lh8Uz-19" value="" style="shape=image;verticalLabelPosition=bottom;labelBackgroundColor=default;verticalAlign=top;aspect=fixed;imageAspect=0;image=data:image/png,iVBORw0KGgoAAAANSUhEUgAAAhwAAAItCAYAAABy2KN0AAAABmJLR0QA/wD/AP+gvaeTAAAAB3RJTUUH2AEQExIBTlMXoQAAIABJREFUeJzsnXd4VNe1t98Z9VHvEipIQkIIJHoRGDBgsDFgcInjuCZOnDhxi50b3/jmxkmu05zYn+PENYnjuOKCwdjGdNOrqBLqoIJ6r6Oumfn+OIAxSCCdfUYzGu33eebRIM1eewGaM7+z9io6JBKJRDKcCQZCAX8goI+HAfAAvAEXwA9wBTwHuY8FaDr3vBkwA21AO9AANPbxtR4oAYyq/mYSh0JnawckEolE0i/BQMy5RywQBUSiCIzzX11t5NtgaAFKgbKLHiXAaSAXqLWda5KhQgoOiUQisS2+QOK5x7hzXxOAMQw+CjFcaQDygRwg79zzDKAQJbIicQCk4JBIJJKhQQfEAVOAyeceKUC0LZ2yc1qAdODkucdRIBvotaVTEnVIwSGRSCTa4wKMRxEXU1HExSTAx5ZOOQgdKOLjGIoAOYpyLGOypVOSqyMFh0QikYjhDEwDZvJ15CKZ4ZFb4SgYgX3ADmAXcBwpQOwOKTgkEkl/BKOE+yOBMCDo3CPw3FcD4HXuqxtK9YMzV7+Lb0EJiTed+9oKdKLcuRqBnnM/6zj3s1qg7tyj6qLnXZr8LQePN5AKzAXmoQiNkZJrMVxoAXYDO1EESDpKVY3EhkjB4RgYUD4cfFFCufpzz0Eph3M/99yPvv/P24BulDuClnPfO3/hP/+B0IKS2CXftI6FP5CEEv4fd+5rzLmHh828GhitfFOAVAFnURINi849qjXYxwu4DliIIjImA04a2JUMHZXA58B6FBFiK7E6opGCw74JQkkyG4NS/hZy7mvwuUfYua9DeXdVjyI86vt4fr7sreTc884h9EtydeL4Op/g/CPCph5ZnzagmK9FSOG5P+ede97dxxo9yr/TEmApMAclciNxDFqBzcCnwCa+7i0isTJScNgeHUp9fTIwAZgIjEURGb5XWDccqEERHqUoIqQE5UKfh3Lxl5nm1iMIJdw/AyW/YAZKNEPyNb0ooiMDpQxzFMr7bhyKkJc4Pj0oEY93gHUox3gSKyEFx9DihlIGd3FZ3ESUkO1IoxvlYp+DcrHPR8k0z0becaghACXsfy2wAOVoRL6/JZKB0wx8giI+9iL7f2iOvCBZl3iUcOzMc49JyMz1gVCEUvaWjnL3efLc9yTfJAVYAdyI8nsm8wokEm0oAN4+9yixsS8OgxQc2jIaJbFsIbAIJbtfog1NfN3857wQyaTvM3hHZhLwbeAOlPC/RCKxHmaUUtu3UKIfMtlUACk4xNCjlMfdhHKnmWxbd0YcPUAWkAYcBg6hHMs4WiXNKOB+4B6U/AKJRDL0NACrgVdRjoIlg0QKjsGjR0nGuwu4BZlcZm80owiQQ3wtQupt6pE6XIBlwI+AG5DHJRINcXFxwctLSR3z8fHByenKv17Nzc309vbS3Nw8FO7ZOxZgC/BXYBsy12PASMExcFKA+4DvII9KhhMWlCjILmDPuYcWvRmsxTjgeygRjRDbuiKxZ3Q6HSEhIYSEhBAWFkZoaCghISGEh4fj7++Pr68vfn5++Pn54evre+HPrq5iaWRGo5H29naMRiPNzc20t7fT0NBATU0NlZWV1NbWUltbS2Vl5YXvNTY2avS3tjuygL8B7yLbAFwVKTiujC9KJOMHKKWFEscgB6UL4R7gK5TyXVviDNwGPIQSPZPvSwl6vZ7o6GgSEhIYPXo00dHRxMTEXHgeERGBi4uLrd0cEE1NTRQWFlJYWEhRUdGF54WFhRQXF9PbO+wr5OuA14GXse8bGpsiL2x9Mwd4ELgd+++2KBHDgpKIuh3YijKPYajuVPxQjkweAaKGaE+JnREYGEhiYiLjxo1j7NixJCQkXPjq5uZma/esTnd3NwUFBWRlZZGRkcGpU6dIT0+nuLgYi2XYnVZ0AK8Af0YRIZKLkILja3yAu1GExiQb+yKxHR0oNfhbgS9RklC1JgR4EvgJcgbHiMHd3Z3k5GRSUlK+8TU8PNzWrtklLS0tnDp1ilOnTnHy5EmOHj1Kenr6cImGGIEXgf+H7Ct0ASk4lAqAJ1CEhreNfZHYH2dQhMeXKMcwImW4YcB/o/yuGcRdk9grer2epKQkZs6cyYwZM5g5cyYTJ04cNkcg9orRaOTQoUMcOHCAvXv3cvjwYVpbW23t1pVoQhEdL6KIkBHNSBYcY1Eu/vcim3FJBoaRr2cwbODrQXdXwwt4CvgpDthV1tPTE3d3d3x9fTEYDFc8BmhpacFkMtHa2kpvby9Go5Genp4h9NY6jBo1itmzZzNr1ixmzJjBtGnT8PaW9y/WxmQycfLkSfbv38+WLVvYtWsX7e3ttnarL+qAP6HkeIy03kEXGImCIxr4P5SKE72NfZEMX7pQjl3Wokyh7CsN3xklR+PXKEP3hg2urq5ER0cTFxdHTEwMUVFRhIeHExwcTHBwMCEhIQQHB+Pjc7VJ9Fenvb2dpqYmmpqaaGxspKmpibq6OioqKqiqqqKqqorKykoqKiooLS2lu9v21+vQ0FAWLFjAwoULWbhwIWPHjrW1SxKgs7OTnTt3snHjRjZt2kRBQYGtXbqUXOAxlHLaEcdIEhxBwC9RKgGGbSaWi4vLhQv++Q+Ai58HBwfj7u5+4e7Kz88PnU6Hp6cnrq6u36i/P3+XCUoWucViwWQy0dLScuHnDQ0NFx719fXf+HNDQwO1tbVUVVUNx+QuLTk/AGoNyvjrOuAalOQxu84H8vf3JyUlhfHjx5OcnExiYiKJiYlERESg19ufHjeZTJSXl1NcXHyh4iEvL4/c3Fxyc3Pp6rJOI0hvb28WL17MwoULWbRoEePHj0enG0mXz+FJbm4umzZtYsOGDezevRuTyWRrl87zCfBfjLC26SPhHeMMPAz8FqUqwO45n7WemJhIXFwc8fHxxMfHM3r0aIKD7a/PWHd3N+Xl5ZSVlVFSUnLh+dmzZykrK6OoqMiR6/CHDSEhIaSmpjJr1iymTZvGhAkTiIx0nJYyJpOJoqIisrOzyc7OJisri1OnTpGdna3q2GbMmDGsWLGCFStWMH/+fOH+FRLbUllZyUcffcQHH3xAWlqard0BaAP+gJLjYfuw3RDg6ILDru8yDQYDycnJTJw4keTk5AvP7VFUiFJbW0teXh55eXmcPn2a/Px88vLyKCgosNpd6UgnJiaGxYsXs2DBAmbPnk1cXJytXbIJnZ2dZGZmcuzYMU6cOHHFaofk5GS+853vcOutt5KUlGQDbyVDwenTp/nggw9YvXo1eXl5NncHeBSle6lD46iCIwilDvp+7OjvmJSUxKxZs5g1axapqakkJyfj7Oxsa7dsislk4uzZs+Tk5JCbm0tWVhbp6elkZmbaxVn9cMJgMLBkyRJuuOEGlixZQnx8vK1dslva2tpIS0tj7969HDlyhISEBJ5++mn8/f1t7ZpkiDl27Bhvv/0277zzjq1bt68BHgcqbOmENbGbD2ON0KG0hf4LiuiwKWPGjGHRokUXzn1DQ4dV3qBN6e3tJTc3l5MnT3Lq1ClOnDhBRkYG1dWyid/F+Pn5sWLFCm655RaWLl2KwSCrbSUSNRiNRt59911effVVMjMzbeVGC/ArlMi8ow2hdCjBMQ74BzDfVg44Ozszd+5cbrrpJlauXCnvMK1ARUUFaWlpHD58mEOHDnHs2DF7r8PXHDc3N5YuXcr999/PsmXLZG8HiURjdu7cyauvvsr69ett1WgsDfgu1mk8aDMcQXDoUcqM/ogN2pA7OzuzZMkS7rzzTpYvX05AQMBQuzCiMZlM5OTkcPjwYQ4fPsyBAwfIzs52yKqZSZMm8cADD3DXXXfJ3zOJZAgoLy/n9ddf57XXXqO+fsiHTncAv0Dp3eEQF7ThLjhGA28Ci4Z649mzZ3PXXXfx7W9/m5AQOdTTnqirq2Pfvn3s3r2bPXv2kJ6ebk/lcIPCxcWFW265hUceeYR58+bZ2h2JZETS2trKyy+/zAsvvEBd3ZCPSNkOfB8oHeqNtWY4C47voByhiHceGiA+Pj7cc889/OQnPyE5OXmotpUI0tLSwr59+9izZw/btm3j5MmTmM32fTzq7e3NQw89xKOPPkpERISt3ZEMQ1rauzC2d2Hs6MLY0Y2xU/na2a0cERg7urBYoKunl66e/o8NvD3c0Ol0ODvp8XBzwcvDFXdXF9xdnfE2uOHh6oKPwQ0/bw/0Dt6bxGg08uqrr/L8889TW1s7lFs3olSyvD+Um2rNcPztcAGeQ2kTPSSMHz+exx57jLvvvvtC0yzJ8KWuro6vvvqK7du3s337doqLi23t0gUCAwN57LHHePTRR2XFhOQyuntNVDW0UlXfSnWTkdomIw2t7TS0dFDX3EZjawf1LW20tA99qblep8Pf2wN/bw8CfAwEehvw9/Yg2M+LUYE+RAT5EBHki7dh2PZdvEBbWxuvvfYazz33HDU1NUO59RqUoY9Dfr6jBcNNcEQAHwJzh2Kz1NRUfvGLX7By5Uq77Loo0YbTp0+zZcsWNm7cyM6dO+nsHKrp9F8TGBjIk08+ycMPPyxF7Qinpb2Ls9WNlFQ3cra6ibLaZirrW6hsaKWuuc3W7gnj4+lOZJAPo4J8iQsPID4iiLGRQUQE+TLcAiTt7e289tpr/OUvfxlK4VEO3Iky1XpYMZz+e6ejzKyw+iznRYsW8fTTT7NgwQJrbyWxM9rb29mxYwdffvklGzdupKTEup2Hvby8ePLJJ3niiSfksK8RhslspqCigdNltRRU1HO6rJ6CynpqGkfmUFGDmwvxEUHERwQyLjqEyfGjiA0LGBYixGg08sorr/Dss8/S1DQk0+h7UQZCvsAwSigdBv+VACwDPsLKkzbnzp3L73//e6699lprbiMZRqSnp7Nu3TrWrVunaW2+q6srDz74IE8//bRDdpaVXE6TsYNj+eWkF1SSfbaa3JKaC/kUkr7x8XRn8phwJo0ZxaQx4YyPCcXV2cnWbvVLVVUV//u//8tbb701VHli61F6T9m0Y9lAGQ6C40coTVCs1pIzOTmZP/3pT6xYscJaW0gcgLy8PNatW8fatWs5duyYaju33norzz333IhtNT6SaTJ2sGb3KdbsSqehtcPW7gw7XJ2dGDc6hFnjopiXEsu40SF2mah64sQJHnroIQ4dOjQU2+UAq1BapNs19vc/9U3+D2W0t1WIjo7mmWee4d5775U5GpJBUVxcfEF8HDp0aEB3MwkJCbz00kvccMMNQ+Ch9pgtFpqMnTS1ttNo7KDJ2ElzWyfdPSa6enoxdnTR1WOis7vvQWnnqxyc9Ho83V3R63V4urvibXDDx+CGt4cbXue++nl5DItQulq6enr54kAO728/QWntkITgHRJ/bw/mTIjhmuTRpCZF4+PpbmuXLmCxWPjwww/5xS9+QWmp1StaG4E7sPOx9/b6lnYCXkWJbmiOq6srP/vZz3j66acdqhV0d6+JptYOekwmWtu7sACd3b309JjoNZlp71Jmk7S0d6HX6fDyUKZfujg74eGqdKt0d3XGxUUJWXp5uOJrcLerN7E9UlFRwSeffMJ7773HkSNHLvu5u7s7v/rVr3jyySftfuJoc1snp8vqOFvdSEV9CxV1LZTXt1DV0EpTawfmIWqo5qTXE+DtQZCvJ0G+ngT4GAj19yIiyIfwQB8ig3wJ8vO0y7vbwWC2WPjq+Bne+DKNgophWXhgN+j1OibFhXNNcgxLpicQEeRra5cAJb/j2Wef5YUXXqCjw6pRLRPwBPCSNTcRwR7frW7Ae8C3rGF84cKFvPLKK8NqEmR7V8+FTPW65jYaWjtobG2nrrmdxtZ2Gs6Vwhk7rDPsTKcDH4M7vp6K+PDxdLsgRPy8PAgP8CbE34tQfy/CArxxcxm5A+lyc3NZvXo177//PoWFhaSmpvLmm2/a5e9bS3sXmUVVFx65pbU0tLTb2q0B4+LsRHiANzFhAcSG+xMXHsDYqGDiwgNwGmYRS7PFwpYj+fzzi8My4qERKbFhLJ2ZyJJpCQT42P7GMj8/nx/+8Ifs2bPH2lu9CPwXdjiLxd4EhwH4DFistWEfHx9efPFF7r//fq1Na0Z3r4n80lryy+o4U15PQUU9xVUN1A+jDwEAPy8PRYD4eREa4MWoQF9Gh/oRE+ZPRJAvzk7D68NADRaLhYqKCsLDw+3muK6lrZMjeWUczinhxOkKiqsbcMAO8Li6OJEQEURiVDBJo5Vqh5jQ4VHt0NNrYv3+LP698YhDlMDaA3q9jlnjorlhxlgWThmDp7vtoowWi4XXX3+dp556ipaWFmtutRa4Bxj6Gv8rYE9vQauJjQULFvDWW28xevRorU0LUd3YyrH8crKKq8kqriavtJae3uHZgnugOOn1jAr0IfqcABkzKpCxkUHEhQfi6mK/2efDEYsFcs5Ws/NkAYdzS8k9WzNkRyL2ho+nOxPjwpgYF86UhAiSY0JxseNqh/auHj7ccZJ3tx2n1QZNvBwVNxdnrp0Ux7euTWFqgu06+JaVlfH973+fbdusmnKxH1gJNFhzk8FgL4LDAHyBxjNR3Nzc+OMf/8jjjz9uF3eZja0dHM0v40huKUfzyiipkaHT8zjp9cSE+RMfEUhiVDAJkUEkRgbbRSh0OGE2Wzh2upydJwrYlV4wYns6XA0PNxemxI9ixrgoZiRGMjYq2C7zQZqMHby15RhrdmVcsf24ZPAkRARx+4KJ3DgzEQ+3oZ+4bLFYeOmll3jqqaesmduRDVyP0izM5tjDO8wdRWxoGtmIjo7mk08+YcaMGVqaHTTFVY3syShkT0YRGYWVmM0j8w5TLWEB3qTEhpEcG8aEmFCSRoeM6ByR/jhTXs/Gw7lsOpxLrQzFD5oAHwNzk2OYmxJD6vjRGGzwAXQlqhpa+eeGw3xxMNshj8FsibfBjZtmJ/GtaycSHeI35PtnZ2dzzz33cOLECWttcRZYih2Mure14HAC1qGEfTRjyZIlrF69mqCgIC3NDpiz1Y1sTstjy9F8SqplFENLnPR64iMCSYkLIyU2jCkJEYwKHLL5fXZFe2c3Gw/n8dn+LHJKhnSeg0Pj4uzEtLERLJoSz4LJYwjw9rC1SxfIKKjk2Q92kl825BNLHR6dDlKTRnPvkqnMTIoa0r27urr4+c9/zssvv2ytLeqAG4Gj1tpgINhacLyKMohGM375y1/yzDPP4OQ0tOezja0dbErLZXNaHtln5cV/KAn192ba2AimJIxiSnwEMWGOPfSspLqJj3als+FgDm2d1qlMkijo9TqmJUSweFoCi6bE428H4sNkNvPRzgxe/+IQ7fL/3ypMHBPOD5fPZPb4oc37W7NmDQ888IC1EkpbgJsAq5fJ9IctBcdTwJ+0Mubs7Mw//vEPvv/972tlckCcPFPBmt0Z7DxRQLeDJ3wOFwJ8DExNiGDmuChmJUXZTT2+KBkFlby5+Qj7M4tlWN0GODvpmZUUzU2zk5g/Kc7mLbZrm9t44eM9bDtm9w0mhy0psWH8cPks5iQPnfAoKiriW9/6FsePH7eG+Q7gduBLaxi/GrYSHDejHKVosr+Xlxdr1qxh6dKlWpi7Kt29Jr48lMMHO9IplM167J7IYF9mjosidXw008dGDrtGZsfzy3l9wyGO59tF3pcEpSne9dPHsuqaCUyICbWpL4dzSvjzB7tkEroVmRATymO3XsO0sZFDsl9HRwcPPPAAq1evtob5bpSS2TXWMH4lbCE4xgJpgCa3nWFhYXz55ZdMnTpVC3NXpK2zm7V7Mln91QlZIz9M0et1JEWHMC8lljnJMSRFh9htf4b8sjpe/nQ/B7LO2toVyRVIjArmtvkpLJ2ZaLNk0+5eE298mcZbW47KxHQrsnhaAo/fNpewgKGZ7Pzcc8/xP//zP5hMmkfPTSgj7odUdAz1pdaAIjYmaGEsLCyMnTt3Mm7cOC3M9UtXTy9rdmXwn81HaW6zqz4qEkECfQxcc646YVZStE2bAp2nydjBq58dZP2+rBHbN2M4YnB3ZUVqEncvnmyzY7yMwkp+859tslupFXFzcebuxVP4wbIZQ1Ixt2XLFu644w6amzUfCNuLIjo+0dpwfwy14PgA+I4WhsLDw9mxY4fVxcbmtDxeXn+AqoZWq+4jsT2uzk7MTIpi0ZR4rp0Uh+8QH72YLRbW78vi1c8O0mSUk0SHK3q9jkVT4vnuDdNIig4Z8v07unp4ce0+1u09JXN9rEhYgDeP3nIN108fa/UoaVZWFsuWLaOkpERr0z0oomOt1ob7YigFxyNoNFRmKMRGUVUDf/5gF0fzyqy2h8R+cdLrmZYYwXVT4lk4Jd7qpZGFlQ088852MouqrLqPZGiZnhjJvUumMmdCzJAf3R3IOssz72yXx79WZnL8KH5x5wISIqzbhqGqqooVK1Zw7NgxrU13o4y336y14UsZqrfANOAAIByvDg8PZ+fOnSQmJop71Qed3b28sTGN97efcPg245Kr421w47XHb2Gcle5UTWYz72w9zr82HJZVTg5MfEQg9yyeyo2zEod0sFxLWyd/Wr1TVrJYGWcnPd9bOp0f3DjDqi3z29rauOOOO/jyS82LTNqB64BDWhu+mKEQHH7AcSBW1JC1IxuZRVX89u1tFFc1WsW+ZHjh5eHKqz+9hfFWqkIormrk1//ZIvu2jCCigv34yapUlkyzfhj+Yr44mMOfP9hJZ7dsj25N4kYF8vS915ESG2a1PXp6erj//vt5//33tTbdDMwDTmlt+DxDUUj+PjBH1Iivry87duxgwgRN8k2/Qa/JzL++PMz/vb2dxlZ5di5REgBfenQVyXHWuXB8fiCbn7/+JZX1MjdoJNHS3slXx8+w91QREUE+RAYPTXJpYlQwc1NiOZJbKhPfrUhjawdfHMymq8fElPhRVolmOTk5cfPNN1NfX8+RI0e0NO2O0rJiPWCVu25rC47vAv8jasTV1ZUvvviC1NRUDVz6JuV1zTz20mdsOZKPRWZYSQB3V2f+9shKJseP0tx2d4+J37y9jX9vPEKvyay5fcnwoK65jY2Hczl5poLYsACC/bysvmegj4HlqUkUVzfKKK4VsViUhpD7M88yOX6UVbrT6nQ6li1bhslkYs8eTRuHegMLgdWA5mOKrSk4ooHPUVSTanQ6HW+//TarVq3SxquL2HeqmEdf+ozyOqu0kZUMQ1ycnfjzj5aRmhStue3iqkZ++MInHJMNvCTnKK9rYf3+LIqrGkmJC7N6WbarixNLpo3Fw82Fo3ll8ibLitQ1t/H5gWy8DW5Waw63aNEiPDw82L59u5ZmQ4GZwIco/To0w1qCQ4fSSTRJ1NDvfvc7HnnkEXGPLsJssfDPDYf50+oddPXIRD2Jgk4Hv/3e9Vw3NV5z2ztOFPDTlz+jrrldc9uS4U9BRT2f7s3EzdWZ8TGh6K2Y4KHTwaQx4UxLiOBA1lk6unqsttdIx2Q2sz+zmNNldcweP9oqfTvmzp2Lr68vW7du1dJsLBAHfKqlUWsJjkeBh0SN3HzzzbzyyivoNHzztXf18OTrX7J+f5ZmNiWOwSM3z+H2aydqatNigX9sOMRfPtxFT688QpH0T4/JzMHsEnafLCQhMsjq3SzDA324cWYiJ85UUNskS2etSXFVI9uOnWbSmFEE+3lqbn/27NnWEB0TUZqDaXZmYw3BEYGiioRigwkJCWzcuBF3d+2aL9W3tPPI39Zz/LQMaUu+yco54/npbXM1tdnda+K3b2/j410ZmtqVODYNre18cTCbqoZWJo0Jx93Veu3SDe6uLJs1jrPVjRRVNlhtHwm0tnfx5aEc/L0NJI3Wvsw+NTXVGqJjIZB97iGMNQTHP1D6bqjGYDCwbds2oqO1O0c/W93Ig39dJ99UkstIjg3jzw8u0zSjvKW9i8df+Zy9GUWa2ZSMLPJKa/lsfzY+nm6Mi7LezB9nJz2LpybQ1dNLekGldTaRAGAyW9h7qoj6lnZSk6I1r2JJTU3Fz8+PzZs16+GlA5YDG4BqUWNaC46FwPOiRt544w2uv/56DdxRyC6u5sG/rpMd9ySXEehj4LXHb9F0gmxtcxs/fmGt7K8hEaarp5e9GUWkF1QwPTESLw83q+yj08GspGhC/Lw4kHVWzvCxMjlnaziaV8a8lFg8NB74l5qaiqurKzt27NDKpAuwFKVyRSgJTUvB4YJSlRIsYuS2227jD3/4gzYeAVnF1Tz8t09pbde8wkcyzHFxduJvj6xizKhAzWxW1LXwoxfWylHhEk0pr2vh8wPZhPh7kRBpvRba46JDmBgXzu6MQtn51spUNxrZcjSfWUnRBPgYNLU9b948jEYjBw8e1MqkP8rJxfuAajWqpeB4BLhPxEBYWBgbN27EYNDmH/9MeT0//utajB3dmtiTOBb/c9dCFkweo5m9kpomfvT/1spBfxKr0N1rYufJAgoq6pmRGGm13I6IYF/mT4xlf+ZZWjvkjZo1aevsZlNaHknRIZo3gVuyZAllZWWcOHFCK5OxKG0uVNfgaiU4PFFG3Ap1r3nvvfeYOnWqJg7VNBp58K/rZOdQSZ/cOi+ZH62YpZm98rpmHnxhHTVNRs1sSiR9UVTZwMbDecSEBRAd6meVPfy9DVw3NZ79WcU0GWVnUmvS02ti69F8gv08NZ3ZpNPpWL58OSdPniQvL08rs7OB3cBZNYu1Ehw/R5k2p5rvfve7PPXUU5o4Y+zo5icvrqO0plkTexLHYmxUMM89uFyzhK2aJiMP/XU9lfWygZxkaGjv6mHL0TzqmtuYlhhplYFhnh6uLJ42lrTcUupbZP8Ya2K2WNhzLsF82thIzezq9XpWrVrFV199RXm5JtWZOpRczX+jTJkdFFr8lvoBHwOq+7cGBgby2Wef4ekpXp/c02viZ69+QWaRcEKtxAFxdXHipUdXEeSrTS38eXErW0VLbEFOSQ27M4qYkRiFn5f2LbQ93Fy4fvpYTpypoLpRRu+szbH8cprbOpkzIUYhWyRkAAAgAElEQVSzqiQXFxdWrVrFp59+SkODJlWafkAASuXKoNDiFu/nKAklqvnd735HcLBQrukFXvp0P0fyyjSxJXE8Hrl5jmZJoj29Jp58fQNnyus1sSeRqKGwop77nv2I7VYaQe9tcOOVx25mZlKUVexLvslHO9P5zVtbMZu1qxQKDg5m06ZN+PlpdgT3I5Rx9oNCNMIRiNJvXXWTr+nTp/Paa6+h1yC8vfVoPi+u3SdsR+KYzEiM5Kk7F2l25/C7d79i18lCbYxJJAL09JrYfvwMxo4uZoyLQq/XtmmHi7MTS6aP5Ux5PWerZTTP2pwur6O4qpFFU+I167QdEBDAzJkzWb16NWazcNdjHcoo+3+idCMdEKKC42lUqJzz6HQ61q5dq0mDr8KKep54dYOcwCnpEx+DGy//9GbN+his/uokb285poktiUQrThVVcSSvlNkTRms+CM5Jr2fxtHhKqpsoqJBRPWtTWNmgueiIjY3VsjGYP0ozsLSBLhARHAEojUBUX8HvvvtuHnvsMQEXFNq7evjJi5/Kxl6Sfnn63sWajZs/klfGr/+zBdkbSWKPVDca2XQ4l6TRoYwK8tHUtl6nY+HkMRRXNVIouzZbncLKBs5WN7Fw8hjNRMesWbMoKSnh5MmTWpibCLzKAKMcIoLjf4HFahc7Ozuzdu1aAgICBFxQ+MuHuzmUUyJsR+KYLJ6WwI9Xpmpiq6K+hUf/vl5O2JTYNR3dvWxMy8Xfy8B4jUej63Q6Fk2Jp6CigaIqKTqsTUFFPfUt7cxNidXsOPjGG29k27ZtWlSu+ABVwJGBvFit4PACPkBpAqKKBx54gPvuE+oTBsD+zGJeXLtX2I7EMfF0d+XFR1ZqEl7u7O7l4b+vp7xWlltL7B+LBfZlFmPs6GZWUrSmU7d1Oh0LJseRX1onu+oOATklNfSYTMwcp03irpOTE0uXLuWtt96is1O4z8ok4GXgqq1p1QqOB4FbVK7F3d2dTz75BB8fsXBfS1snj730GW2d8m5T0jeP3nINqUniOUIWC/zmra2k5ZZq4JVEMnScKqoiv6yO+RNjNe3X4aTXs2hqPFnF1ZRJEW51Tp6pwNXZSbOjYR8fH0JDQ/nss8+ETQEVwNGrvVDNb58zSu6G6lLYRx55hG9/+9tql1/gmXe3k1FYJWxH4pgkRATx6/uuQ6/Bnd3Hu9J5d9txDbySSIaes9WNHMouYd7EWE2TSZ30ehZNiedkQQWV9bKlv7U5kldKVIgfCRHazNOZPHkyaWlpnDlzRtRUMkouxxWrNtTUot6K0lNdFZ6enpp0FD2YfZYtR/KF7UgcE50OfnHnAk26iRZWNvC3dbLcWjK8ySmp4bvPfqR53xh3V2defOgmJsaFa2pXcjkWCzzzznZNe0298cYbWjTdjAHuudqL1FyNn1Cx5gIPP/wwoaFiSUzdvSae+3C3kA2JY7M8NUmT0GNPr4mn39xCd4+cnCkZ/tQ0Gvn+c2tIy9H2aNDg7srfH11FkoazQCR9o3XDwVGjRvHwww9rYeqqJaeDFRxTAdXp/h4eHvz85z9Xu/wC7207LhOVJP3ibXDjp7fO1cTWPzccJq+0VhNbEok90N7ZzeOvfM7udG2b1nl5KKIjKtg6A+UkX2Ps6Oaxlz/TbMbNk08+iZeX0OxVgMnAhCu9YLCC4/vqfYF77rlHuIV5VUMrb24aUAWOZITyoxWz8PcWnytx8kwFb2+Vzb0kjkd3r4n//sdGNqVpNkUUAH9vD/7+2EpN3n+SK1PTaOTJf3xJT6949DUoKEirKMcVj1UGIzjcgTvVeqHT6Xj88cfVLr/A39ftp7N7wJ1UJSOM8ABvbpufImynvbOb37y1TdN5BhKJPWEym/nNf7ayds8pTe1GBfvx14duwt3VWVO7ksvJKKjkzx/u0sTWE088gYeHsFC8E6XteZ8MRnDcjNJdVBXLli1j/PjxapcDkF9ay7ZjMlFU0j8/uikVVw1K/57/eA/ldbLUT+LYmC0Wnv1gJ+9oHMlLjg3jjw8s1Xymi+Ry1u/L4uNd6cJ2QkNDefDBB0XNjAZm9vfDwQgOoeMULXI3Xvv8kGwnLemXuPAAls8aJ2zneH45XxzM1sAjicT+sViUyPE/NxzW1O78iXH89x0LNLUp6Zu/frKPk2cqhO387Gc/02KQ6vL+fjBQyxEIDGlLTk5mwYIFapcDkFVczd5TRUI2JI7NT1bNFr6j6jWZ+fOHu6SwlYw4/rnhsOYDCb91bQrfvWGapjYll9PTa+K3b28THrkQFRUl/FkNLO3vBwMVHLcO4rWXcf/996tdeoH3ZNMlyRVIjg1jwaQxwnY+2HFSTsKUjFhe+nQ/H+zQZKjXBR5eNYe5KTGa2pRcTlltM69+dlDYzl133SVqYhrQZ330YASHKlxdXbnnnqv2A7kiVQ2t7DhRIGRD4tg8tHK28GCjmiYj/9I4rCyRDDdeWLOHdXszNbOn1+v4/feXEhOmujm1ZIB8tDOd7OJqIRu333477u6qx6SBoiuW9PeDqxEMzFO78/LlywkJEWsG89HOdEzmK3ZMlYxgpidGMjNJfKjRX9fspV1OgZWMcCwW+NPqHWw4mKOZTS8PV1546Ca8PLRrqy65HLPFwj+/FLtp8vHxYdmyZaKuLOzrmwMRHDcjMMb+Bz/4gdqlALS2d7FWQ7UtcTx+fJP46PnDOSVsO3ZaA28kkuGPxaLMqtqToV1zsOgQP/74gxtl5YqV2Z9ZLNwYc/HixaJu9JnzORDBofo4JSwsjBtuuEHtcgA2peXR3tktZEPiuMxMihJuYW4ym3nuI9kqXyK5GLPZwi/f2ExmkXYDMuckj+aRm6/RzJ7kciwW2HQ4V8jGwoV9BigGQ8y5xze4muDwop/QyEC45ZZbcHYWa/7y+QFZnijpn/uWiGfAf7Y/m+KqRg28kUgci87uXp549QtKa7UbJXHf9VNZMi1BM3uSy9mcJtavaty4cYwaJTyL6rIox9UEx3WAm9rdbrvtNrVLAcgvqyO3pEbIhsRxSYwKJnV8tJCNrp5e3vgyTSOPJBLHo7G1g8f+/jmNrR2a2Xz63uuIDpUzV6xFaW2TcGRKgyjH7Eu/cTXBofo8JDAwkGuvvVbtcgA+P5AltF7i2Nx3vXh046OdGdQ0GTXwRiJxXEprm3ji1S80GythcHfl2QduxNVFvCuwpG9Ec9LmzJkj6sJlMyauJjhUp6quXLlS6Dilp9fEpsPaDhaSOA7hAd4snhYvZKOts5u3txzVyCOJxLHJLKril29s1my+0NioYH7+bbGbUkn/HMktFVo/ceJEURcmcInGuJLgSETpi66KW29VnWsKwN5TRTS3dQrZkDgu9yyZipNgC973th2Xv2MSySDYk1HIy+v3a2bv1nnJXD99rGb2JF9zpryeJqP6Y7CUFOEhmJ5A3MXfuNIVW3VdjMFgYMmSPvt+DJjtx84IrZc4Ln5eHqycIzYIsL2rhw93ig88kkhGGu9sPc6WI9oN0fzVPYsYHSqbgmmN2WLhWH656vW+vr5ER4vlyHHJsYpVBMf8+fNxc1Oda0p3r4n9mcWq10scm1vnJePh5iJkY+2eU7S2d2nkkUQysvjdu9vJ0Sih3+Duyh9+cAMuGkx5lnyTo3llQus1iHJ8Y5pmf4LDCYFyWNGmIYdzSmiTvTckfaDX6bhlXrKQjZ5ek+bzIiSSkURndy//9doGGjSqXBkXHcIPl/c71VyiEtFKleRksWstEHnxH/oTHDMBX7U7iAqOnXJuiqQfZk8YTXiAt5CNrUfzqWmUlSkSiQg1jUaefH0DPb0mTex974bpTBwTroktiUJhZYNQkm9SUpKoCwMSHIvUWg8ODhbKbjWZzexO166drsSxuG2+WIjPYkHzEdwSyUglvaBSsy69er2OZ753PQbB41LJ13T19Ao1bUtMTBR1wbqC47rrrkMnMLYzvaBSVg5I+iTE34trklUXTgHKnIHCygaNPJJIJOv2ZrIpTZsWBpHBvjxxu+pZoZI+ELnexcbGim5/VcGhB2aotX7ddX3ObBkwaYK1wxLH5eZrJgiXwq7+6oRG3kgkkvP86f0dmo0HuGVuMvMnCn/QSc5RWd+qem1ISAiurkITfkO4qFt5X1fvJED1IfmMGaq1CiAFh6RvnPR6br5mgpCNkpomjuTJ3y+JRGvau3p46l8bNetE+su7F+FjUF/pKPkakU7KOp2OiIgIURcuJOb0JThmqbXq5eUllNVq7OjWdDKhxHGYM2E0If5eQjY+3ZuJRZsmiRKJ5BLOlNfz/Mfa5HME+Xry2K1zNbE10hFNkI+MjLz6i65MyPknfQkO1bVJ06dPx8lJfS318dNlmrXNlTgWN84SS17q6TXxxcEcjbyRSCR9sX5fFhsFR6OfZ9U1E5ieKPxhN+KpblR/pAKaCI4LY2c1jXDMnClWR30oW4a7JZdjcHdl/sS4q7/wCuw4USDU5lcikQyMZ1fvpKRGfJy9Tgf/e88i3FzUz+SSQF1zu9B6DcbUB59/cqngMACqz0RmzVKtVQAlwiGRXMqCSXG4u4pddNbuOaWRNxKJ5Eq0d/Xw6/9s1SRaHRXsx49WiH2ujHREm2h6e4v1PeIKgiMJUH1lF4lwtHf1yHJFSZ8snSl2nFJc1ciJM+pnCkgkksGRWVTFm5uOaGLrniVTSIwKvvoLJX0iKjh8fHxEXbhg4FLBoXoiVkBAgNBZT1ZxtczfkFyGv7cHs5KihGx8fiBLJotKJEPMGxvTyD4rPm/FSa/nqbsWItDeaUTT02uiu0d9N1i7FBzjx4tN78w5Wy20XuKYXDc1Xqj3htliYcuR0xp6JJFIBkKvycxv/rOVrh7xUtmU2DCWpwq32R6xGAWiHNYUHKobHUyYINYj4VShLIeVXM4NM8SOU06erhDO0pZIJOooqmrg7+v2a2Lr0VuuwVv25lBFu4Dg0CCHw/4iHLL/huRSArw9mCQ4zGnzEW1aLkskEnV8vCudY/niBQGBPgYeXJGqgUcjD5GGbF5eYv2P6EdweACq+8mKCI6aJiO1zW2q10sck7kpsegFDm57ek1sP35GQ48kEslgsVjgD+/tEMojOM/tC1IYMypQA68kQ8iF5lwXC45E+h/mdlVEBMeZ8nrVayWOi+g8hYPZZ2mRgwAlEptTUtPEP788LGzHSa/n53dcq4FHkiHEcP7JxQIjRq01Pz8/oeYgRbIcVnIJbi7OzJ4gNhl2c1q+Rt5IJBJR3t16nLzSWmE7MxIjmZcih7sNhh6TeHRJAJfzTy4WHKqv7qL5G7L/huRSUsdHC3UY7OzuZU9GoYYeSSQSEUxmM7979ytMZrOwrUdvvUZ4cvRIoksgh8PFxeXqLxogF/+PRas1kpgoVkkgIxySSxE9TjmUfVazyZUSiUQbcktqeH/7SWE7ceEBrLpG7EZXMjAMBsPVXzRANIlwxMfHCzlRXCUFh+RrdDqYJzg7ZU9GkUbeSCQSLXnjy8NUNYiXqj94UyoGN+3uviXWRxPBER2tOjiCsaOblvYu1esljkdCZDAB3h6q15vNFvadkoJDIrFH2rt6eHHtPmE7gT4G7lkyVQOPHB+RWVStrdr1MdJEcIwerT65TwulK3EsUgVbmWcUVtLQKifDSiT2yvZjpzmaJ96b4+7FU/DxdNfAI8fGxdnp6i/qh56eHtHtL5QKnhcc7lw00W2wiAiOyoYW1WsljsmMcWKCY3e6TBaVSOydP3+wi16TWAKpp7sr98oox1XxdHdVvdZoNIpuf+EI47zgUF3T6uzsLFQSW1kvIxySr3F1dmJqQoSQDZm/IZHYP0VVDXy4QzyB9I6Fk4SOYEcCIhGOjg7haPGFD/nzgiNEraWIiAicndWfD1XJCIfkIiaNCRcqhy2pbuJsdaOGHkkkEmvxry/TaGhpF7JhcHPh3uunaeSRYyJyTe3uFhtvD1wwcF5wqB5YIXKcAjLCIfkmM5PUJyADHM4t0cgTiURibdo6u/nHBvEOpN9eMJFAH+3KNx0NDzf1gqOlRTgocGFuyXnBEarWUlhYmJAncoaK5GJmCuZvHM4p1cgTiUQyFKzfl0WRYGsENxdn7l86QyOPHAsnvV6oSVpXl3AV6YUzGeEjldBQ1VoFgCajrCaQKLi7OjMuWnXuMmazhaN5UnBIJMMJk9nMS+sOCNu5dV4yIX7Ck00dDl9PN6H1DQ3CfbIui3AEqLUUGCg2ua9ZDteSnCM5NkxIiWcWV2HsED5vlEgkQ8yejEKO55cL2XB1cZJ9OfpAtGxYA8FxwcD5q7vq28qAANVaBYsFmo1ScEgUJo1RnUoEwJFc8bp+iURiG15ctw+LRczGLXMn4OclK1YuxldQcNTWCg/c005wiBypNLd1YBb9DZM4DJPGqC+vBjicIxNGJZLhSnZxNbvSC4RseLi5cMfCSRp55BiICjANIhx155/Y9EhFHqdIzqPX6ZgYpz7C0dXTy6miKg09kkgkQ80/vjgkfBN6x4KJcsbKRYhGODQQHPXnn9j0SKVJHqdIzhEfEYiXh/pueFnF1fT0mjT0SCKRDDVnyuvZfuy0kA0fT3dunZ+ikUfDH3vM4QhSaykoSPVSmttkhYpEITlWrLz65JkKjTyRSCS25M1NR4RzOb6zcJJQAroj4WdnORzugOqOKT4+Pqq9aO8UHgojcRCSRquuzAYgvaBSI08kEoktOVNez75MsfEEYQHeLJoyRiOPhjdBvp6q1xqNRi1mqVxQLOcFh2rc3dUv7+zuFdla4kCMi1YvOMwWC6cKpeCQSByFtzYfFbZx+4KJGngy/AnxV9+bpKxMuPKvk0tmqagPUQBubuqbinT3SsEhUQYLxY9Sn3xcXNlAS7twNzyJRGInpBdUcvy0WF+OqQkRJEapbyToKIQKCI7ycrH/A+Abd4JCEQ5fX18hT+SRigQgflSg0DTDk/I4RSJxON7aIh7l+M6iyRp4MrwJFui+qkGEo+biP+gB1SEKkegGQGePjHBIxI5TADJlOaxE4nAczDpLYaVYhcSSaQl4G8Q+p4Yz3gY3oRJhDQTHN7L59YDqMIVI/gZAd48sY5SIJ4zmltRc/UUSiWRYYbHAJ7szhGy4uzqzdEaiRh4NP4IFEkYBKiqEq/8uO1JRLf9EKlQA2rvk3AuJ0oNDLV09vRRUCNeJSyQSO2TDwRxaBfOzbp2frJE3ww+RhFHQJMLxDQNCORw6nU7Iky5ZpSIB4sLVC47TZXWYzGYNvZFIJPZCe1cP6/dnCdlIiAhivGAUdbgSHiAWFDh79qyoC5cdqYh5JECPSX5QjHTCAryFOozmyOMUicShWbM7Q7jd+YrZSRp5M7yIDBYr7CgsLBR14bIIh1iYQiIRIC5cfWt8gJyzUnBIJI5MRV0LaTmlQjYWTxs7IjuPigiO6upqWltbr/7CK/ON/7iR9z8gsStE8jcAckuF2+5KJBI7Z93eTKH1Ad4ezJ4QrZE3w4coAcFx5swZLVy47EhFNaJlsRJJrED+hslspliwbE4ikdg/e08V0dAqNnvr+uljNfJm+CAS4dDgOKUJ+EZfdCHBIVoWK5GIHKmU1TbTLSfESiQOT0+viQ0Hc4RszE2OQa8fORkEAT4GDO7q8+NOnxab2sslxykgj1QkNiYmzF/12jPl9Rp6IpFI7JnNablC63083ZkYF66RN/aPaMJoQUGBqAuXGZCCQ2Izgn098RRQ4KJdCCUSyfAhv6xO+CZjbnKMNs4MA0aH+Amt1+BI5bIQibOINbNg/4ORE9yS9EWEoAIvrpKCQyKxR3Q68PPywODmeqG9tse5x6W0d3bTazbT2taFyWymrbOH5rYOjB2XN4bceDiXx269RrVfc1NieXn9AdXrhxNxAgMxAXJzxSJKwGWKRUhwiJbMeAr0X5AMf0YFirWAqahr0cgTiUQyWAzursSE+RMXHkBMqD/RoX4E+XoS5u9NgI8BZyexAHqvyUxzWyfNxg6ajJ00tXXi4ixmMz4ikLAAb6oahMs97R6R/Ljq6mqamppEXbiszMWZi2bVD5aeHrFpr6K/kJLhTUSQmOAoq2vWyBOJRHIl/L09SIkNZ9KYcJKiQ4gO9SMswNuqezo76Qn0MRDoY9DU7jXJMazdc0pTm/bIGIEIR06OWILuOS7L4XAGVJ+LtLe3C3nj7qp+ip1k+COS1NTe2U2jYJmctXBzcSYqxJcQfy8CvQ0E+3kR6GPAxdkJT3dXnPQ6XF2c6O4x0dndS3evCWNHF9WNRirrW6hqaKWsroX2TjlrSGIbnPR6piSMYm5yDNekxBAbJtagz55IiQ1zeMFhcHcl1F+9IMzKEmsnD/QAJZd+0xlQfZvY2dkp4hCuzk5C6yXDm1FB6gVHRb3tQ6I+nu6MjQxidKg/sWEBxIQpYeXwAB8ExwwBUNNkpLiykcziKrKKq8kqrqauuU3csETSDxPjwlkxO8mhx7onx4bZ2gWrExceIHQN0kBwFAGX9Sxw7uubA6WrS2yKnxQcI5sIgRyO8iE+TnHS65kQE0pKXBgTYkJJGh1CVLBYFvjVCPHzIsTPi5lJURe+V1LTxM4TBXx1/DTZsq27RANcnJ24cWYidy+eIhSGHy5Eh/jh6uzk0D18RP8fNRAceX1905lLOoENBqNR9VIADO7ySGWk4ursRLCf+tHJQyE4xkYGkTo+mmljI5mSEIGhjwz7oSY6xI/v3jCN794wjYq6FtbszmDd3kza5PGLZJC4ujhxy9xk7l0y1er5GPaEXq8jOtTPofv4jI0MElqvgeDo04AzoDpMYTKJKUS9TiaNjlRGBYkdO5TVal+h4ursxPRxkcxPiWNuSozdX4RHBfnw09vm8sDymazbm8nq7SeolUcukqvgpNez6prxPLBsJiH+6kX/cCY6xN+hBUdSdIjqtVVVVdTXC//bZPf1TWdAKBGjubkZX191Z/EiY8klw5tRghUqFfXaRDh0Opg8ZhQ3zhrH4qnx+HgOv3b9nu6u3LtkKt9eMJG1ezL5z+YjdptQK7Et08ZG8t/fuXZEHJ1cifBA+76ZEEGv15EgEOHIzu5TKwyWfiMcQqUmIqWx8khl5BIpkDAK4j04YsL8WTZrHEtnJgr3A7EX3Fycueu6ydw0O4mXPt3P+n1ZmC0WW7slsQM83V158o5rWTE7ydau2AV9NSBzFEaH+Av9/TQ4TjEDfdbVOqOUr6imvr6eoCB1asrfW9v6asnwQfRDvlyF4PB0d2XlnPEsSx0nFHK0d7wNbvzy7kWsnDOe37/3lUOHjiVXJyU2jN//4AYiBEW+I9HTK9Yl255JGi12bcvMzBR1oRDoM8TqDLSgKBJVCRUiZz2+wzB8LdEGkbPjJmMHXT29A359VLAfdyycxMo5SULTE4cbybFhvPWLO3jmne1sPZpva3ckNuD66WP57feWyIrAS6hpEit4sGcSo4KF1p84cULUhX7PZJwBC9AAqApT1NSoL82TgmPk4ufloXptc9vA0o5mJEZy53WTmZsSi16LxhjDEHdXZ/7wg6UkRAbx2mcH5RHLCOJ7S6fz8Ko5mvSEcTQq6x13LIKI4Ojt7eXUKeGmaP2eyZyfpVKPSsHR0KB+gJavpzsuzk70OHA9tKRvRNoV1zf3n3bkpNezbFYidy2eQkKEWGmYo6DTwf1LpxMR5MOv3tyC2SxFh6Pz/Rtn8NCq2bZ2w24xdoj1kLJXdDoxwZGVlSXc0BPI6O8H5wVHHZCoxnJlZaWaZRcI9feirFbOxBhpiOTvNBovPx7U63XcOHMcP1w+U6hluiNz/fSxAFJ0ODjfWzpdio2r4OzkmEdM0SH+Qh1ijx8/roUb/Ro5Lzhq1VouKbmsXfqgCPX3loJjhKHX6/DzUn+cVt/yda8JvU7HdVPjefCmVGLC/LVwz6G5fvpYunpMPPPONuTpiuNx56LJPHLzHFu7Yfe4uwoNSrdbJsaJtW3XIH+jlT6mxJ7n/L96mVrrpaWlapcCSoRDMrLw83QXyqlobO1Ap4N5KXH8ZFWqPDoZJDfNTqK1vYsX1uyxtSsSDVk8LYGf3T7fZvu3tndR22SkpqmNuuY26lvaaWnvpL2zh/auHrp6emlpvzxc72Nwx0mvw9PdFTcXZ9xdnfH1dMfPywNfL3d8Pd0J8/cm0NeAk142i7wSKXHhQuuPHTsm6sIJrjAQ9rzgUB2mEI1w2Hs3R4n2iJZD+3q68/Yv7mB8TKhGHo087rpuMk3GDt7cdMTWrkg0YMyoQH5z3+IhSxA1dnSTUVhJZlEVmUVV5JTUWL3ZnF6vI8jHk7BAb26YPpY7Fk6y6n7DEZHBdGazmYyMftMvBsoVz2TOCw7VYQrRCIcUHCMPkYRRgO8smqyRJ0NPd4+JzotKer3cXdHrbVNG8OOVqWQUVnI0T3WAU2IHuLo48eyPbrR6M6vCygb2nSpib0YR6YWVQ54HZDZbqGkyUtNkFG4c6IgY3FyIF+ggm5+fLzwfDTh5pR8KC46Wlhaamprw81M3OTMqxLoTNyX2h7+3+pJYe8bY0U1OSQ1FlQ2crW6ktqmN+pY2apvbaGhpp7O7794hOp1SJhzs60l4oA9jI4NIjg0jJTbMqq3W9Tod//e9Jdz5u9W0tDtm1v5I4IfLZxEbFmAV2w2tHWxOy+XzA9l21UDOU7CfjiNWqUyICRW6eTl06JAWbgwowiF0LpKfn8/MmTNVrY0OkUp1pCEa4bAHLBYoqqznaH4ZpwqryD5bQ0lNo6pETItFyUtpbO0gv6yO3emFgBJCnpYQwcIp8SycMoZgX0+N/xZK0vYv717EU//apLltifWJGxXIfddP1dxuaW0T/9l0lE1peXbZtsBTcA5Xe6dQg227RDR/QwPB0UE/Lc3Pc15wVAC9F/15UJw+fVq14Ajx88bg5kJ7l+P9Akj6ZrjOMahrbmPfqWLScks5ml9GQ4vQGKKrYjZbOJJXxpG8MkwnMZkAACAASURBVJ7/aDdzU2K59/qpTIkfpek+i6clMOdANgeyzmpqV2J9frIyVdNEys7uXv654TAf7Dhpl0LjPKIRjrbObo08sR9E8jdAE8GRgaIj+uW8wDAB5cBoNbvk5FxR1FwRnQ4iQ/zIL1VdmSsZZhjchk978TPl9ew4cYZ9p4rIKamxWSmp2WJhT0YhezIKWTRlDP/17fmE+muX//TwzXM4mH1WlsoOI5Jjw1gwaYxm9nJKavjVv7dwtrpRM5vWwlNw8Kej3eDqdMrMHLUYjUYtZqhcVbFcHNEoQaXgOHOm37LbARET6i8FxwhC9O7E2tQ0Gdmcls/Gwzl2dW59nh0nCjiUXcLPbp/PzXMnaGIzMSqY66ePZcsROXNluPDgTbM0q0r5YMdJ/rZ2H70mdUPN3F2dCfb1IsjXgIuLEy5OTpjNFlraO6lpNFLb3HZ1I4NA5Kalu9dk19EbNcSGBQjlxqWlpWEyCf+bDEpwFAPz1OwiEuEAGB0qE0dHEgbBuxNrYOzoZufJAjYeyuFYfrndzxxp7+rh9+99RX5ZLT+7fT7OTuJh9Z+snM1Xx8+o/tCRDB2T40cxe7yq+8NvYDZbeP7jPXy8K33Aa5z0eibEhDIzKYoJMaHERwQRfpVqw5a2To6dLmfniQK+On5mUMMX+0Ikh6PdAY9Tpo6NEFqvUcLooARHntpdzpw5g8ViQadSbkeHyg6RIwmDHeVwHD9dzie7T7E7vVD4ImgLPt6VQXFVIy88dJNw98TIYF9umj2eT/cJh1YlVuaexVM0sfP8x7v5eNfAei8kRgWz6prxXD997KCHL/p4urNw8hgWTh7D49+ax+ufH2TdXvW/Z6F+6htGNli5X4gtmJpgc8FRhRK0uCIXX6FOq92pvb2d0tJSoqOjVa2XLalHFrbO4ejuNbHtaD4f7Egnt0T9tGN7IS23lP/51yae+/Fy4UjH95fNYMOhHIcLOTsSYQHezJsYK2zn8wPZAxIbE2JC+eHyWVyTHKPJEU6Atwe/vHsRXh5uvLNVXWfLEIEO1XVN2h7v2AN2IDgODuRFFwuOXJHd8vLyVAuOaNmLY0ThYaMjlYbWDtbtOcWa3RnUW7nCpD+CfT2JDvUnwNvjwpClzu5epS10cxs1TUZV1S97TxXxzw2HhYd2hQd4s2jKGJnLYcesnDNeuDLlTHk9z36w84qvcXd15vHb5nHb/BSrdDC9f+l01uzOoGOQCZxOej0BAt2KqxpbVa+1R6JD/QgSKJk/ffo0tbXCOZQDUiwXC44zgAVQ9at1+vRplixZomYpnu6uBPt6ap5YJLFPPFyHVnCU1zXz741H2JyWR/cQ37kb3F2ZlxLD/IlxzBgXRcAAErsaWzs4XV5HekElaTklnCqqGlBexVtbjjJnwmgmC5bNrpozQQoOO+a6qfFC681mC8+8s43unv7fC24uzrz82M3Cv0tXwtvgxuhQ/0FHGQN9DUINrmodLMIxLSFSaP3u3bu1cGPQgqMdgUoV0cTRqFA/KTgkmlLd2Mq/Nx7h8wPZNkmEvHVeMg/fPAffQXYL9ff2YOa4KGaOi+KHy2fS3NbJtqOn2Xg4l4zCyn7Xmc0Wnn5zC6t/dZfQiOrp4yIZFeRDRV2LahsS6zA61J8xAu2rAT7ceZLss1f+kL/v+qlWFRsAPb0myusGPyk8RCB/A5QqNEdCNGF0zx7hIY7dQNpAXnhpXE71bY0WpbESiRa0tHXy/Me7ueXpd1i3N3PIxUaAtwe/vm8xv7x70aDFRl/4errzrWtTePO/b+fdX36H+RPj+n1tZUMrr30+oOPUftHrdKycPV7IhsQ6zEqKElrf02virc1Hr/q6oRiMtvNkAa0qWuqLCg5Hi3BMTRAThhpEOI4Dl48B7gPNBId4aawUHCMFg5X6cFgs8Nn+LG79zbt8uCN9yI9PzrP1uR+yco51PrCTokN44aEVPP/j5fj0E8VYtzeTstrB3zlezLJZ44TWS6yDaHLgtmOnr1ql4WNwG3QViho+2X1K1bqIIB+hfR0phyMy2FeoAWBRUZHwxHdgwIrlUsGhOnG0tLSUzs4BiZw+iZa9OEYMXoJzEPoir7SWHzy3ht+9+xVNRscre7uUBZPH8PoTt/bZ7KfXZObdbVecoXRVRgX5EBUs35P2hugxx4aDV78xbGnv4nR5ndA+V+Or42c4frpc1drIYLH5W+WCYtyemJWkrlDjPBocpwAM2MilgkN1aazZbOb0adXLGRMudi4pGT64uThpZquts5u/fLibe//04RXzGxyRsVHBvPr4LX3239icltfvdNqBMlMwfC/RFn9vD6FqhMbWDo7mlw3otW9vUVeuOhBqGo0895H6ML6IEG5oaXeoOSqigkOD4xQTsG+gL9YswgGQnZ2tem14oI/VQu0S+0KrYVNZxdXc/YcP+HhXOmaz/XQGLaxsGLK9EiKC+jxvb+vsZvsx9TcAIH4xk2hLbLjYCPq9p4oG/D7ZnJbHvlPFQvv1RWd3L//9z43UCRQIRAlEw0sdKLqh1+uYnmjzCpWTwICzyy+98pcywOSPPnc+eVLtUnQ6GBsZpHq9ZPjQI9iz32yx8Nbmo/zguTXCuQrW4OSZiiHdr78k0s/2ZwnZnZ4YKVR+KNEW0ShwWm7poF7/v//eTGZRldCeF2Ps6Oaxlz8Tsuni7CTUZbSstkn1WntjwujQfvO4BkJZWRmFhYWibgxKsVwqOMwIJI6mpw+8H39fSMExMujqFhMcj/xtPS+vP2C3Mz82p6meEqCK/mYRnSyoECo19zG4MX50qOr1Em0RjXAczx9czkRbZzcP/209u9OFP5Qoq23mR//vk0H7cCmRQb5CIvhsteMIjhnjxI48d+68cuO3ASIkOEBAcGRkDKwnf3/ER0jBMRKoFaiDb+vsHvSd2lBz4kw5WcXVQ7ZfVUPfWfcWCxwR/LeaGKd+5LVEW0Q6Mlc3tqrqP9HW2c3PX9/Asx/sVJWMbbZYWLM7gzt/v5r8MvFEVNGEUXuMiKoldbzYkefWrVtFXTADewezoC/Bofr2rLy8XKhFamJUsOq1kuFDo0AVyXCoobdY4I/v78BkHpoIzNaj/d8jHMoWK3mT70n7IewqE1mvhMidvcWilLDe8ut3+McXh/oVuBfT02vii4M5fPv/3uPPH+wadPvy/hCtZiytcYwIh8HNhYlx4arXWywWvvrqK1E3TgGNg1nQ13hJdcXR58jIyOC6665TtTYuPAC9XmdXCYAS7RHJErdGSa01yCut5fmP9vCLOxdYdZ+G1g4+P9B/qaNoNCgpOkRovUQ7RAaW1TSKd9dsbe/iX1+m8e+NR5g+LpK5yTHERwRd6Ith7OimuKqRY/ll7Mss1mTPSxGdu1XiIIJj6tgIoUGNmZmZVFYKV/UNWrH0JTjUZ36i5HGoFRwebi5EBftxtnpQokkyzDB2qBccnsOokmnN7gxiwvyt1rXRZDbzzDvbrhjqrmtuo6S6SfWd4egwf9xcnOnqESuxlYhhcHPB4KZ+BlFDq3bDCs0WC2k5paTlDP3RZrRAg8h6ByqJTU1SNYHkAtu3b9fCjUEb6UsinUGZq6IKmTgquRrGjsG3Mz6Ph5uLZmW1Q8HzH+/mwx1i74m+MJst/Po/WwdUuphbOrjhWBfjpNeTIN+TNsdDQGyAWFTRnogOUZ/D4SjRDYC5KTFC67dt2ybqQheDTBiFvgWHCchU64Vo4qi8uDk+IhEOGD7HKqCcfz//8W7+8cWAhikOiO5eE795a+uAJ7rmXGVQ19UYFy3zOGyNaGSvvVObHApb4u7qTIif+jyWEgeJnMeE+Qslz3Z1df1/9s47PMoy68P3THrvgQRCSUKAkBB6k16kKIiI2BYLtl2xrN217bq7KLp21/YprigoCFiQ3ntv0gmhJoSSEFJIT2a+PwKKSEne80ym5Lmvi0tJ8pz3hEneOe8pv6NCf2MNBhITl3tUNPxItmvXLsrLjf9wJzTUNzdXR/q05e9jfPbcXnw2ewNPfjzrqnssrkbm6XweeGsGc2swersvw3gjN0CLGN3HYW88heq8Uu0bRyAmIhiTQBbGVTIc3ZObis6vXbuWoiJxic1QiuRSPRwAhtMU5eXl7N69m5QUY3VrXVJxfQqFGQ4/b1l62V4s/+UgOw4e577rOnPDNYl4eVzu1++PFJWWM3nRVr6ct6nG/RT7jsoCjgQ9qaJxAKQTKkddRIOje1IT0XkF47CgOOAQN44aDTgiQ/wJ9PMmv9D4IjiNYyPNcDhT4+jF5BQU88aUZXw+ez3DuyfROyWWFo0iLylmVFJWwZb9x1i4KZXFW9IoMjhamFdYQubpfKLDjG3ZjG8Qhrub2WGF1jR1Az2hUlVOli7wmz9/vtSN01StpK8xV8pwWAFDCSxp42jzhuFs3Fe9JUMa50MccDhRD8flyCko5ou5G/li7kb8vD1JiYvC19sTb093ysorSTuWzZGTucq0PPYezTIccHi6uxEXHca+dFmmRGMc6SI+T/fqZ9McFcmEisVqJd0FZM27JDYWjcNmZmaydetWqRuLqRL9qjGX+ynMBw4DhopF0oCjmQ44XJq6nOG4FIUlZazZdcSm10jNyKJv2zjD55vHROiAw47kFxmf7AII8vNW5In9iBE0Sp48c5aycufvY5GWU+bMmYPVKta5MjxTe6VQyXBZRT6pomvGroy8h8O1Ao7aYO9RPanizOQXlogEEV0i4BCUVNJdoH/DbDLRTRhwzJ49W4UrhmsyVwo4DEcNWVlZHDtmfEmPvrm5NoWlsoDDVwccNWavsHFUT6rYn/wi431tQf7OHXD4eXsSFuhr+LwrlFMSm9QjNMDH8PnS0lIVgl87AcP7Eq4UcIjqIpIsR1xUmFjoRuO4SDUBJIqLdZXsvEKyBZtj4/X0mN3JLzReVgnyde6AQ5LdANdoGO3ZWjYOu3z5cs6eFcvNizpObRZwSPo4zGaT3uHgwhTpHg67kJpufFunr5cHkcHGd3lo5OQJMhwBfs6nXXMhksV1AMey8xV5Yj/6CHqwQFk5Za7k8JUCjkPA1dcCXoZt20STtSQ2qSc6r3FcyipkzVs10a/Q/MYeYR9HQ4GstEZOloH18udx9mBR6v8pwb+dI9CkfghN64eKbCgIOM4CqyQGrhRwWBFkOaSNo0k64HBpJPLmvk4q/GVvpFMmTQRjiRo5khXzYYG+Tp0ZjAj2E523xeba2qRPG1l2IzU1lQMHDkjdWETVDhXDXG2g13DAkZqaKqoX6QyHayPRl3Cm5W2OhHQLs7SOrpEhff2a1HfegLFeiPEMR0WlhZx8ddty7UFvYcChqJwiNnK1O7fhNEVlZSWbNm0yepzosEBCBB25Gsem2KBqJugeDqOkZ+ViEczgO/MblisgleaWKnXakwhBSeV0fqHo597eRAb7k9hY9gD+ww8/SN2wAnOkRq4WcIgkyTZu3Cg5TlKT+qLzGsdFIsIjUdqry5SVV3JSkFp25jcsV+CwMMMR38B5J43qCQIOyc+8I9C7TZxoad2pU6dYvXq11I2tQKbUyNXu3DsAw8X2DRs2GD0K6LKKKyNpHPX21E2jRjl8Isfw2QbhQbqcZUfyC0s4I9g27Mz300hBSSUr1/g4uCPQu02s6PzMmTOxyFckKKnJXO3uUYKgrCINOFo58S+I5soUCcS/vHTAYZh0gR6Bu5vZ8D4WjRokfRytmtS75JJAR8fD3U30kHHaifs3Av28adesgciGgnIK1FLAAbDeqPGjR49y4sQJo8f1pIoLI9k86uHmptCTusXhE8I+AOGKcI2MwyeMBxy+Xh7ER4cp9KZ28BcuazxbLNtDY096p8SKSsj5+fksXrxY6sYpQNYfcY7qfCfGOz+R9XEE+nkTE6FvcK6IRG3UFbbF2osMocRzYz0aa1cOCUpiAElNna8vzt9bJlrmzAHHtR0SROfnzp1Laan4+5+Lwe2wF2PTDAeo6OPQiqOa3+N8SWHHQdp42FhnOOyKVEslOTZKkSe1hzzDIVM2thfB/j50bNFQZENROWWWCiNQvYBjH1Xr6g2xfr0oXqGVnlTRaJRxIqeAckHDbkPBinCNnN2HT4q2xqbE6YDDWejbNk7UpF1aWsrcuSIlcoBiYJ7UyHmq891YEJRVNm/ejFUwA637ODQadVgsVtEiq3ohsp0WGhlFpeWkZZ42fL5RZDBRwr0ktU2Ab90sqfRv30x0fvHixeTni3fILKRK0lwJ1Q2fDNdFcnJySEtLM3qc5o0i9CieC1JRKdunojGOJOAID5JJTGvk7DxkvBEfoGurxoo8qR38faQBh/NlOEIDfemQICunTJs2TYUrP6owch6bBxwgK6t4ebjTTK/GdjlKyioMn/V011MqEtJP5Rk+6+/jiY+X3mVjT3YcPC463yWxkSJPagdPD9nvu2QE3170axsvGmEuLS3lxx/FsUIl8LPUyIVUN+AQjcRIJM4BEhvrxlHNb3jqbbEisvNkGdIIneWwK9sPyjIcHZvHOKUeR11iQAdZOWXBggXk5som0oCVQLbUyIVUN+DIQCBrKm0cdcZRLo3GUZEqL+qyin05euqMSHE0wNdL31MdmIggP9rER4tsTJ06VYUrSkZcLqQmzRGGo4Zt27ZRVmY8raUVRzUadUiVF8MCfRV5ojGC1Qrr9xwV2eia6Fx9HHWJAR2aYRYsTykpKWHmzJlSN6wo7t+AmgUchusiJSUl7Nixw+hxmtYPxVfXjTUaJUgzHBHBOsNhb9YJA44eyU3UOOIEFAk2U9uDwZ1biM7PmTOHgoICqRtbANkP2SWoScAhahyVCICZzSadAtRoFHEqV9jDIdjcqVHDut1HkWxcb9EokujwurEXR6JbUtvERoXSspGsZ9FRyylQs4BjIwJ5U6niqDMK1mg0jkhpeYVoVFCXVOxPdl4haZmyfr5+beMVeePYSKdcahNpdqOoqIjZs5XsWftOhZGLqUnAkQfsN3ohyU4VgJQ4WRONxrEwCWqUClYt13lO5xsvq+imUcdg7S5ZxrtvO+cIOMrKZZo9fl7OsXvJbDIxqFNzkY3Zs2dTWCgrmVJVTjH8Xn8laqqoZbhxdM+ePaK6UlLT+nqUy4Xw8zZ+E3C2mqwjckrQx6F7OByDdXuOiM4nNalPZIjjl8cKS2Q6Gr6Ce01t0qZZtFgF9ptvvlHhik2yG1DzgMNwXcRisYiyHP4+nk65WlmjcUSyBH0cEUGO/yZVF9iSeoyCIuOy3SaTc5RVioUPGM4ycDCkk6yckpOTw5w5c6RuWHGggENUF1m7dq3kuC6ruBA+XsbFu6RPPBrIPVti+Ky/jyfubnrdgL2pqLSwYvtBkQ1nKKtIf9/9hMvfagNPDzf6CV+L7777TiQ/cY6NwCGpkctR07vGNsDwd7R69WqjRwForRtHXQbJfhxJd76mipIy2VOjljd3DBZvOSA63yYumugwx55WEQccTlBS6dk6VrykbtKkSSpcUTLicjlqetcvA7YavdjatWtFDX96UsV1kOxDkb5ZauR9MM5wE68LrNtzhCLBG7LJBIM7yxoVbU1BkesHHEOEr8HBgwdZs2aN1A0roGTj2+Uw8phpOE2Rm5vLrl27jB4nOiyQSK0B4BJI9qFUVOopFSmFwg2azlIXd3XKyitZtfOwyMb1XVsiGBqzOWfOurYybmiAD91aNRHZmDRpElZ56nctkC41ciVqNeAAxFGYLqu4BpKJIx1wyCkWZom8dcDhMCzanCY6HxMRTHKs495Xy8orRWWVkAAfhd6o57ouLcU9UYrKKTZrFj2Pke9SFDGsWrVKclyXVVwEyROyZLW9pgpp57+Ppw44HIW1u4+IX8/ru7RU5I1tkOz/cfQMx7BrEkXn169fz/79YtmMSmzcvwHGAo4TgOGQWprhaNesgei8xvmxortGpUgzHJIpI41aikvLWbpN1jzav30zh1bklGzHDfZ33AxH69gomtYPFdlQlN1YSNV7u00xmscxHDUcPHiQEyeMf1/NGoTj7wRjTporI2nkkvYfaKCoRBZw+PvIOuo1apm1bo/ofKCvF/3bNVPkjXpcNcMxrJssu1FWVqZqd4qSqOVq1HrAAbKyitlsok281uNwdrTSqH2RTDaALqk4Gpv2ZnDyjGxD6IgeSYq8UU+OIOAI9vcRrXu3FT5eHlzbQRbkzZ49m6ysLKkrZ7HBKvpLYTTgEDVi6LJK3cbX21PUNHq22Li6oqaK4lJZH4wuqTgWFquVOev3iWy0iY8mzkHVnCUbjt3dzIQ6YJajf7t4sez6hAkTVLjyAyBewFIdjAYce4AzRi8qFQBrqwMOpyZIKHAjUcnUVFFeKVuIJRlr1tiGOev2im3c1DNZgSfqkQQcgEPujLnhmlai85mZmcyfP1+FK7VSTgHjAYcFWGf0olu2bBFttGvZKFIrHToxAX7eovM6w6HR/JFDJ3LYffikyMaQzi0c8t566ows4KjvYAFHo3rB4lUdX331FRUV4om9TGCx1Eh1kQz/Gi6rVFRUiLIc7m5mkmPrGz6vsS+BwgxHvmBhlUbjykibR/19PLm2Q4Iib9RxQtif4mgZjmFdE0Via1arlS+++EKFK99SNRJbK0gCDlFdZMWKFZLjtG/WUHReYz8ChBMOkg2ZGo0rM3fDPrFOzajerRV5ow5phiMyWLb2XSUe7m4ME5ZTVq1apUJ7A2qxnAKygGM9YPjOLw042jbTkyrOinRJUUGR7uGQIu3al065aGxDQVEpCzalimw0j4mgfYJjPdCVlFWQX2j8976eA2U4+rSJI1SofqqoWXQHVQtZaw1JwFECbDB6eMOGDZSUGP8BSmpS36GFajSXRxpw6JKKHF9vWZ3eolf2OiwzVuwQ23DELMeJHONllfqhjpPhGClszC0oKGD69OkqXPmfCiM1QSbgDobTFKWlpaxbZ7jvFE8PN5Ka6D4OZyTQV9Y0qksqGs3l2XX4JHuPnhLZ6N0m1qHepEHWx1E/1DEyHE3rh4qnLKdMmSIaujhHGbVcTgE7BhwAK1euFF28XYIej3VG5CUVHXBoNFfi+5U7RefdzGZu6ZOiyBs1SDIcEUH+uJmlb3dyRvRMEm/m/fzzz1W4MhMQK4bVFOkrsBow3KG0fPly0cU7NnesOqOmekimVM4Wl+l0vkZzFeZt2Cfusxl+TSvRkkXVnMgx3jhqNpuIDPZT6E3N8fJwFy/J27ZtGxs2GO5kuJBaL6eAPOAoBDYbPbx27VrKy43LVCfHRuGlBYicjtAA46p/ksYxzW+YhU97FZUWRZ5obEFRaTk/r5WNyAb4ejFUuOtDJZIMB0A9O5eIBnZMEGd3P/nkExWuHAOUKIbVFBU5JsNllaKiIjZt2mT4wp7ubqTE63X1zkZ4kCDg0BMqShBroRTqspajM2XJL+Js4O392jhEKQLkWhz27klR0Sw6efJkFa5MpBa1Ny5ExU+SqC4iLat0cLDxLc3VCQ8yntrMEayp1vyGvHFXB36OTnpWLut2HxXZaBAeRP/28Yo8kiHNcNgz4GjZKJLEJvVENiZNmsTZszI9EsAKKFEMM4KKgGM1VVLnhpDqcXRsESM6r6ldPD3cCBRIm2fn1cqOIZcn0E+PJtcFvl0sl1m469r24kZHFWTnFYpKefVD7BdwqNhRo6icsgI4oMKQEVQEHLnAL0YPr1ixQtTHkdg4UrTqXFO7RATJxtOycnXAoQJpSSVP99I4Bev2HOHg8RyRjYSYCLq0bKzII+NYLFayBA8c9spwBPv7MLhzc5GNNWvWsH37dhXuKFEMM4qq4pzh+dbCwkLWr19v+MJuZrNeV+9ERAg7xXWGQw3B/jKlQ9286xxYrWqyHHcPaq/AGznOKP41okeSeLhBUXYjF1CiGGYUVQHHEsnhpUuXii7eQY/HOg0Rgv4N0AGHKiTd8uUVlRSVGs9KamqXOev3kntW1vvUPqEhSU3tL7QoCTjsIW/uZjYzokeSyEZ2djbTpk1T4c5EwK5NcKoCjuUIul4XL5Ztx9V9HM5DVFig6PypXHHTlAZZ06gWXnMuSssr+G6ZPB1/z6AOCryRIQk4Any9ar383rdtnDizMnHiRNEakHNYgU+lRqSoCjhyga1GD69bt47iYuOBV3yDMHGKWFM7RAsDDkkNV/MbksZd3TDqfHy3bLs4K9WzdSzNYyIUeWSMLOEDR2Rw7WY5bu3bRnTeYrGobBaVCbMoQOWAteGySmlpKatXG992bzaZaK9lzp0CScBRXlFJtm4aVUKYYFvl6Xz9GjgbuWeLmbl6t8iGyQQPXN9ZkUfGkJZUpT1kNaF5TAQpcTKdqJ9//pm0tDQV7iiJWqQ4RMAB8j6Ozi0bic5raoeocOPpxRNnCrSsuSIaRAQZPpuRlafQE01tMWnRFiotMoXYnq1jadEoUpFHNUc6pSbRAKopt/eTZTcAPv74YwWecAr4XoUhKSoDjlVUbaAzxJIloniFLjrgcAokGY7M7HyFntRdIoL8RF3zx/Tr4JScyClg3oZ9IhsmE9x/XSdFHtWc0/lFovNhgcZVjmtCaIAP13ZIENnYvXs3CxYsUOHOFwjem1WiMuAoBAxvldm4cSP5+cZvZNHhgcREBBs+r7E9YYG+oje6zNP6jU4FUeGyPhr9OjgvExdsQZoktGeWw1lKKjf2SMLD3U1k47333sMqz+hagP+TGlGFapF8w2mKyspKsepol0Sd5XBkpN3ax0/LpI01VTQMN15OATimSypOy8HM06zYflBkw55ZjrKKSpHoXG2UVDzc3bi5V2uRjdzcXL755hsV7swHDqkwpALVAYdovlVcVtEBh0NTTygtrJ+s1RAtzHAc06+DU/PZ7A1OneXIKTBeVpFsqq4u13dpKQ5sPv/8cxV7U8BBmkXPozrgWI9AWGTRokWii3do3hB3N8fYbKj5I/VDZSNpJ4XLmzRVNIo0XnosLi0nV5AGwQAAIABJREFUR1hH19iXvUdPKclyPHC9fbIceWeNZzgk4+DVwWSC24TNopWVlXzwwQcq3DkKzFJhSBWq351LqWoeNcSOHTvIzMw0fHE/b0+HUMPTXBrpDPzJM1r0SwUJDY1rKeiGUdfg/2atF2c5eiTbJ8uRL9hUHGzjgKNHciyxUaEiG7NmzeLoUdmW33N8gGCxqi2wRTpAVFaRZjm6Jtp/yZDm0oQKOsQtVqtWGVWAl4c7TaNCDJ8/eipXoTcae7EvPctpsxz5hcaF5ySS/tXhjv7yUdh3331XgSecBT5XYUgltgg4RBHD/PnzRRfv1FLLnDsqQYKni5z8ItFqak0VcQ3CcDMb/7U/fEK2eVTjODhrlkOidOvj5SGeHrkcSU3r0z5Bttdr69atLFu2TIU7k6lSAHcobBFwbAWyjB5etGiRaBSoVeN6Nq/TaYwh2WOQU2DXnUMuQwuhNPWBzNOKPNHYG1VZjj8P7aLIo+pRICipgO2yHHf0byu28cYbbyjwBCvwvgpDqrFFwGFBkOU4deoU27YZX6dsNpvoqLfHOiT+PsZ/0QtLHEK3xulp2Vj2NLov3fCzhMYB+VRBlqN7chPaxEercagaSHf5BNog4GgYEUTftnEiG0ePHmX6dCXb4xcAMh17G2GrkY6FksNSdTU9HuuY+PkYz3CcLdYLw1TQUpD+Liot5+hJh8vSagSkKshyADxy4zUKvKkexcIldJ4C8cHLcVvfNqJSJcDbb79NRUWFCnc+UmHEFtgq4BBFDNKAQzeOOib+gpJKYbHOcEgJ8PUSTajsz8jWu2xcEBVZjpS4KHq2jlXj0FUoq6gUnff18lDkSRXB/j4M7ZYospGbm8uECRNUuJOGg43CXoitAo5jwC6jh1evXk1RkfFZ//qhAcQ3CDN8XmMbTCaTvV2o07Rr1gCz2fhrsPfoKYXeaBwFVVmOscO7Yq6F33GLxbGC3lG9W4uDmE8++USV0Nf7ONgo7IXYUiXLcJqitLSU5cuXiy7ePbmp6LxG42p0bC6b4NL9G66LiixHXHQY13VpocahK1BUKst2+gtKuxfj6+3JrX1lo7BlZWW8/76SHs+zwNcqDNkKWwYcdu3j6J7URHReo3E1OgibqXWGw3VJTc9i6bYDYjsPDO2Cp43GTh2RkT2TxU2okydP5vjx4yrc+RQHHIW9EFsGHMuoUh41xMKFoniF5Nj6SiNZjcaZCQ3wIS7aeJmxuLScA5lag8OV+einNVRaZNn4qNAARgoXl12Ns8J+Lh9PNT0cXh7u4lFYq9XKm2++qcKdChx0FPZCbBlwFCOQOd+1a5dI3tXNbKaLbh51KCSpUG9P9Z3ldYkOzWOQlNe3pmWK34w0js3hE2eYtXaP2M6YwR1Emju2xk3Rvq0brkkkTKCeDDB37lx271YywTqFqt0pDo2tN52J0hSzZ88WXVyXVRyLohLj42y+DnwDcwa6tZIF35v2ZSjyROPIfDprPaXlstHMYH8fRg9op8ijP+LpISvZlJbJR0893N2489r2Yjuvvvqq2MY53lZlyJbYOuAQ6ZRLA45uSU1qpWtaUz0k4l2Skdq6jrubmZ6tZU3Um/alK/JG48icOnOWqUu3i+3c0b+taHfSlZD2iJRXysZqAQZ3ak790ACRjeXLl7N69WqxL1Q92G9VYcjW2Drg+AUwvP51yZIllJYaF3wKDfAhsUk9w+c1apEEHDrDYZx2zRqI5P4LikrZqydU6gxfzt8kVvP08fLg/utss9jNw00YcFTISoNmk4m7B3YQ2QAYN26c2MY53lJlyNbYOuCwIiirFBcXi8djpalkjTpO5xvXVpHWSusyvdvIBJm2ph1zOO0Dje3ILyzhqwWbxXZG9EiicT3jm4kvh5ewn0taMrq2YwKN6gWLbGzcuFE8GHGOXxAKbdYmtg44AER1EXFZRQccDkNWbqHhswG+XvgoVgisC5hM0DtFtuNhw15dTqlrTFmyjaw847+vUNW4/9hN6iXPpRLilYKt02azSUnmRmF2422qHuydgtoIOBYDhotm0oAjsUk9QgN8RDY0ajiVWyA6HxHsp8iTukNi43pEhviLbKzcfliNMxqnoaSsgs9mrRfb6dk6lnYJDRR49Bs+XrIMR3GZ8eb1QR2bi7M2O3bsYObMmSIb58igajrFaaiNgCMHWGv08IEDB9i7d6/hi5tNJq066iCcOiOT7pU2adVFBneSKT+mZmRzLDtPkTcaZ+Kn1bs5ekquI/XXEd1FI9kXE+Ive4AsLjVWUnEzm7lviDy7MX78eKxqdhK9CzjVkqnaCDhAWFaZO3eu6OLSDn2NGtJPyd64Gkeqrwe7Mu5uZgZ2TBDZWKZAfVLjnFRaLHz44xqxncQm9RjYsbkCj6oICZD1c2UbLBUN6dxc3LuRlpbGd999J7JxjhyqlEWdCqcIOObNmye6eNdWjfGywUpiTc04cuqMaNuoRCmzLtKtVRNChOVEHXDUbZZsTWPX4ZNiO2OHdxPrZ5wnPMh4wFFYUmaoadTNbOY+Bb0b48ePV7WC/n2qdqc4FbUVcOxAMB67fPly0SY9Lw93uiQ2Mnxeo4ay8kqOn843fL5VUz3iXBOu7yorpxzLziM1I1uRNxpnxGqFd6evFNuJCg3g1j4pCjyC8EDjvVyn84xNyl3ftSUNwoMMXxcgPT2dr79WslutACeQMb8UtRVwAMwxerC0tJRFixaJLt4rRTYaqFHDwePG93EkNAzXEufVJNDPmx7C3qVl2+QryzXOz9a0TCWZrnsGdSRIoAdznpBA41m77Pyal1Pc3czcO7ij4Wue54033qCsTEnLxUfAGRWGapvaDDhEZZWff/5ZdPHuyU216qgDcEgQcLiZzSQ21lmO6jCkc3M8hIqMczfsU+SNxtl5/4fVVAjGSaFqtF1FWSIiyPjU1ZmC4hqfGdo1kejwQMPXBMjMzGTChAkiG+coBt5RYcge1GbAsQjB9thZs2ZhESyPCg3woXVclOHzGjVIMhyAfg2rgckEN/VMFtk4mHlar6PX/MrRk7l8v3KH2M7Insk0jDBemgjy8xZlOWuqBeTp7saYIfLsxvjx4ykurnmwcwm+AORNNXaiNgOOs4Bh2dBTp06xZo2sY1qXVezPgWOnRec7t9S9OFejfUJDmtYPFdmYtc74KLrGNfls9gbRegKoWnr28PBuhs/HNZA1jh8+WbMHnpt6JhMlHMc/duwYn332mcjGOcqAN1QYshe1GXAAiMZNfvrpJ9HFe7XWAYe9Sc3IpkSwrTElLgpfrTh6RUYKsxsWi5W563XAofk9ZwqK+XLeJrGdfu2akdy0vqGzcVGygKMmDzx+3p6MUdC78dprr1FSUiK2A0zCCVbQX4naDjhEghpSdbZG9YJpUl9rOdiTSouF3UeMZwQ93d2UKxe6EuFBfvRuI5MyX7/3qFjWWuOaTF68lRM5MsVgkwn+OrKHobPS0fgDNSjp/mlAO/FYeXp6Op9//rnIxjkqgfEqDNmT2g449gKG251TU1NFqqOA+GaskbPz0AnReen0hSszsmcy7m6yX+vZupyiuQxl5ZV89JNh4ehfSYmLoo+Be3G8oKSSnVdIfmH1Mg2hAT7c0a+N4WudZ9y4caKN5xfwHbBfhSF7UtsBBwinVX788UfRxXUfh/3ZlnZcdL5PmzjMZj1xdDFeHu6M7CUrp5wpKGbxljRFHmlckXkb9ilpKH74xm41WsTm7mamRaNIw9c7kFn9cso9gzvi6+1p+FoAhw8f5n//+5/IxjkswL9UGLI39gg4RHURaR9Hqyb1iAyWLbPSyNi0L100Yhca6EuHhIYKPXINhnRuQbBwz8RPq3dRXmF416KmDmCxWnn/+9ViO43rhTCiR1K1v75Fo0jRhMqBzOqVU6LDA8VTXgCvvvqqKt2N74A9KgzZG3sEHCsAwxuBNmzYwIkTxlPyZpOJvu10WcWeFJWWs/2ALMvRv30zRd64BiYT3CZMAVusVr5fuVORRxpXZsPedFbvPCy2c8/gDtWWPG8bHy26VnUzHH8e2gVPoYbNoUOH+PLLL0U2zmEB/q3CkCNgj4CjHIHqqMViYdasWSIH+rXTb1b2Zs3uI6Lz/dvF6/04F9ClZWNio2SjsGt2HiFTID2vqVu89/1qLBbZ1tPIYH+GX9OqWl/bqWWM6Fppx64u0x8XHcagTvJFc+PGjaO8vFxsB5gG7FJhyBGwR8ABIGrEkPZxpMRFER5kXI9fI2fl9kOi84F+3vRtqzNV57m9v7zBbfqK7Qo80dQVDmaeZtY6eab/7oEdrqqK6+XhTrtmxqfTKi2WaokOjh3eTaxIvX//fiZOnCiycQ4L8IoKQ46CvQKO+QhURxcvXixa5mY2mejbNt7weY2cA5mnxaqjIxTUWV2B2KhQurRsLLKRnpXLmp2yrJOm7vHxT2tFujoAkSH+3HBN4hW/pkPzhqKM5r70bIpLr5xxaNesAT1byyfgXnjhBVUbYafgIr0b57FXwJEPLDN6uKSkhNmzRcMu9NN9HHZn0WbZlFebuGhxGcEVuK1fG6RrgiYt3IrFKkuPa+oeWXmFTFq4RWznroEdrjix0j25icj+trQrLyuXaINcyKZNm5g+fbrYDlW6G/9UYciRsFfAASAaN5k2bZro4m3jGxAa6CuyoZGxcJMs4FDRKOnsBPv7MKSzbA197tliZq11qQcpTS3y1cIt5OQbW/t+nqjQgMuWSM1mE/2EGeltaceu+PnBnVqQ2Nj4yO15nn/+eaxqAvdvAZfbnmjvgMPwKzN37lyKioz/kJvNJkPCMxp1HDqRw67Dsj1E13VuWaf7cW7qmSRunp2xYiel5UpSwJo6SFFJGV8ryHLc3r/tJT/erpns4dBisbJxX8ZlP+/t6c7Y4V0N2z/PkiVLWLhwodgOUIGL6G5cjD0DjkzAsDB/UVERc+eKlNLp1073cdgb6Rimp4cbt/RJUeSNc+Hh7sbNvVqLbJRXVDJtuW4W1ciYvmKHodXvF5LctP4ld6xc2yFBZHf7weMUFF2+ZfCO/m2pFyJb0Ga1WnnuuedENi5gEpCqypgjYc+AA4QiYNKySoeEhmKtfI2MhZtSKRJuoLy1T0qdLI9d2yFBnN1ZsCmVbL03RSOkuLScSYvkWY7R17b/3d+9Pd3FAceaXZdvhg4L9OWui65phBkzZrBx40axHVw4uwH2DzhEfRyzZ8+muNh4VK3LKvanqLSc2cLNpD5eHtx/XSdFHjkPtyvoX/lm8TYFnmg0MG3ZdnLPyrIcfdrE0axB+K9/79s2Hn8fmcT48l8OXvZzfx7WRSxhXlFRwUsvvSSycQETgcs77OTYO+DYARhe3HD27FlxWaW/FgGzO98s2iaekLipRzIJMRGKPHJ82sRH01z4/W5OzWBfepYijzR1naLScr5dIgtgTSa474KHhxtrIH1+KQ6dyLmswmh8gzBu6FY90bErMXHiRPFS0XOUA+NUGHJU7B1wAHwvOSwdQerQvCFhdTAd70ikZ+WydKvhJcJAVbbq6Vt6icdDnQVp7wbo7IZGPSoakPu0jSO+QRjNYyLEcuZXmoR7fGQP8RLI4uJi/v73v4tsXMDngEwR0cFxhIBDFDHMmjWLkpLqrRy+FGazSVwj1MhRMcvfNj6aIZ1bKvDGsQn29xGrrKZn5YrVXjWai8k9W8wcYYnUbDIxdng3JSXDywUc3ZIa07llI7H9d955h2PHrjxyW00KceHejfM4QsCxCThs9HBBQQELFiwQOaBCO18jY8ehE6zbfVRs58mbe7h8xuq6Li2uKgV9NaYs+UULfWlswreLtyH90eqR3JSBHWX35V8OHOfQiT+qGbu7mXliZE+RbYCTJ0/y+uuvi+2c411AttHSCXCEgMMKzJAYkJZVWjWpR0xEsMiGRs6nP68T2wj08+Zvt/dR4I1jYjJRo5Xel6KgqJSf1+xW5JFG83sOHs9RsknW3U329vTT6kvvPLu1bxua1A8R2QZ4+eWXyc9XsuwwB/iPCkOOjiMEHFC1Ec8wM2fOpLTU8GoWAAZ10mUVe7Pj0AlW7TgsttO7TZxYfdNRaRMXTeN6spvlrHV7KLrKXgmNRsL/zV5v1+sXlZRdcnVCZLA/DyiYaNu1axcTJkwQ2znHeCBPlTFHxlECjg2A4Xx6Xl4ec+YY3ngP6LKKo/DRT2uUpPqfubU3DSOCFHjkWAztduUlV1fDYrXy3VIt9KWxLbsPn1Ty8GCUH1btumRQ/eiIa8RjsABPPfUUlZWVYjtAOvCBCkPOgKMEHOKyyjfffCNyoHG9EFo2kmvpa2SkZmSLl7oB+Pt4Mv7+wXgKex0cCW9Pd7E67sa96aRn5SrySKO5PJ/ZKctRabFccjy3bXy0uC8EYP78+cybN09s5xyvAManHpwMRwk4QFhW+fnnn8nNld1IdZbDMfhk5joqKi1iOy0aRSrZAOko9EqJxU/4dDZjhUxKXqOpLrsOn2TJVsMyS4ZZsvUAJ3IKfvcxVWPzlZWVPPXUUzIjv7GXKqGvOoMjBRzrAcPzRaWlpcyYIUqScG3HBMx1RcjBgTl6KlfJmCzAqN6tGSYsQzgK13WRjfzm5BexcocehdXUHh98v0bJw0NN+HrB5j98bESPJCXCgBMmTGDnTmVB+4tUSZnXGRwp4LBg57JKRJAf7RMaiGxo1PDF3I2cyj2rxNbfbu9D+4SGSmzZi/AgP7oIdQN+XruH8goldWeNplqkZ+Xy3bLa6xlas/MIu4+c+t3Hgvy8+csw+TbY/Px8Xn75ZbGdc6xHKHrpjDhSwAFCEbBly5aRmZkpckCXVRyDotJy3puxSoktD3c3xt8/2KlHnwd3ai5WRfx5rR6F1dQ+E+ZsuOK2VpVcqm/kL8O6EuTnLbb92muvcfLkSbGdczxFVe9incLRAo7VVK2tN4TFYmHKlCkiB/q1a4aXh7vIhkYN8zemskKRGmZIgA/vPzqMyGB/JfZqm+u7ysopOw+d4PCJM4q80WiqT15hCZ/P2WDz66zZeYQdh0787mMtGkWKdWsA9u/fzzvvvCO2c44ZgJqnKSfD0QIOCyCKGKRlFX8fT/EkgEYdr01eQr6ip6OYiGDef+QGAhU87dQmzWMiiIsOE9mYvU7JcimNxhBTl/7CwcssUVPFp7N+LxxoNpt4/o6+4swgwOOPPy7WejpHKfCsCkPOiKMFHACiiGHz5s3s27dP5IBU60Cjjqy8Qt6culyZvfgGYXzy1xsJDfBRZtPWSJtFyysqmb8pVZE3Gk3Nqai0MP7bZWLJ88uxdNsBdh3+fbnj5l6tSWwslzqYPXs2s2fPFts5x4eAbFOlE+OIAcdmQBQxSLMc7RMaEB0eKLKhUcec9XtZoPANMyEmgk+fvIn6oQHKbNoKN7NZ3Fe0csdh8gvrzKi/xkHZsv8Ys9ftUW63vKKSD75f/buPRQb789AN8kbR0tJSHn/8cbGdc5ymDixouxKOGHCAMMshDTjMJhNDu+oshyPx70lLOHpSnWBV0/qhTHzuFiVPQLakW6vG4myMLW7yGo0R3p62Qtn02Xm+W7ado6d+f294clRPsWYNVG2D3b9fLkR4jn8BdVp1z1EDjskIOnjT0tJYs2aNyIHrurTQmhwORFFJGc99PpeycnVjnWGBvnz6xE30biNb9W5LBnaU7fjJPVvMml1HFHmj0cjILyrlX18tVlZasVqtzNvw+4R49+QmSvrwjh07xrhx48R2zpEKfKTKmLPiqLrPZ4CBQIxRA25ubgwdOtSwAwG+Xmw7cJxj2XVip45TcDq/iOM5BfRpqy5A8HB3Y0D7BNzMJrakHbNZjdkI3p7uvDi6v2gV/cw1u1mpaNJHo1FBRlYeYYG+JDapJ7ZlMploExfF7HV7Ka+04OPlwbtjhxHg6yW2/Ze//IXNm/8oImaQe4E6P5fuqBkOEJZVpkyZQmFhociBocJRRI165qzfy5fzNim1aTLBfdd14r+PDCfEgZpJuyc3xdfLQ2Rj1lpdTtE4Hu9/v4qMLDUPc7HRYfz9rgGYTHD/dZ2IDpP3361cuZJvv/1WgXcALAN+UmXMmXHUDAfAYeBxDAZFZWVlNG/enJSUFMMOxEQGM335dkoVpvE1cjbuS6dFowjxmvaLaRARxODOLTh0PId0RTdDCX8e1pWmUaGGzx88nsNHP61V6JFGo4bySgt7jp5iaNdETApK17FRoQT6enFLnzbiMdiKigqGDx+uSuSrErgJOHG1L1SMGWgMdASuBfoBg4Hrzvkz9II/g4HOQEPABORQJVGhHEdvUpgLDDJ6uFevXixbtkzkwPhvlzJ9+Q6RDY16vD3d+fCxG0mJi1Ju22qFH1bt5J3pKym+xIrr2sDP25OF/7kfTw/jzwQf/LCaifOVpYQ1GuU8OLQL91/XSYktK2re0N59912VkykfAw+pMnYJTEAs0AZoAbQ6998WgNF0bRmwE9gGrKVKgj1H7CmOH3CMBr4yethkMrF//37i4ozX/HcfPsmd46caPq+xHf4+nvzfkyNJaBhuE/vHsvP4z9TlrNpx2Cb2r8TAjgmMu9dwrI3VCtc//z9Onim4+hdrNHbCbDbxwSM30Fm4J0gVGRkZJCYmUlCg5PfmNND83H9V4E9VQNEGSDn3p/W5j9uSUmAm8H/AEgTZD0fu4QD4ESgyethqtfLll1+KHEhsUo/4BjKVR41tOFtcxtj3flA6LnshDcKDeHfsMN76y/W1rtnRRzg588uBTB1saBwei8XKi1/MVz4qa5THHntMVbAB8BLGgg1/qoKJG4EXgO+o0qbKA9YBnwB/Abph+2ADwAu4GVgIHAKewWD2xNEzHABfA38yerhhw4YcOXIEs9l4bDVjxQ5e+2ap4fMa2xIR5MenT9xEo3q2W85WWl7Bt4u3MXHBZpsvonJ3M7PozQfw9zGuI/DGlOV8t+wXhV5pNLYjJS6KT5+4CXc3+z0D//zzzwwbNkyVuW1AB6p6OC7EEwi/4E8MEEdVWeT8fx1bHKiKA8BYYH5NDjlDwNEXWCwxMG/ePAYOHGj4fFFpOYOfnUBhSZnEDY0NiQz256O/3kiT+mobSS+msKSM71fu5NvF22z2VNYlsRH/fXS44fMWi5XBz03gdL7h5KBGU+vc3q8tT9zcwy7XPnv2LElJSRw5okyzZg+wgaqgIgyIoCqQcHx545oxBXgCOF6dL3bkKZXzHAHuAgw/vpaXlzNy5EjDDni4u5GVe/YPWv0ax6GwpIxFW9LomtiY0EBfm13H092NlLgoRvVuTdP6oRQUlXI8J1/pNW7t04akpvUNn9+4L0M3Omucjp2HT9A0KlS8qNAIL774InPmzFFpMoKqXosEqqY/QqkqTbgaSVRpjGwH0q72xc4QcFiBIKCPUQNpaWk89NBD+PgY11iICgtk2vLths9rbE9xaTkLN++nc8sYwoP8bHotN7OZ+AbhXN+1JUM6t8Df14vs/ELyFOwsefa23gT6Gt9o+/XCLew+ckrsh0ZT26zeeZierWNt+tBwMb/88gtjxozBYrHJJGhdwBsYRVWZ5YpPOs4QcEBVluNRDJaAKisradCgAZ07dzbsQEiAD5tTj3H8tNqnWY1aSssrmLcxlcTG9WgYEVQr1wz086ZD84bc0ieFfu3iCQv0o6SsnNP5RTVWLq0fGsCfh3Yx7IvVCq9OWkKRncZ5NRoJFZUW1u05ypAuLfHycLf59SwWCyNGjODo0aM2v5aL4waM4LfG1st+kTOQC/SgqqHGEEeOHOGhhx4Sicx4e7qzeMtVs0YaO1NRWUnXVk3sMl0UGuBL+4QG3Ng9idv6tqV1XBRhgX64uZnJLyyhvPLKT1E9W8eKpNv3pZ9i0qKths9rNPYmv6iU/RnZDOzYXIko2JX49NNP+fTTT216jTqEiSrdLCuw/HJf4CzcTtVSN8MsXryYvn37Gj5fXlHJ0Be+JDtPJpmusS1PjurJbX3b2NuNP2CxWjmRU8Dx0/kcP11ATkERBUWlnC0uo6C4lIpKCy/c0Ve0B+LTn9fx2ewNCr3WaOyDSlGwS3H8+HESExPJza3TC1xtxc3A9Is/aPuclTp+oCrTYbh59KOPPhIFHB7ubgzv3orP9Q3dYblnUAeHDDYAzCYT0WGBSnY9XI6VdhAp02hswWez15MSF0WnFoZ3eF6RsWPH6mDDdnwObAEOXvhBRxf+upBiQLRN56effuLYsWMiJ0Z0T8JNoOmhsR0jeyUzdng3e7thN7LzCtmXrptFNa6BxWLlpS/m22S8e+rUqfzwww/K7Wp+JQiYxkWTOc7Sw3GeLOB+o4ctFgsBAQH07t3bsAN+Pp6kpmdx+MQZwzY06hnQvhkvj+5v85qvI7Nq5+Ffe4yC/X1oXC+EyGB/QgN9KS2voKxCLyHUOBce7m7ERASREBOhzGZ2djZDhw4VbxPXXJUoqqoov+poOePdeTuQbPRwVFQUR48exd3deDVpc2oGD779veHzGrV0bN6Q9x+5AQ93Z4uf1bI1LRM3k4km5zZnXszp/CIOZJ4mNT2L3UdOsXb3EZurpmo0NcXXy4P+7ZsxqFNz2ic0UJ5Rvu2225gyZYpSm5rLUkyVgupxcM6A41HgPYmB7777jptvvlnkxJ9encLeozp9bW+Smtbn47/eiI+Xh71dcTrKKyrZuC+D2ev2sHTrAZ0B0diV+qEB3DWwPUM6t8DP27is/5XIzc2le/fu7Nq1yyb2HQUfHx9atGhBixYtaNmyJY0aNSIyMhIfHx8CAgIICAiguLiYzMxM9u3bx549e/jll1/YsmUL5eXKR+rfBR4H5ww4goF0BEtr+vTpw5IlS0ROLNy8n799NldkQyMjNiqUT5+4iZAA44JumiryCkuYsWIHkxdtVSJeptFUl/AgP8YM7siN3VvVSpayrKyMV199lbffflvloja7YDKZiI2NJSUlhZSUFFq3bk1SUhJm/F1VAAAgAElEQVSxsbGG9odlZ2fzySef8Pbbb3PmjLK2gWKqJC1OOGPAAVVrcg33cphMJnbu3EliYqJhByotFm54cSIncpz7B9ZZiQzx58tnRhEZom5ZYmVlJW5udbssU1RSxrdLfmHi/E1aPExjUwJ8vbjr2vbc2rcN3p61PzB55swZpk6dytSpU1mxYoXDK436+vqSnJxM69atadOmDSkpKSQnJxMYqH7qLTc3l9dff5233npLVcbjLeApZw042gAidaNHHnmE999/X+TElCW/8OZ3l9Q30diQkAAfJjx1s9LtsGVlZYwcOZK8vDzGjRtH9+7dldl2Rk7lnuXVyUtYpcdsNTagbXw0/xozkPqhjrHL7NixY8yYMYOlS5eyevVqsrKy7OKHh4cHjRo1Ii4ujtjY2F//26pVK+Lj42v9gWjGjBncfvvtlJWJF5dmAg2cNeAAWA0YnoH09/cnPT2d4GDjb1pFpeVc97cvdONdLeLt6c4nj48QLTe7GKvVyujRo5k8+TdduQEDBvDSSy/Ro4d9tlc6Cj+t3sXr3y7T/R0aJZhMMGZwRx68vgtms+O+/ezdu5d169axb98+0tLSOHjwIBkZGeTn51NSUvOSo8lkIjw8nLCwMMLDw3/9U69ePRo1avRrcBETEyMaaLAFM2bM4LbbblOR6WjtuK/41fkT8LXEwH/+8x+eeuopkRP//XENX87bJLKhqR5ms4k3/3wdPVsbVri/JA899BAff/zxJT/XqVMnnn32WYYPH26oJuoKbEvL5MmPZ+neDo0Ikwmeu60PN/U0PGToEJSXl5Ofn09eXh55eXkUFBTg5eX1u0AhICDg178HBAQQFhbm1PePN998k6efflpq5m/OHHB4AseAcKMGoqOjOXToEJ6exjuis/MKGfrCl5TrJ0CbYjLBP+8ZyOBOzZXafeWVV/jHP/5x1a+LjY3l7rvv5t577yU6OlqpD87AgczT/Pmd7zlTUGxvVzROiMkEL/6pHzdc08rermgMUFpaSnx8PBkZGRIzS525Q64SCAUMF9sLCgpo1qwZKSkphp3w9fYkIyuP1IxswzY0V+fh4d24uVdrpTY//vjjakftZ86cYenSpbz33nusX78eq9VKo0aN8PY2vkbemQgN8OWapCYs3pJGSVmFvd3ROBnP3daHET2S7O2GxiDu7u74+fkxa9YsiRmn7uEAaAIcQCDR3rp1a7Zt2yZSqDx4PIdb/jmpxqvINdVjZK9knrutj1KbkydP5q677qKy0nhmytPTk969ezN8+HD69OlDixYtFHromOxLz+LBt2dwtljcRKapI4wZ3JGHbuhqbzc0QoqKiggODhb1cjh7wAHwM3C9xMC8efMYOHCgyIm/fjhTd/TbgJ6tY3nzz9cpbTCbP38+w4YNU9F5/Tuio6Pp06cPnTt3pl27dqSkpODvr25s11HYfuA4D77zvS4jaq5Kp5Yx/PfR4Zjr8MoBVyI5OZmdO3caPu8KPwWDAJEC17XXXsv8+fNFTuw+coq7xk/RWQ6FJDWtzyePj1A6o79+/Xr69u1LUZH6hVAXYzabiYuLo1WrVjRv3pyEhASaNGlCkyZNiImJwcPDedVRpy/fwfhvl9rbDY0D4+vlwfRXRhMZ7HpBd11l1KhRTJs2zfB5x5q/McZ8YDdgWMVrwYIFbN26lbZt2xp2IrFxJNckNdFZDkXERATzzkNDlQYbO3bsYMiQIbUSbEDVssD9+/ezf//+P3zOZDIRHBxMSEgIwcHBPPzww9xzzz214pcKRvZKZuO+9F+XxWk0F3PfdZ11sOFiSMvGzjun8xtWqrTaRbz7rtgED1zfBZ05lBMS4MP7jw5TKll+5MgRhgwZQk5OjjKbEqxWK2fOnOHgwYNs2bKF8HDDw1Z249lbexPoVzeaZjU1IyLIj1v6qG3yvhQHM08zcf5m/jFxIRlZeTa/Xl3n+PHjovOu8vboDRykah2uITw8PEhLS6NRo0YiR5746GdWbD8kslGX8ffx5KPHbiSxST1lNrOysujWrRtpaY75NP7YY48pCXjtwfcrd/LqZNleIo3r8fQtvbilj/Hpv8tRabGwed8xlm8/yMrth8g8nf/r5/y8PXnkxmu4qWeyfvCzEd27d2f16tWGzzvzWOyFVAA+QF+jBiwWC1arlUGDBokcaVwvhB9WGW+qqct4uLvxzthhtIlXp3ORl5fHgAEDHHY75NChQ/niiy+UiwJtP3icqUu3s3hLGtsOZGI2m4kKDRBNY12KhJhwFmxM1aJgml8JD/LjlbsH4O6m7md6x6ETfDZ7Pf+cuIjvV+1k1+GTFBT/XuG5vKKSVTsPszk1g7joMCJ0OUc5Tz/9NMXFxrV4XCkODAcOA35GDfj4+JCWliYWdnrio1ms2H5QZKOuYQthr7KyMgYPHizeDGwrWrRowbp16wgKClJm81TuWcZNWsLqnYf/8LnQAB+u69KSm3u1Jjpc3cKnBZtSef7zecrsaZybx27qzugB7ZTY2n7wOP+Zspw9R0/V6JzJBD2Sm3L/9Z1p2ShSiS91nQMHDhAfHy+y4SoZDoAioD7Q2aiBiooKKioqGDx4sMiRxvWCdZajhqgW9rJardx9993MnDlTmU2VBAUFsWjRIho2bKjM5ubUDMa+9yOp6ZdePFVcVsH2g8f5btl2CopKadusgZKn0KZRoSzeekCrkGrwcHfjlbuvxcdLNoFlsVr537xN/P3LhZzKPWvIxpGTufywcic7D5+gQVgQ9RxkUZytKa+oJO3YadbvOUp4kL/4tTjPhx9+yNKlssk0V8pwAMQD+xA0w6rKcjz/+TwWbEoV2agr2ELY629/+xvjx49XalMVJpOJ6dOnM2LECGU21+w6wpMfz6qRNkZ8gzDeHTtMycZOneXQAPRtG8cbD14nslFpsfD4hz+zZtcRRV5VkdAwnIEdm3NtxwSiXCT4OFNQTGpGFvszsknNyGZ/RjaHTuRgMpn4+539GaQoY1xQUEDTpk05ffq0xEyFK4zFXkgaMB0YZdRAcXEx48ePF6+uf2TENSz75QBl5Voc6Ur0bB3LM7f0Vmrzgw8+cNhgA+D5559XGmxsTs3gmU9n11iIK+3Yae4aP5X/PTuK6DBZiaVfu3giQ/w5dcbY06jGNVCxWPGTmeuUBxsAqefelP/742qSm0bRqWUMrWOjaBMXha+38X1atUFWXiEZWXkcy8rj8MkzpKZXBRlZeYV/+NrwID9ef2AIKXGGZyj+wHvvvScNNgB+cbUMB0AXYK3EgLe3N2lpaTRo0EDkyEc/reWLuRtFNlwZWwh7TZ48mdGjR2N1UAW2QYMGMWvWLNzc1FQz07NyGf3qFJHUePOYCCY8fbP4dfh89gY++XmdyIbGuVnwxn2EBvoaPr8tLZP735peqwKKZrOJ+OgwkmOjaFwvhNioUBpGBBEVFoBbLW14LSmr4EROQVVQkV31JyMrj4zsfDKycqv94No6LorXHxhCRJDhVsY/kJWVRXx8PPn5+Vf/4ivzL1cMOABWAD0kBsaOHct///tfkROFJWXc+PJX5OTXjtCUMxETEcwXz9ysVGtjyZIlDB48WLlkuSri4+PZuHEjwcHBSuydKShmzBvTSM/KFdu6sXsSL/zJ8JAXUBX83PjSV2JfNM5JTEQwP/zrTpGNu8ZPZdfhk4o8kuHuZqZ+aAAxEcE0jAgiMsQfP29P/Lw98PX2xM/bkwBfL/y8PcEKhaW/3XcqKy0UlVTtHCkuKyevsISc/CJyC0vIPVt87k/V/+cUFFNUIr9n3dyrNU/c3AMPd7WtmY888oj4vfAc3V014BgMzJEYUJXl+GHVTsZNcswpCXsREuDDxOduEafxL2THjh306NGDvDzHFP8JCgpi48aNNGvWTIm98opKxr7/I1tSjymxZzLBh4/eSKeWMSI7t/5rMmnHxKlXjRMyqFNz/j3G+E6qfelZ3DHuW4Ue1Q1CAnx44Y6+9G4Tp9z20qVLGTBggGjJ5TlygEhXUBq9FHOBDRIDJSUlvPbaa2JHbujWivgGYWI7roK3pzvvPDRUabCRkZHBkCFDHDbYcHNzY8aMGcqCDYB/frVIWbABYLXCq98sES9k69xSJpyncV4SGsrUcmet3aPIk7pDt6TGTHnpDpsEG8ePH+e2225TEWxA1XtypasGHAD/lBr4/PPPycjIENkwm008MbKn1BWXwGw28ep9g0hqWl+Zzby8PIYMGSJ+nWzJ+++/T79+/ZTZ+3LeJuZu2KfM3nkysvJYuu2AyEbrWHWNahrnomlUqOj8yh1aobm6+Hp58OxtvXlv7A2ECXpmLkdRURGjRo3i5Ell5a0vwTV2qVyO2cAmiYHS0lLGjRsndqRTyxi6JzcR23F2HhvRXUkX+3nKysoYMWIEO3bsUGZTNc8++ywPPfSQMnsLN+/nw5/WKLN3Md8t2y4637aZOpVYjXPRuF6I4bMZWXl6F0o16dm6KdP+8Sdu7tXaJhLuZWVljBo1ilWrVqkyuRZYBK4dcAD8Q2rgiy++4PDhw2JH/nqT+mYeZ2Jkr2Tu6G98G+/FWK1WxowZ47AqogBPPvmk0vHc1PQsXpm40KYd/NsPHL/kqF11CQ3wxddbjdCQxnlwM5tFZdLtB2VLweoCkcH+vPHgdbz90FDqhdhGR6SyspI777yT2bNnqzT7yvn/cfWAYzbCXo6ysjJeeuklsSNN6ocok/t1NmyhtfHYY48xefJkpTZV4eXlxQcffMCbb76pzGZeYQlPfTqbkrIKZTYvhcVqZfk2mSz/gPYJirzROAv1QwNEqrX7LqOOqwEvD3fGDO7I9FdG07et+l6N81RWVnLvvfcydepUlWbXAfPP/8XVAw5Q0MsxefJkNmwQxS0A3DekEw0j1O3NcAYSGobz6n2DMJvV5f7Gjx/PBx98oMyeSlq2bMn69et5+OGHldm0WKy8MGEemdniOfhqsXFfuuh8K4WbfjXOQVSY7In7RE6BIk9cB5MJBnZMYMYro3nohq74KpIovxTng42JEyeqNv27p/W6EHCIsxxWq5UnnnhCLCbl6eGmXMLbkYkM8efdscOUC3s9//zzyuypIiQkhDfffJNt27aRkqJ2LffHM9eybvdRpTavhHSstVGkGp0RjfMQ6OstOq+3Df/G+cVzk56/jXH3DlKyeuBKlJSUcPPNN9si2JjPud6N87iatPnl+AdCXY7Vq1czffp0br75ZpEjXRIbMahTc+bZYMrAkfD38eT9h28gMkTdiuglS5YwZswYh1IRTU5OZsyYMdx7770EBKi/MSzZmsaX80W9zzUmp0AmVOfv49gy0Rr1BPvLAo7cs3rxX1WgEcv913eqtQ23ubm5DB8+nOXLl6s2XQo8dfEH60rAMZeqWlIXiZFnn32WYcOG4eXlJXLm6Vt6sXFvOqddVIHUbDYx/v4hSvVHduzYwYgRIxxCRTQ6OpqbbrqJu+66i/bt29vsOmnHTvOPL23bJHop5AGdq+oJai5HgK/sniiR5nd2zCYTvVJiue+6TjSPiai16x49epShQ4eyfbtsMu0yPA78YWV6XQk4oKpTdq7EwKFDh3jvvfd45plnRI4E+Xnz3O19ePoTpZ3ADsMzt/SmS6I6AShHEPZq0aIFQ4cO5cYbb6Rz586Ybbxj4UxBMY9/OJOi0nKbXudSSL83R8pAaWoHky3mM12c0AAfbrimFTf2SFIqhFgdlixZwq233kpWlk2adacAH1/qE3Up4JiHgizHuHHjuOeee4iIkEWifdrEuWRpZVTvFEb2SlZmz17CXvXr16dXr17079+fa6+9lkaNak9Bs7yikic/mcVxOzXSNRNmpnR6XFNTKist9nahVvD0cKNLy8YM6pRA7zZxeNpBKuGtt97iueeeo6LCJhNv+4AHLvfJuhRwQFUvxzyJgfz8fF5++WU+/viSAVyNeOaWXmzelyHSPXAkuiU15qlR6lRVKysrueOOO2wu7OXm5kZSUhLXXHMNXbt2pVu3bsTGqhMoqyn/nrSE7Qfsp0vQPqGh6PxZBYuoNBpXwcvDna6tGtO/XTw9WjetWvZmB86cOcODDz7ItGnTbHWJImAUcNknpboWcMwHViLcJPv5558zduxYkpKSRM4E+nnzrzEDeei9H7BYnDsNHd8gjFfvHax0/PWRRx5RLUADQGhoKF27dv31T8eOHW3S8GmE/83bxOx19tspYTLBtR1kO1/yC0sVeaNxFryET+puAg0PR8NkgvjocDq1jKFzi0a0S2igdFLPCEuXLuWuu+4iPV028n4VHgau2BBS1wIOgCeB9Qg62yoqKvjLX/7CihUrxLXLDs0bcte17fnfvNqdRFBJSIAPb/75eqXTCePHj1eSRQJo3LgxPXr0+PVPixYtHLLm/O2SbXz4o+1ky6vDoI7NaVJfthPjxBmtqVDXCPLzEZ2/rksLJszZqMib2sXNbCYuOpSkpvVpn9CQji1iCA2Q/XuoorS0lJdeeom33noLi8WmZauPgf9d7YvqYsCxEZgM/EliZNWqVUyYMIH77rtP7NCDQ7uwcV8GOw+dENuqbTzc3Xjrz9crFTT78ccfRVobTZs2ZcCAAfTo0YOePXvWav+FUb5ZvI13pq+wqw/1QgJ46pZeYju6abTu0Sulqej8X4Z15ZpWTfhpzW6Wbk0jv8gxs2Rmk4no8EBaNoqkVZN6tGpanxYxEfjYUJTLKOvXr+eBBx6w1RTKhUwGHqnOFzreY17tEAPsBURr9sLCwtizZ4+4gRSqlPZGvzaFMwXO03BnMsE/7xnI4E7Nldlcv349ffv2paioZiPDLVu25KabbmLEiBG0batuZ4utsVrhgx9W89WCzXb1w93NzKdP3ERKnHzb6/vf2//70dQur943WFyKO09FpYXdR06yJfUYW9KOsS3tOEW12BdkNpkID/YjOiyQqNAAosICaVI/hNioUJpGheLl4djP6fn5+bzwwgt89NFHts5qAMwEbgKq1YHq2P9ytiMdeBt4UWLk9OnTPPnkk3z11Vdih+qHBvDvMQN55IOfnKaf466BHZQGG2lpaQwdOrTawUZgYCAPPPAAY8aMoWXLlsr8qC3KKir5x5cLWbAp1d6u8NANXZUEGwBFpbpptK6hskTp7mamdWwUrWOjuJsOWCxWTuQUcOTUGdJP5ZF7tpi8whLyCkvILywht7CEkrIKSi/aM1RQVEKArzcmEwT4eGE2m/Dz8cTdzUywnw/B/t4E+/sQEuBDiL8PQf4+RAb7US9EthfGnvzwww888sgjHDt2rDYuNx24g2oGG1B3Aw6A14F7AdFd9uuvv+bWW29lyJAhYoc6t2zEw8O78f73q8W2bE3ftnGMvaGbMnt5eXkMHTq0WnPhjRs35uGHH+aBBx4gMLB259dVcfRULi9OmMfuI6fs7Qp928YzeoDtBMw0rk+QUPjrSpjNVWWM6PBAuiba7DJOzf79+3n00UeZN080hFkTPqaqjFJZk0POGcap4SzCDMd57r//fs6cOaPCFKMHtFeaNbAFiU3q8c97BqLqoaasrIwRI0awd+/eK35dw4YN+eSTT0hNTeWpp55yymDDYrUybfl2/jTuW4cINprHRPDPe65V9loCTpOh06gjPEhUndYYJDs7m7Fjx5KYmFibwcY/gYeoYbABdTvgAPgS2Co1kpmZyRNPPCH3hqq+iJfv7C/WQrAVkSH+vPngdUrHvB544AGWLFly2c+7u7vz1FNPkZqayoMPPoinp3Pu6ticmsHoV6fw+rfL7KIgejFhgb6889BQ5SN7jvC9aWqX8GB1O5M0V6esrIy33nqLZs2a8dFHH9lKxOtiKoGxwN+NGqjrAYeFSyyYMcKXX37JTz/9pMIUHu5ujL9/MDERjrV10xYL2caPH3/FLYUJCQmsXr2a//znP/j4OMaoWU3Zdfgkj7z/Ew++/T370m0iJVxj/H08effhYUpfS03dxNPDjUAbllQ0v1FZWcmkSZNo1aoVTz31FLm5ubV16VLgVuAjiZG6HnAALKGq+UXMfffdx/HjahQiQwJ8eP/RYUQ6yJODh7sb//nz9UoXss2cOZMXXnjhsp9v27Ytq1atolOnTsquWZts3JfB2Pd+5K7xU1m7+4i93fkVz3Ovpa02UtYVmWpNFfWCHUM0z5WpqKjg66+/JjExkdGjR5OWllabl88FBqPgfVIHHFX8FciXGsnOzmb06NHKRpFiIoL56K83Ehpo3/ro+TJPx+bqyjzbtm3jtttuu+y/Vdu2bVm4cKGSkePa5GxxGd+v3Mmd46fyl3e+Z/2eo/Z26Xd4uLvx+oNDlL6WF1NcpksqdQndv2E7KioqmDhxIomJidx5552kptb6RNt2oAOwVIWx2t8c45gUAIVURXEiDh06hK+vL927d5d7BQT7+9ArJZaV2w9RUFz7Yjhms4kX/9SP67uqGzvNyMigX79+nD59+pKfj4+PZ9myZYSHhyu7pi0pLa9g9c7DTJizgX99vZhl2w6Qlet4+3G8Pd1544Hr6JEsE2m6GvM27uPoqVpL9WrsTHLT+vRvr0aDQ1NFZmYmb7/9NnfeeSdff/01OTk59nBjCnADcFKVwbo8FnsxHwF3UhXNiXj55Ze55pprlAUdjSKD+eKZm3nk/Z/Yfyxbic3qYDab+MddAxjSuYUym0VFRYwcOfKy219NJhNff/21w2c2TucXsX7PUZb/cpA1u45Q7OCNkiEBPrzz0FCSmta3+bXKK3RJpS4R4SBlX2fHarWybNkyPvzwQ2bOnEl5ud3uKaXA34B3VBvWAcdvVAL3AxsAkU5tWVkZo0aNYtOmTURHRytxLjzIjwlPj+QfExexZKvt63cBvl6Mu3cQ3Vo1VmbTarVy9913s379+st+zQ033ECXLl2UXVMVpeUVbEvLZP2eo6zbk87+jCycRcG7UWQw7z0yrNaakEvLa6VjXuMgRAT72dsFp2br1q1Mnz6dqVOncuDAAXu7s4uqtR/bbGFcBxy/ZxvwGvCy1NDx48cZNWoUS5YsUTbG6evtyesPDGHi/E18NHOtzfQOGtUL5p2HhtK4XohSuy+++OIVVyObTCZeeeUVpdc0yun8IrYfPM4vB46z/eBx9h45RVlFjcfO7c41SU3495iBBOgpAo2NiAjSAUdNsFqtbNmyhWnTpjF9+nRHCDIArMB/gWeAEltdRAccf+TfwDCgjdTQ6tWrefTRR/nkk0/kXp3DZIK7B3WgdVwU//xqERlZecpsAwzp3IKnb+ml/A1q8uTJvPbaa1f8mn7/396dx1dV3/kff2UhCSQQsgAhLCYsIezriIAsoiMiUhbrYLVq66jj2Nqpy4yO/Vl/086v7dQ6ziAaO0y1Wh2XUZS04oaKaFFQCEGWFMhCAmFLICFkz839/XFA2ZR7z/fc7dz38/E4D2ac8z3f75DLPZ98v5/v53vppYwZM8bRfn3h6eykdF8txWX7+aLsAMWl+9lX4+zfa7DFxMDfXnkht101mdggn4wbiYGZ2JepgOO89uzZw3vvvcfq1at57733OHQo9EX/TlEO/B3wbqA7UsBxtnbg+ziwtALw29/+lpycHO6//37jgZ1qwtB+vPB/rmPZ6+t4eU2x8fR+eo9uPHDdJcwaN9iZAZ5i/fr13Hzzzec9RXTmTPOTSn3R1NJG8YnZi6Jd1WzfczDsczD80Ss1mX/53uVcOHxASPpv05JKVAmXrfvhorOzkx07drBhwwY+/fRTPvjgA3bt2hXqYZ1LB/AI8C9AUE4NVcBxbpuxqqn9womHPfDAA+Tl5bF48WInHvelrold+MclM/nW1BEUFH7Cuq176PQz8kjsEs+i6SO5dd5kUpOTHB0ffHUgW1vb+Q/0GjYsMCXdm1ra2FBSxaZd+yjaVc1f9h52bfnt2eMH85PvXhqQn6XIuWQa5HDU1NSQmppKly7hd7y7Lzo6OigtLWXr1q1s3LiR9evX8/nnn3PsmHGVhUBbD9yGte01aBRwfL1/Ay4DZps+yOv1csMNN9CnTx+mTZtmPrIzDBvQi//4wbfYV1PPio+28mFxGRUHvv5sl5gYGH5BH+ZPGc7cC/NJ6RqYUuGHDx9m7ty5Ph3IBpCf79xumGNNrawtLuP9olI+3bGHtnZ3T/Nnpibzj0tmcumEIaEeikSRbkkJdEu0Hyy89tpr3HXXXUydOpUZM2Ywa9YsJk2aRFJSeAXMbW1t7N69mx07drB9+3a2bdvGjh07KCkp8emXqTBSh3WGWAFWpe2gUsDx9TqBG7AiQOPymk1NTcybN4933nknYJUz+2Wmcueiady5aBrVtcfYsKOK+sYWGppb8Xq9dO+aSE5WGuOGZNMzJbBlwpuampg/f75fFfF69jTfRVFWXcsThZ/y8RfldERBxcu42FgWTx/FHQumKDFUgs40YbS6uprGxkbeffdd3n3XSiGIi4sjNzeX/Px88vLyyMvLY+jQoQwdOpT+/fsTE4CcpJqaGmpra6murmbPnj1UVFRQUVHx5f+8d+/eYJ1XEkgvAXcBzpTDtkEBxzerBm4GXgeMP+X19fXMmTOHDz74gHHjjHNSv1F2Rg8WXjwyoH18HY/Hw3e+851v3P56LtXV1QwYYJZ3kJ2ZSm5WGn/eWmH0nEgwdeQF/Pjb0xnUNz3UQzlNY3NE/cYnBnobbondt2/fWf/N4/Gwe/fuc/6y0rVrVzIyMkhPT//yz8zMzLN+WUlOTiYhIYHjx4/T3t7OsWPH8Hg81NXV4fF4qKmpOe3yeFw9A7odK9B4J9QDUcBxfoVYBVAcOQ62rq6Oyy+/nNWrV4dkR0ageTwebrzxRgoLC/1uW1JSwuTJk436T0qI5wcLpzJ/yggeX7mODzaXuipfo0t8HJeMG8y1l4xlzOC+oR7OObnnb1vOx7Tol79nTzU3N7N3796vLRwop6nBykX8L6wE0ZBTwOGbfwamnLiMHT58mNb5iIIAACAASURBVMsuu8x1QUd7ezvXXXcdr7xi74yfLVucy18a2Kcn/3bblRw40sAra7+gcN12jhxrcuz5wdY3vTuLpo9i4bSRIT9bR+SkPoanDVdXVzs0EjlFM/DvwMNAWO3vD+4G/cg2ECgCHJu/zsjI4I033jD+rT4ctLW1sWTJEl5//XXbzxg4cCDl5eXExjp/pmBnp5f1JZW8/dlO/ry1gqMNQdkFZqRbYhemjLyAeRcN5+JROcTGBuefa0NDA9272z8B9KoHnubAkQYHRyTh6p+vu4SrZ4y23b53794+J5XLebUC/w38CgjLKSDNcPiuEqvk6x9x6NC72tpaLr30UlasWMHll1/uxCNDoqmpicWLF/P2228bPaeyspI333yTefPmOTSyr8TGxjBlxAVMGXEBnV4vJXsOUbS7mq3lB/ii/EDYvCB790zh4tE5zBo3mEnD+pMQH9zzFUtLS3nttde49957g9qvRKa+6T1st21ublaw4YwWYDnWzsqzk2LCiAIO/7wJ/AyrUIojGhsbmT9/PsuXL+fGG2906rFBc+jQIRYuXMgnn3ziyPMeeughrrzyyoBkop8UGxPDiJw+jMjp8+V/q6lvZGv5AbZWHGRb+QF2V9cGZRZkYJ+ejMrJYmROH8YM7kv+gN4EuTDolzZs2MD8+fO5+eabQzMAiThZ6faXVCorKx0cSVRqwgo0fo21wSHsKeDw38+BiVjlzx3R1tbGTTfdxMaNG/nNb34TMUVwNm/ezIIFCxz94ti4cSMvvPAC1113nWPP9EVmajKzxg0+rdJqfWMLZfuPUHnwKAePHufAkQZq6htpaGqlobn1yz/PVeMjNjaGlK6JdO+aSPduiaR0TSC9ezf6ZfagX2Yq/XqlMqx/Jj3CpEDXq6++yk033URjY2OohyIRJCvd/tLbnj17HBxJVNkO/BZ4hjDL0TgfBRz+82IdY/8RYH/x8hyWLl3K5s2befHFF+nbNzx3IJz08ssvc/PNNwfkBfXDH/6Q6dOnG2+RNZWanMT4IdmMH+LMib/hyOPx8OCDD/KrX/3qvKXnRU7Vo1si3ZLsFw3UDIdfWoEVwJPA2hCPxTbns/OiQz2wGHB8AXLt2rWMGjWK5557zulHO6K+vp7vfe97LFmyJGC/DR89epT58+dTU1MTkOeL5dChQ8ydO5df/vKXCjbEbyazG6CAw0cbgTuBbOA6IjjYAAUcJnYD87HW0Rx15MgRbrjhBhYuXBhW/yjfeustRo8ezTPPPBPwvoqLi7nssssUdATIqlWrGDNmzJfVHUX8pYAjYLZg5QqOASZhHRt/JKQjcogCDjPrge9gnTDruJUrV5KXl8e9997LkSOh+7wVFRVxxRVXMHfuXKqqqoLWb3FxMZdccgkHDx4MWp9u19DQwB133MFVV12lv1cxooDDMZ3AOuCfgCHAWKyCXV+EclCBoIDDXCHWmSsBqY3b2trKI488wuDBg/n5z39OQ0Pwtm+WlJRw7bXXMnHiROMtr3Zt3bqVGTNmsHXr1pD07yaFhYWMGDGCgoICLaGIMQUcRnZi1cz4LtZyyTSsQl2loRxUoCngcMZLwN8SwNP36urq+OlPf0pubi4/+clPAvqPdePGjdx0002MGjWKl156KeQvp507dzJ58mSWL18e8rFEot27d7No0SIWLFigktDiGJOAw+v1BnW2NMQ6gK1YO0uuA/oBw4BbgeeBqJlqVMDhnGewDnoL6ClAtbW1/OIXv2DQoEEsWLCAZ5991pHiORUVFSxbtoxx48YxadIknn322bA60KipqYnbbruN2bNns3379lAPJyLU1NRwzz33MHLkSKMKsP5qbg3ICqOEGZOA48CBA5F2rLuvWrCW2n8L3A5cBKRi7Wi8HXiBCKmZEQjaFuusZ4CjwItAQM9/93g8FBYWUlhYSGxsLOPGjWPcuHHk5+czfPhw8vPzyc3NJS7u9EqVLS0tVFVVUVpayrZt29iyZQtr1qyJmOnNNWvWMHbsWG699VYeeOAB+vfvH+ohhZ0jR47wyCOPsHTpUo4fP+53+zM/M/7ydAZsok/CiGpwcBArwbPoxJ/FQAlhclBaOFLA4bxCYM6JP3ue515HdHZ2smnTJjZt2nTaf09MTCQ1NZWUFKsaYENDgytKCXd0dFBQUMDTTz/Nbbfdxn333Ud2tntrZfjqyJEjPProoyxdupRjx47Zfs7Jz4vI14mPiyUz1f7R9BHyC04bVlBRhrUr8eR18n+3/48sSingCIyPgJnAW0DIKni1trZy6NAhDh06FKohBFRLSwtLly5l+fLl3HrrrfzoRz9i8ODB52/oMtu3b6egoIBnn33WKNAQ8VXvtBRiDWrwGwQcv8M6L6Q3kAX0Ak6W643FWr44UztwHGvmoQFoxCqkVYe1BNIIHDpx7ccKMg4CtXYHKeemgCNwtmBlHr+DtdVJAqS5uZmlS5eybNky5s6dy+23386cOXMipkS8He3t7axYsYInn3ySNWvWhHo4EmVCuEPln3BJTYpopIAjsMqBi4E/YRVwkQDq7OzkjTfe4I033iAjI4O/+Zu/YeHChcyYMYOkpPA4s8SEx+Ph008/5fXXX+e5557jwIEDoR6SRKmstJAEHMdRsBHRFHAE3kFgOlbWcuQdB+uMPcACYC7wy2B0WFtbS0FBAQUFBXTr1o1Zs2Yxe/ZsLrzwQiZMmEBysv3152Bqamri7bff5k9/+hN//OMfXZGDI5EvRDMcEZH4IV9PAUdwtAA3ARuAfwfsn3gUeT4GrsZaH92CVeTmzmAOoKmpiVWrVrFq1SoA4uPjGT16NBdddBGTJ0/mwgsvZNiwYcTGhn6XeEVFBevXr2fDhg2sX7+ejRs30tLSEuphiZymb4YCDvGfAo7gehzrBfw0MD7EYwm0duBfgV/w1TYxL/AjoBlrLTYkOjo6KCoqoqioiIKCAsDa0ZOfn09+fj4jRoxg8ODB5OTkMHDgQPr27Ut8vHP/VDo6OqiqqqKsrIzS0lJ27tzJtm3bKCoqUrlxiQgmMxyNjY3U1trKx1TAEeEUcARfMTAZeODE5cbZjmLg+1j708/lPqwZj4cB+6nuDmptbaW4uJji4uKz/m9xcXFkZWWRk5NDVlYWaWlp9OzZ88vr65JTjx49Sn19/ZfXwYMHKSsro6qqivb28C2O1dGhMgLyzUJUg8ON35VRRQFHaLQD/4JVEv1JrC20btCMNavxG6w97N/kEaAG6zyBsP4cejwe9u3bx759+0I9lKBobGw0at81oQvHm11ZRVJOMEkaNdihkmW7UwkLoV+0jm4lwCXA97BevpHsTWAU1hKKr2+bZ7CSSesCNSgJvrg4fa24WWpyEl0T7W85Nwg4NtjuVMKCvhlCz4v14h2KNTPQHNrh+K0EWAxciVWBz1+rgHHAp04OSkQCI4Q1OPQdEeEUcISPOuAfgXysZYam0A7nvCqBW7AOJXrN8Fl7sLYO34O1115EwlQIA44Go44l5BRwhJ9KrGOL+2O9gP8S2uGcph14HZgHDMIqM+xUhmEH1pbhESf6kBBpbW0N9RAkjIUw4AjfTGvxiQKO8HUU6wU8HCup9PeEbrmlBGsba39gEdYySKDOrq860ccCrEqtEmSmdT+Sk7SZwM36hi7gCPdZXzkPBRzhzwusxdpm2hcrwfQloD7A/e4G/gtrqWM41hbWYJ4CVwiMBH6GllkiisGZXhIBTGY4Ojs72bt3r93mqoAX4cJ6O6KcpR4rwfQZrJ/dGKyEy5PXGM59WuL5HAA2Y9XP2IwV4FQ7MF5TzcBDwGPAvcAdgNmvVyJixCTgqK6uNqlBo7W+CKeAI3J1AJtOXKfKxko8zQXisH7GZ35DtGAtXVRj7SwJ9/Pra4D7sbbc3gT8ABgW0hFFjrXAjFAPQtzDJOAwWE4B6xh5iWAKONynmvCYnQiEY1izHcuwlnpuAb4NdA3loMJQPfAcUABsA1YDl/rauKnJbKk8VmsqrpUQH0dGD/sHHxoGHJrhiHDK4ZBIdDKv5UasvJa/B9ad+O/R6uTfyXex/k5+iBVsgJ9r36Zl17spadS1+mb0MMrRMQg4vCiXK+JphkMiXT1WefgnsZaRlgBzgam4//PdCXyGtY34f4HSr7lPX9TiiH69ehi1r6iosNv0mFHHEhbc/oUs0aUc+NWJKxWrbPxUrMPyJgL254LDRxPwHvBHrJ08vhwvq9PYxBHZGSELOFT0ywUUcIhb1WP95n+yiFg81jbbKVgByIVAHuH9b8CLVfhtw4lrPdZOIn/XPPTboTgiO8POJrivKOCIbuH8ZSvipA6sl3Ux1vILWMddD8eqbjoSa3fPCGAIYP90KntasQqsbT7jcuJgu05/bm5oMPtuj4tVaphb9cu0P8Ph9XopK7Nz3BKgZUFXUMAh0ayNr4KQU3UBcrAqqw4ABmIlYmYCPU+54oG08/TRiTXbcvTEnyevPVhLQGUnrmoCl/TqVwTR2elXfHKWron6WnGrbIOAY//+/SZl8zXD4QL6ZhA5Wzuw68TlBoEqQy9Rpl+m/SUVg9kNUMDhCpr7FHE/TUeLsZSuCfTolmi7vUH+Bugz7AoKOETcz68kU683msuZyNfJNpjdAOOAI9BnR0kQKOAQcT+/SoceO2a2qSUpIdj5thIM/Qy3xJaWfl2ZGJ8cNepcwoICDhH3a/PnZtMZjvg4fa24kUnCKBjPcBwx6lzCgr4ZRNyv2Z+bTWc4uiVqhsONTBJGwThpVDMcLqCAQ8T9/NqL6PGYbWqJjdXhbW5kUmW0vb2dffv2mXSvGQ4XUMAh4n5+Hd52/LjZhoBkHd7mStkZ9o+lr6qqMg1kFXC4gAIOEfcL6mmxOp7enfr1sr+kYpgwClBr+gAJPQUcIu7n15JKU5Nfm1rOohkO98no0Y3ELvbrRBomjIJmOFxBAYeI+/kVQRiUnwYgTrtUXMdkdgOME0ZBSaOuoG8GEffza42kpcWvFZizdFUdDtcJ4bH0YFUZNYuCJSwo4BBxv0Z/GzQ3+7WT9jRd4vW14jYhDjj2G3UuYUPfDCLu1+Fvg7Y2v2qFncZkrV/Ck8mx9GCcNHrQqHMJGwo4RNzP732ujY1+T4p8KUEBh+uYnKPS2NjI4cOHTbpXwOESCjhE3M/v9e+ODr8nRb6UEB9nu62EJ5MZjvLyctPuD5g+QMKDAg4R92sE/DogpaGhwXZnSQma4XCTuNhY+qSl2G7vQMBxyPQBEh4UcIhEB78OSOns7LTdkQ5vc5c+aSnExdr/mTpQg6Pa9AESHvTNIBId/Ao46uvrbXekw9vcJcQJo6AZDtdQwCESHfxKHDWZ4Yg1+G1Ywo9Jwig4MsOhbbEuoW8GkejgV1KGSQ5HcleVNncT0xkOB3I4tKTiEgo4RKKDXzMcJrtUdDq9u5gW/TIMODxoW6xrKOAQiQ5+BRwmdTiSkxJtt5XwYxJw1NbWGs2WYQUb9qNfCSsKOESig1/f+ialzVWHw11CfCz9XtMHSPhQwCESHfzapXLsmF+3nyahS5yCDpdI7BJPRo9utts7kDBaZfoACR8KOESig18zHCbbYkGJo25heiy9AwmjlaYPkPChgEMkOvgVcJjMcAAkJyngcIN+oU0YBQUcrqKAQyQ6+JU0qoBDAAb26WnUXksqcioFHCLRIbgzHFpScYX+hksqu3fvNh2CZjhcRAGHSHTwa4bDNIcjRVtjXWFgb/szHB0dHVRWGscLCjhcRAGHSHQI6pJKimY4XGFAL/sBx549e2hvbzfpvhUV/XIVBRwi0cGvKQvlcEiX+Diy0rvbbr9r1y7TIZSZPkDCiwIOkeigHA7xS3ZGD2IN6tQ7kL9hXDVMwosCDpHocMSfm81zOBRwRDqT/A1wJODYafoACS8KOESiQ60/Nzc0NOD1em13ltJVSaORLgx2qGiGw2UUcIhEhyagxZ8GJssqWlKJfANCP8NhnAQi4UUBh0j0CNqyipJGI5/JDIfH46GszDjnUwGHyyjgEIkeNf7cbDLDoRyOyHeBQZXRyspK0y2xbajKqOso4BCJHn7lcZjMcKgOR2SLj4sN9ZbYXYDH9CESXhRwiEQPv5ZUlMMRvbIzehAXa//14ED+xlbTB0j4UcAhEj2CF3BoSSWimR7a5kDA8YXpAyT8KOAQiR77/bn5yBG/4pPT9OiWRIz9mlESYrlZ6UbtHVhS2W76AAk/CjhEoscBf24+fPiw7Y5iY2NITe5qu72E1gV90ozal5Yal9DQDIcLKeAQiR5+HYRVW+tXjulZUpOTjNpL6OT2tT/D0dHRYbqk0oTOUXElBRwi0aPan5sPHTpk1Flad81wRKqcLPszHKWlpaZbYncAnSYPkPCkgEMkevi1pFJT41fZjrOkpSjgiETp3bsazU6VlJSYDmGT6QMkPCngEIkefiWNGi+ppGhJJRKZ5m/s2LHDdAifmT5AwpMCDpHo0Qoc9fXmgwf9Svk4S3r3bkbtJTRM8jfAkRmOjaYPkPCkgEMkuvg8y2E6w9FTMxwRKcdwS6xhwNGCdqi4lgIOkeiy19cbW1tbjYKOzNRk220ldHIMl1QMA45iwCjjVMKXAg6R6OLXgVj79/uV9nGazB4KOCJRbrb9GY7q6mqjM3hQ/oarKeAQiS7BCzh6KuCINF0Tu9AnLcV2ewfyNzaYPkDClwIOkehS4c/Ne/f6vAJzlt497b+4JDSG9s8k1qAmvQMBx1rTB0j4UsAhEl3K/bnZZIYjKSFex9RHmPwBvYzaG26JrQT2GA1AwpoCDpHoUuHPzdXVfhUnPUuvVM1yRJL8gb2N2m/bts2k+UdGnUvYU8AhEl324ccuAJMZDoBeyuOIKHn9M43aFxUVmTT/0KhzCXsKOESiiwc/EkcrKiqMOstK727UXoKnS3wcg7MzbLcvKyujrq7OZAia4XA5BRwi0afC1xvLy/1K+ThLv8xUo/YSPEOyM+gSH2e7veHsRjVgnHEq4U0Bh0j08fno76NHjxrVVcjO7GG7rQTXmMF9jdobBhxvGXUuEUEBh0j02e3PzWVlPscnZ+mXoYAjUowfkm3UftMmo0NeFXBEAQUcItFnqz83m+Rx9NUMR8SYkNffqP3nn39ut6kHWG3UuUQEBRwi0cevgKO0tNR2R71Sk0lKiLfdXoIjJyuN9O5dbbcvKSnh8OHDdpt/ih+nGEvkUsAhEn0qgQZfbzZZUgHINTx9VAJvwtB+Ru3XrjUqEPq2UecSMRRwiEQfL7Dd15sNq0eS21cBR7ibMWaQUXvDgEP5G1FCAYdIdPJ5WcU04DCp7SCBl5QQz1/lm+VvfPSR7RIah4CNRp1LxFDAIRKdfJ7hOHjwIEeOHLHdUf5As/M5JLAuGnEBiV3s59mUl5dTWVlpt/k7QKftziWiKOAQiU7r/bnZ5IyMkTlZRieQSmBdPCrHqL3B7AbAm0adS0RRwCESnTYCbb7evHWrXxtbTpPSNYFB2crjCEexMTHMGGuWv7F6te0dra3AG0adS0RRwCESnVoAnwsnGJ4CyphBZlUsJTAmDx9otB3W4/Hwxhu2Y4b3APtlbCXiKOAQiV7rfL3RNOAYZ1jFUgJj/tThRu3XrVtnkt/zilHnEnEUcIhEL58DjqKiIjo77ef2TRuVQ1ysvm7CSY9uicwaO9joGStXrrTbtB0oNOpcIo6+AUSi1599vbG+vt5oe2xqchIT88yKS4mz/npSHgld7J8OC5gsp3wA1Bp1LhFHAYdI9DoEfOHrzevW+Twhck6XTRxq1F6c9a2pI4za79ixg5IS2yfK/8Goc4lICjhEots7vt5oGnBcPimPboldjJ4hzhg7uC8jc/oYPeO5556z2/QYsMKoc4lICjhEopvPAYdh+WpSuiYw7yKzJEVxxk1zJhm17+zs5Nlnn7Xb/CWgyWgAEpEUcIhEt4+AZl9uLCsro7i42Kiza2aNQTXAQmtQdgbTR+caPePdd99l7969dpv/3qhziVgKOESiWzN+zHK89tprRp0N6pvOpDyzczvEzA8WTDEO+n7/+9/bbfoX4BOz3iVSKeAQkdd9vXHFCvOl9yWXjDV+htgzefhAZhpWFq2pqeH1133+yJzpcazTiiUKKeAQkT8BHl9u/OKLL9i0aZNRZ9PH5JKV3t3oGeK/uNhY7r5muvFzHn/8cVpaWuw0rQOeNh6ARCwFHCJSg5XL4ZOCggKjzuJiY7nhrycYPUP8d+3ssQzOzjB6RmNjI8uWLbPb/L+B40YDkIimgENEwI9lleeff97ouHqAhRePJL1HN6NniO8GZ2fwgwVTjZ/zu9/9jpqaGjtNO4DHjAcgEc2szJyIuMV+4MfAedMJOzo66NWrF1On2n+BxcfF0tnpZUNJle1niG8SusSx7EcL6dUz2eg5HR0dXHvttdTX2zpv7X/Q7pSopxkOEQGoBD719eYnnnjC6GwVgGtmjtYsRxDcuWgaQ/qZLaUA/OEPf6CystJOUw/wr8YDkIinGQ4ROak7cIUvN9bV1TFx4kSGDRtmu7Mu8XEkJcTz560Vtp8h32zm2EHcfc0M422w7e3tXHPNNdTV1dlp/gKw3GwE4gaa4RCRk14BfJ62ePzxx407XHTxKIb2yzR+jpxtVG4W/+9vr3Ck0Nry5cspLy+307QT+Ln5CMQNVPNPRE71MTDN15s/++wzJk0yK5O9pXQ/t/zmFTq9Ks/glAG9evLUP11DWveuxs+qq6sjLy+Pw4cP22n+P8D1xoMQV9CSioicKgWY6+vNNTU1LFmyxKjDPundqW1oYvueQ0bPEUuv1GQe/4dFjtU6uf/++3n//fftNO0ElmBtuxbRDIeInCYL2IuPv4zExMSwZcsWRo0aZdRpQ1MrS372PIfqVKbBRL/MVAp+vIjszB6OPK+kpIQxY8bQ3t5up7lmN+Q0muEQkVMdB6YCQ3xtcODAAeNZjsQu8eQP7MWq9SVoZcWeERf05okfL6KPQzMbXq+X66+/nl27dtlp7gGuRbMbcgoFHCJyphhgka83l5SUcPnllzNgwACjTrMzetDZ6WXTrn1Gz4lGi6eP4le3XUn3bomOPfPJJ5/kscds1+r6L+AZxwYjrqAlFRE5U3fgAOBzkYxp06bx8ccfG3fc2enl9kdXKOjwUVJCPA9cP5srJ+c7+twdO3YwadIkmpqa7DSvA/IAW1mm4l6a4RCRM7UBYwCfEzOqqqoYO3Ysw4cPN+o4JiaGySMG8u7GXTS2tBk9y+2GDejF0jsXMHn4QEef29bWxty5c6mqsl0F9v8Aqx0ckriEZjhE5Fy+Baz0p8GwYcPYunUr8fHxxp3v3lfLLb/5X443K+g4U1JCPH83/yKuu3QccbHOl1K6++67efTRR+02L8EKVm1lmYq7aYZDRM6lHPh7/FhWqa2tJS0tjSlTphh3nt6jGyNzs3j38514OpVFetKUERew9IcLuHh0DrFOVPQ6Q0FBAQ8++KDd5h5gIbDHuRGJm2iGQ0S+zsPAvf40SElJYfv27cYJpCdt2FHFPU/+iebW6P6FeXB2BncsmMLMsYMC1kdhYSGLFy/G4/HYfcR/AHc5OCRxGQUcIvJ1BgKlgF9rJPPnz6ewsNCxQXxRfoB/eGwlx5paHXtmpBjaL5MbLp/AFRcOC8iMxkmbNm1i+vTpdpNEwfqcjAUanRuVuI0CDhH5Jq9hTZP75dVXX2Xx4sWODaK65hj3L18VFdVIY2NjmDV2EEsuGcvEvP4B72/79u3Mnj2bgwcP2n1EG3Ax8JlzoxI3UsAhIt9kBvChv40yMjLYsmUL2dnZjg2krcPDf7zyMS+vKXbsmeEkMzWZq6YM59szRjtWlvx8HAg2AP4BWOrQkMTFFHCIyPl8iBV4+GXWrFmsXr2auDhnc9NXb9zFL55/3xVLLN27JXLJuMFcceEwJuX1JzY2eF/JmzZtYs6cOdTUGBUDfQ24GlBmr5yXdqmIyPlUAjf526iiooK4uDhmzpzp6GAGZWcwf8oIauob2b2v1tFnB0NK1wRmjh3E3y+YwgPXz2b2+CH0y0wlJoA5Gmf6+OOPmTNnDkePHjV5TDlwJdDizKjE7TTDISK++Ahrnd4vcXFxrFy5knnz5gVgSLBp1z5++8f1bNy5NyDPd8qQfhlMHXkB00blMG5IdkDqZ/jqrbfe4uqrrzZJEAUrb2MqsNGZUUk0UMAhIr6YDbxnp2FqaiofffQRo0ePdnhIX9lecZAVH2/lnc920hQGW2j7ZaYyfmg244dkc9GIgfRJC05OxvksW7aMu+++2+7pr6e6E1jmwJAkiijgEBFf2crlAOjfvz+ffPIJ/fsHdtdFU2s7HxaX8UFRKeu2VdDS1hHQ/gDiYmMZnJ3O+KH9GDckm3FDsumVmhzwfv1x/Phxbr31Vl588UUnHvc88F0nHiTRRQGHiPhqJrDGbuPRo0ezZs0a0tPTnRvRN2hr91Bctp+NO/eyaec+/lJ12Ph8lj5p3RnQO5WcrDSGDejFsAG9GZKdQUKX8E2HKykpYfHixezYscOJx30CzMJaUhHxiwIOEfHHe1jLK7aMHz+e1atXBy3oONPh+kaqa45Re6yRY42tHGtqpaGphU7vV5ssusTH0TWhC8lJCXRL6kJmajKZPbqRnZlKUoL5OTHB0tHRwX/+53/y0EMP0djoSD2u3Vh5GzoFVkREAm480IG1DdLWNWHCBO/hw4e9Ejiff/65d+LEibZ/Rue49gFDAvvREhEROd2jGL7A8vPzvVVVVaF+L7vOsWPHvPfcc483Pj7eyWDjAJAf2I+UiIjI2boDezF8keXk5Hh37doV6ne0KzQ1NXkffvhhb2ZmppOBxslgY2QgP0wiIiLfZCEOvNCysrK8n332Wajf1xGrtbXV+8QTT3izs7OdDjS8WIW9tIwiIiIhtwwHXmyJiYnexx57LNTv7ojS3t7ufeqpp7y5ubmBCDS8QDHQN3AfHRERmdozNAAAA8FJREFUEd8lYlWadOQlt3DhQu/Ro0dD/S4Paw0NDd4nnnjCO2TIkEAFGl5gLdAzQJ8ZERERWwYBdTj0ssvNzfW+//77oX6vh53du3d77777bm/Pnj0DGWh4gVeApMB8VERERMwsAjpx6KUXExPjvfHGG7379+8P9Xs+pFpaWrwrV670zps3zxsbGxvoQMMLPIYO9BQRkTD3MA6/AFNSUrwPPfSQt6GhIdTv/qDxeDzeDz74wHvLLbd409PTgxFkeLFOe709AJ8JERERx8Vjrf07/kLMzMz0/vrXv/Y2NjaGOh4IiPb2du+HH37oveuuu7z9+vULVpBx8qoELnT4syAiIhJQfbG2Ugbk5di7d2/vz372M29tbW2oYwRj+/fv9z711FPeq6++2puamhrsIOPk9TKQ6eQHQEREJFhysX5rDtiLMjk52fv973/fu27dulDHDT6rr6/3rlq1ynv//fd7x48f742JiQlVkOEFaoFrnfuRi4iIhMYQoIogvDyHDBnive+++7yffPKJ1+PxhDqu+FJ1dbX35Zdf9t55553ecePGeePi4kIZYJx6/QHo48hPWcRPOi1WRAIhD3gf6BesDtPS0pgxYwazZs1iwoQJjBkzhp49A19Oorq6ms2bN1NUVMTmzZvZuHEj5eXlAe/XTzuBO7BO+xUJCQUcIhIoFwBvEcKDv3Jzcxk2bBgjR45k0KBB5OTkkJOTQ3Z2tk/BSEtLCwcPHqS6uppDhw6xd+9e9u3bR2lpKbt27WLXrl0cP348CP+f2NYM/BJrF1FLiMciUU4Bh4gEUgbwJvBXoR7ImWJiYkhLSzsr8Ojs7KS+vp6mpiZaW1tDNDpHvAbcBewJ9UBERESCIQVYRejzF6LlWgtM9+knIyIi4jJxwKOE/mXs5mstcIWvPxARERE3+zZwhNC/nN1ydQCvAlP8+SGIiIhEgwFAIaF/WUfyVQX83xN/lyIiIvINFhGkeh0uudqA14Gr0CFrIiIifknByu1oJ/Qv9HC9tgD3oYJdIiIixsYCHxP6l3u4XF8ADxLCGiYiIiJuNg/YQOhf+MG+OoHNwE+B4cZ/iyIiIuKTi4EXsKpjhjoYCNRVBTwNXA9kOfPXJiIiInb0wqqWuZXQBwimVy1W0uedaBZDREQkbE0BlgH7CX3w4Mv1F+D3wK1YAYaOkpCopn8AIhJpYrGCj8uAGcBFQLeQjggOYOVgFAGfAp8Ah0M6IpEwo4BDRCJdHJAHjDvlGgVkO9xPJ7AXKMU67v0vwHagGCvgEJFv8P8Bp43xg3nmQHAAAAAASUVORK5CYII=;container=0;" parent="ugJio_jdhn8PNFgV0b_A-29" vertex="1">
          <mxGeometry x="63.5" y="10" width="29.08" height="30" as="geometry" />
        </mxCell>
        <mxCell id="ugJio_jdhn8PNFgV0b_A-14" value="&lt;font face=&quot;Courier New&quot;&gt;5432:5432&lt;/font&gt;" style="shape=hexagon;perimeter=hexagonPerimeter2;whiteSpace=wrap;html=1;fixedSize=1;strokeColor=#666666;align=center;verticalAlign=middle;fontFamily=Helvetica;fontSize=12;fontColor=#333333;fillColor=#f5f5f5;size=10;" vertex="1" parent="ugJio_jdhn8PNFgV0b_A-40">
          <mxGeometry y="80" width="80" height="20" as="geometry" />
        </mxCell>
        <mxCell id="ugJio_jdhn8PNFgV0b_A-31" value="" style="shadow=0;dashed=0;html=1;strokeColor=none;fillColor=#EF8F21;labelPosition=center;verticalLabelPosition=bottom;verticalAlign=top;align=center;outlineConnect=0;shape=mxgraph.veeam.linux;aspect=fixed;container=0;" vertex="1" parent="ugJio_jdhn8PNFgV0b_A-40">
          <mxGeometry x="122.5" y="20" width="30" height="30" as="geometry" />
        </mxCell>
        <mxCell id="ugJio_jdhn8PNFgV0b_A-39" value="" style="shape=image;verticalLabelPosition=bottom;labelBackgroundColor=default;verticalAlign=top;aspect=fixed;imageAspect=0;editableCssRules=.*;image=data:image/svg+xml,PHN2ZyB4bWxucz0iaHR0cDovL3d3dy53My5vcmcvMjAwMC9zdmciIHZpZXdCb3g9Ii0wLjAwNTIyNjk2OTcxODkzMzEwNTUgMCA3NTYuMjU1MjQ5MDIzNDM3NSA1OTYuOTAwMjA3NTE5NTMxMiIgZGF0YS1uYW1lPSJMYXllciAxIiBpZD0iTGF5ZXJfMSIgd2lkdGg9Ijc1Ni4yNTUyNDkwMjM0Mzc1IiBoZWlnaHQ9IjU5Ni45MDAyMDc1MTk1MzEyIj4mI3hhOyAgPGRlZnM+JiN4YTsgICAgPHN0eWxlPiYjeGE7ICAgICAgLmNscy0xIHsmI3hhOyAgICAgICAgZmlsbDogIzFkNjNlZDsmI3hhOyAgICAgICAgc3Ryb2tlLXdpZHRoOiAwcHg7JiN4YTsgICAgICB9JiN4YTsgICAgPC9zdHlsZT4mI3hhOyAgPC9kZWZzPiYjeGE7ICA8cGF0aCBkPSJNNzQzLjk2LDI0NS4yNWMtMTguNTQtMTIuNDgtNjcuMjYtMTcuODEtMTAyLjY4LTguMjctMS45MS0zNS4yOC0yMC4xLTY1LjAxLTUzLjM4LTkwLjk1bC0xMi4zMi04LjI3LTguMjEsMTIuNGMtMTYuMTQsMjQuNS0yMi45NCw1Ny4xNC0yMC41Myw4Ni44MSwxLjksMTguMjgsOC4yNiwzOC44MywyMC41Myw1My43NC00Ni4xLDI2Ljc0LTg4LjU5LDIwLjY3LTI3Ni43NywyMC42N0guMDZjLS44NSw0Mi40OSw1Ljk4LDEyNC4yMyw1Ny45NiwxOTAuNzcsNS43NCw3LjM1LDEyLjA0LDE0LjQ2LDE4Ljg3LDIxLjMxLDQyLjI2LDQyLjMyLDEwNi4xMSw3My4zNSwyMDEuNTksNzMuNDQsMTQ1LjY2LjEzLDI3MC40Ni03OC42LDM0Ni4zNy0yNjguOTcsMjQuOTguNDEsOTAuOTIsNC40OCwxMjMuMTktNTcuODguNzktMS4wNSw4LjIxLTE2LjU0LDguMjEtMTYuNTRsLTEyLjMtOC4yN1pNMTg5LjY3LDIwNi4zOWgtODEuN3Y4MS43aDgxLjd2LTgxLjdaTTI5NS4yMiwyMDYuMzloLTgxLjd2ODEuN2g4MS43di04MS43Wk00MDAuNzcsMjA2LjM5aC04MS43djgxLjdoODEuN3YtODEuN1pNNTA2LjMyLDIwNi4zOWgtODEuN3Y4MS43aDgxLjd2LTgxLjdaTTg0LjEyLDIwNi4zOUgyLjQydjgxLjdoODEuN3YtODEuN1pNMTg5LjY3LDEwMy4yaC04MS43djgxLjdoODEuN3YtODEuN1pNMjk1LjIyLDEwMy4yaC04MS43djgxLjdoODEuN3YtODEuN1pNNDAwLjc3LDEwMy4yaC04MS43djgxLjdoODEuN3YtODEuN1pNNDAwLjc3LDBoLTgxLjd2ODEuN2g4MS43VjBaIiBjbGFzcz0iY2xzLTEiLz4mI3hhOzwvc3ZnPg==;" vertex="1" parent="ugJio_jdhn8PNFgV0b_A-40">
          <mxGeometry x="129" y="100" width="37.99" height="30" as="geometry" />
        </mxCell>
        <mxCell id="ugJio_jdhn8PNFgV0b_A-42" value="" style="group" vertex="1" connectable="0" parent="X4bvIKR5kBCmrV_lh8Uz-57">
          <mxGeometry x="500" y="812" width="147.99" height="130" as="geometry" />
        </mxCell>
        <mxCell id="ugJio_jdhn8PNFgV0b_A-1" value="pgadmin" style="shape=cube;whiteSpace=wrap;html=1;boundedLbl=1;backgroundOutline=1;darkOpacity=0.05;darkOpacity2=0.1;size=10;align=left;verticalAlign=top;fillColor=#CCCCCC;" vertex="1" parent="ugJio_jdhn8PNFgV0b_A-42">
          <mxGeometry x="29" width="111" height="120" as="geometry" />
        </mxCell>
        <mxCell id="ugJio_jdhn8PNFgV0b_A-34" value="" style="shadow=0;dashed=0;html=1;strokeColor=none;fillColor=#EF8F21;labelPosition=center;verticalLabelPosition=bottom;verticalAlign=top;align=center;outlineConnect=0;shape=mxgraph.veeam.linux;aspect=fixed;container=0;" vertex="1" parent="ugJio_jdhn8PNFgV0b_A-42">
          <mxGeometry x="100" y="20" width="30" height="30" as="geometry" />
        </mxCell>
        <mxCell id="ugJio_jdhn8PNFgV0b_A-35" value="" style="group;verticalAlign=middle;" vertex="1" connectable="0" parent="ugJio_jdhn8PNFgV0b_A-42">
          <mxGeometry x="50" y="60" width="80" height="50" as="geometry" />
        </mxCell>
        <mxCell id="ugJio_jdhn8PNFgV0b_A-36" value="pgadmin" style="rounded=0;whiteSpace=wrap;html=1;strokeColor=default;align=left;verticalAlign=top;fontFamily=Helvetica;fontSize=12;fontColor=default;fillColor=none;" vertex="1" parent="ugJio_jdhn8PNFgV0b_A-35">
          <mxGeometry width="80" height="50" as="geometry" />
        </mxCell>
        <mxCell id="ugJio_jdhn8PNFgV0b_A-13" value="&lt;font face=&quot;Courier New&quot;&gt;5050:&amp;nbsp; 80&lt;/font&gt;" style="shape=hexagon;perimeter=hexagonPerimeter2;whiteSpace=wrap;html=1;fixedSize=1;strokeColor=#666666;align=center;verticalAlign=middle;fontFamily=Helvetica;fontSize=12;fontColor=#333333;fillColor=#f5f5f5;size=10;" vertex="1" parent="ugJio_jdhn8PNFgV0b_A-42">
          <mxGeometry y="80" width="80" height="20" as="geometry" />
        </mxCell>
        <mxCell id="ugJio_jdhn8PNFgV0b_A-41" value="" style="shape=image;verticalLabelPosition=bottom;labelBackgroundColor=default;verticalAlign=top;aspect=fixed;imageAspect=0;editableCssRules=.*;image=data:image/svg+xml,PHN2ZyB4bWxucz0iaHR0cDovL3d3dy53My5vcmcvMjAwMC9zdmciIHZpZXdCb3g9Ii0wLjAwNTIyNjk2OTcxODkzMzEwNTUgMCA3NTYuMjU1MjQ5MDIzNDM3NSA1OTYuOTAwMjA3NTE5NTMxMiIgZGF0YS1uYW1lPSJMYXllciAxIiBpZD0iTGF5ZXJfMSIgd2lkdGg9Ijc1Ni4yNTUyNDkwMjM0Mzc1IiBoZWlnaHQ9IjU5Ni45MDAyMDc1MTk1MzEyIj4mI3hhOyAgPGRlZnM+JiN4YTsgICAgPHN0eWxlPiYjeGE7ICAgICAgLmNscy0xIHsmI3hhOyAgICAgICAgZmlsbDogIzFkNjNlZDsmI3hhOyAgICAgICAgc3Ryb2tlLXdpZHRoOiAwcHg7JiN4YTsgICAgICB9JiN4YTsgICAgPC9zdHlsZT4mI3hhOyAgPC9kZWZzPiYjeGE7ICA8cGF0aCBkPSJNNzQzLjk2LDI0NS4yNWMtMTguNTQtMTIuNDgtNjcuMjYtMTcuODEtMTAyLjY4LTguMjctMS45MS0zNS4yOC0yMC4xLTY1LjAxLTUzLjM4LTkwLjk1bC0xMi4zMi04LjI3LTguMjEsMTIuNGMtMTYuMTQsMjQuNS0yMi45NCw1Ny4xNC0yMC41Myw4Ni44MSwxLjksMTguMjgsOC4yNiwzOC44MywyMC41Myw1My43NC00Ni4xLDI2Ljc0LTg4LjU5LDIwLjY3LTI3Ni43NywyMC42N0guMDZjLS44NSw0Mi40OSw1Ljk4LDEyNC4yMyw1Ny45NiwxOTAuNzcsNS43NCw3LjM1LDEyLjA0LDE0LjQ2LDE4Ljg3LDIxLjMxLDQyLjI2LDQyLjMyLDEwNi4xMSw3My4zNSwyMDEuNTksNzMuNDQsMTQ1LjY2LjEzLDI3MC40Ni03OC42LDM0Ni4zNy0yNjguOTcsMjQuOTguNDEsOTAuOTIsNC40OCwxMjMuMTktNTcuODguNzktMS4wNSw4LjIxLTE2LjU0LDguMjEtMTYuNTRsLTEyLjMtOC4yN1pNMTg5LjY3LDIwNi4zOWgtODEuN3Y4MS43aDgxLjd2LTgxLjdaTTI5NS4yMiwyMDYuMzloLTgxLjd2ODEuN2g4MS43di04MS43Wk00MDAuNzcsMjA2LjM5aC04MS43djgxLjdoODEuN3YtODEuN1pNNTA2LjMyLDIwNi4zOWgtODEuN3Y4MS43aDgxLjd2LTgxLjdaTTg0LjEyLDIwNi4zOUgyLjQydjgxLjdoODEuN3YtODEuN1pNMTg5LjY3LDEwMy4yaC04MS43djgxLjdoODEuN3YtODEuN1pNMjk1LjIyLDEwMy4yaC04MS43djgxLjdoODEuN3YtODEuN1pNNDAwLjc3LDEwMy4yaC04MS43djgxLjdoODEuN3YtODEuN1pNNDAwLjc3LDBoLTgxLjd2ODEuN2g4MS43VjBaIiBjbGFzcz0iY2xzLTEiLz4mI3hhOzwvc3ZnPg==;" vertex="1" parent="ugJio_jdhn8PNFgV0b_A-42">
          <mxGeometry x="110" y="100" width="37.99" height="30" as="geometry" />
        </mxCell>
        <mxCell id="ugJio_jdhn8PNFgV0b_A-43" value="" style="shadow=0;dashed=0;html=1;strokeColor=none;fillColor=#EF8F21;labelPosition=center;verticalLabelPosition=bottom;verticalAlign=top;align=center;outlineConnect=0;shape=mxgraph.veeam.linux;aspect=fixed;container=0;" vertex="1" parent="X4bvIKR5kBCmrV_lh8Uz-57">
          <mxGeometry x="470" y="622" width="30" height="30" as="geometry" />
        </mxCell>
        <mxCell id="X4bvIKR5kBCmrV_lh8Uz-76" value="Links" parent="0" />
        <mxCell id="ugJio_jdhn8PNFgV0b_A-78" style="edgeStyle=orthogonalEdgeStyle;rounded=0;orthogonalLoop=1;jettySize=auto;html=1;exitX=0.5;exitY=1;exitDx=0;exitDy=0;entryX=0;entryY=0.5;entryDx=0;entryDy=0;fontFamily=Helvetica;fontSize=12;fontColor=default;startArrow=classic;startFill=1;" edge="1" parent="X4bvIKR5kBCmrV_lh8Uz-76" source="X4bvIKR5kBCmrV_lh8Uz-10" target="ugJio_jdhn8PNFgV0b_A-48">
          <mxGeometry relative="1" as="geometry" />
        </mxCell>
        <mxCell id="ugJio_jdhn8PNFgV0b_A-77" style="edgeStyle=orthogonalEdgeStyle;rounded=0;orthogonalLoop=1;jettySize=auto;html=1;entryX=1;entryY=0.5;entryDx=0;entryDy=0;fontFamily=Helvetica;fontSize=12;fontColor=default;exitX=0.5;exitY=1;exitDx=0;exitDy=0;startArrow=classic;startFill=1;" edge="1" parent="X4bvIKR5kBCmrV_lh8Uz-76" source="X4bvIKR5kBCmrV_lh8Uz-1" target="ugJio_jdhn8PNFgV0b_A-70">
          <mxGeometry relative="1" as="geometry" />
        </mxCell>
        <mxCell id="ugJio_jdhn8PNFgV0b_A-50" style="edgeStyle=orthogonalEdgeStyle;rounded=0;orthogonalLoop=1;jettySize=auto;html=1;entryX=0;entryY=0.5;entryDx=0;entryDy=0;fontFamily=Helvetica;fontSize=12;fontColor=default;startArrow=classic;startFill=1;" edge="1" parent="X4bvIKR5kBCmrV_lh8Uz-76" source="ugJio_jdhn8PNFgV0b_A-44" target="ugJio_jdhn8PNFgV0b_A-14">
          <mxGeometry relative="1" as="geometry" />
        </mxCell>
        <mxCell id="ugJio_jdhn8PNFgV0b_A-17" style="edgeStyle=orthogonalEdgeStyle;rounded=0;orthogonalLoop=1;jettySize=auto;html=1;entryX=0;entryY=0.5;entryDx=0;entryDy=0;fontFamily=Helvetica;fontSize=12;fontColor=default;startArrow=classic;startFill=1;" edge="1" parent="X4bvIKR5kBCmrV_lh8Uz-76" source="ugJio_jdhn8PNFgV0b_A-1" target="ugJio_jdhn8PNFgV0b_A-14">
          <mxGeometry relative="1" as="geometry" />
        </mxCell>
      </root>
    </mxGraphModel>
  </diagram>
</mxfile>
